<svg width="700" height="127" viewBox="0 0 700 127" fill="none" xmlns="http://www.w3.org/2000/svg">
<g clip-path="url(#clip0_11_2)">
<path d="M111.777 43C111.777 44.9333 111.477 46.6667 110.877 48.2C110.343 49.7333 109.577 51.1 108.577 52.3C107.577 53.5 106.41 54.5667 105.077 55.5C103.743 56.4333 102.277 57.3 100.677 58.1C101.41 58.3667 102.277 58.8 103.277 59.4C104.277 59.9333 105.243 60.7 106.177 61.7C107.11 62.7 107.877 64 108.477 65.6C109.143 67.1333 109.477 69.0333 109.477 71.3C109.477 74.3 108.843 77.0667 107.577 79.6C106.31 82.1333 104.41 84.3333 101.877 86.2C99.4099 88 96.3432 89.4333 92.6766 90.5C89.0766 91.5 84.9099 92 80.1766 92H50.4766L63.9766 28.5H90.2766C92.8766 28.5 95.4432 28.7 97.9766 29.1C100.577 29.4333 102.877 30.1333 104.877 31.2C106.943 32.2667 108.61 33.7667 109.877 35.7C111.143 37.5667 111.777 40 111.777 43ZM84.5766 55.1C86.0432 55.1 87.2766 54.6667 88.2766 53.8C89.3432 52.9333 90.2099 51.8667 90.8766 50.6C91.5432 49.2667 92.0432 47.8667 92.3766 46.4C92.7099 44.8667 92.8766 43.5 92.8766 42.3C92.8766 40.3667 92.4099 38.7333 91.4766 37.4C90.6099 36 89.2099 35.3 87.2766 35.3H84.2766L79.9766 55.1H84.5766ZM77.3766 85.7C79.3766 85.7 81.0432 85.1333 82.3766 84C83.7099 82.8667 84.8099 81.4667 85.6766 79.8C86.5432 78.1333 87.1432 76.4 87.4766 74.6C87.8766 72.7333 88.0766 71.1 88.0766 69.7C88.0766 67.3667 87.5766 65.5333 86.5766 64.2C85.6432 62.8 84.1099 62.1 81.9766 62.1H78.2766L73.3766 85.7H77.3766ZM134.484 71.9C134.217 73.3667 134.017 74.7667 133.884 76.1C133.817 77.4333 133.784 78.6333 133.784 79.7C133.784 80.3 133.817 80.9667 133.884 81.7C133.95 82.4333 134.084 83.1333 134.284 83.8C134.55 84.4 134.884 84.9333 135.284 85.4C135.75 85.8 136.384 86 137.184 86C137.784 86 138.45 85.8 139.184 85.4C139.984 85 140.75 84.4333 141.484 83.7C142.284 82.9667 143.017 82.0667 143.684 81C144.417 79.9333 144.984 78.7333 145.384 77.4H161.784L159.184 88.1C157.85 88.9667 156.317 89.7 154.584 90.3C152.85 90.9 151.017 91.4 149.084 91.8C147.15 92.1333 145.184 92.3667 143.184 92.5C141.184 92.7 139.284 92.8 137.484 92.8C134.15 92.8 131.05 92.5 128.184 91.9C125.317 91.3 122.817 90.2667 120.684 88.8C118.55 87.3333 116.85 85.4 115.584 83C114.384 80.5333 113.784 77.5 113.784 73.9C113.784 70.6333 114.284 67.4333 115.284 64.3C116.35 61.1667 118.084 58.4 120.484 56C122.95 53.5333 126.217 51.5667 130.284 50.1C134.417 48.6333 139.55 47.9 145.684 47.9C152.35 47.9 157.35 48.9333 160.684 51C164.084 53.0667 165.784 56.3 165.784 60.7C165.784 62.5 165.517 64.4667 164.984 66.6C164.45 68.6667 163.65 70.4333 162.584 71.9H134.484ZM147.784 60C147.784 57.9333 147.45 56.5333 146.784 55.8C146.117 55.0667 145.317 54.7 144.384 54.7C143.317 54.7 142.317 55.0667 141.384 55.8C140.517 56.4667 139.717 57.4 138.984 58.6C138.25 59.7333 137.584 61.0667 136.984 62.6C136.384 64.0667 135.884 65.6333 135.484 67.3H146.884C147.017 66.5 147.15 65.6667 147.284 64.8C147.417 64.0667 147.517 63.2667 147.584 62.4C147.717 61.5333 147.784 60.7333 147.784 60ZM208.171 49H224.371L216.171 87.9C215.571 90.9 214.571 93.6667 213.171 96.2C211.771 98.7333 209.804 100.933 207.271 102.8C204.804 104.667 201.671 106.133 197.871 107.2C194.138 108.267 189.571 108.8 184.171 108.8C183.171 108.8 181.971 108.767 180.571 108.7C179.171 108.7 177.738 108.667 176.271 108.6C174.804 108.6 173.404 108.567 172.071 108.5C170.738 108.433 169.671 108.367 168.871 108.3L170.771 101.1C172.904 101.433 175.071 101.6 177.271 101.6C179.538 101.667 181.471 101.7 183.071 101.7C185.071 101.7 186.738 101.5 188.071 101.1C189.471 100.767 190.604 100.2 191.471 99.4C192.404 98.6 193.138 97.5333 193.671 96.2C194.271 94.8667 194.738 93.2333 195.071 91.3L196.271 84.8H195.571C195.171 85.4 194.571 86.1333 193.771 87C193.038 87.8 192.071 88.6 190.871 89.4C189.671 90.1333 188.238 90.7667 186.571 91.3C184.971 91.7667 183.138 92 181.071 92C178.738 92 176.738 91.6667 175.071 91C173.471 90.2667 172.171 89.3 171.171 88.1C170.171 86.8333 169.438 85.3667 168.971 83.7C168.504 81.9667 168.271 80.1 168.271 78.1C168.271 77.2333 168.338 75.9 168.471 74.1C168.604 72.3 168.904 70.2667 169.371 68C169.904 65.7333 170.638 63.4333 171.571 61.1C172.571 58.7 173.871 56.5333 175.471 54.6C177.138 52.6667 179.171 51.0667 181.571 49.8C184.038 48.5333 187.004 47.9 190.471 47.9C191.538 47.9 192.704 48 193.971 48.2C195.238 48.4 196.471 48.7667 197.671 49.3C198.871 49.8333 199.938 50.6 200.871 51.6C201.804 52.6 202.538 53.9 203.071 55.5H203.671L208.171 49ZM196.971 57.7C195.371 57.7 194.038 58.5667 192.971 60.3C191.904 61.9667 191.038 63.9333 190.371 66.2C189.704 68.4667 189.204 70.7333 188.871 73C188.604 75.2 188.471 76.8333 188.471 77.9C188.471 79.2333 188.671 80.3667 189.071 81.3C189.538 82.1667 190.338 82.6 191.471 82.6C192.138 82.6 192.771 82.4333 193.371 82.1C194.038 81.7667 194.638 81.4 195.171 81C195.771 80.5333 196.271 80.0667 196.671 79.6C197.138 79.1333 197.471 78.7667 197.671 78.5L201.371 61C200.838 60.2667 200.204 59.5333 199.471 58.8C198.804 58.0667 197.971 57.7 196.971 57.7ZM244.484 92H224.184L233.284 49H253.784L244.484 92ZM256.384 35.9C256.384 37.4333 256.05 38.7667 255.384 39.9C254.784 41.0333 253.95 42 252.884 42.8C251.884 43.6 250.717 44.2 249.384 44.6C248.05 45 246.684 45.2 245.284 45.2C242.617 45.2 240.384 44.5667 238.584 43.3C236.784 42.0333 235.884 40.0333 235.884 37.3C235.884 35.8333 236.184 34.5333 236.784 33.4C237.384 32.2 238.184 31.2333 239.184 30.5C240.25 29.7 241.45 29.1 242.784 28.7C244.184 28.3 245.617 28.1 247.084 28.1C249.684 28.1 251.884 28.7333 253.684 30C255.484 31.2667 256.384 33.2333 256.384 35.9ZM281.28 55.4C282.68 54.0667 284.247 52.8333 285.98 51.7C287.514 50.7667 289.314 49.9 291.38 49.1C293.447 48.3 295.747 47.9 298.28 47.9C301.747 47.9 304.614 48.8 306.88 50.6C309.147 52.3333 310.28 54.7333 310.28 57.8C310.28 58.6667 310.18 59.7333 309.98 61C309.78 62.2 309.547 63.4667 309.28 64.8C309.014 66.1333 308.714 67.5 308.38 68.9C308.114 70.2333 307.88 71.4333 307.68 72.5L303.48 92H283.18L288.68 65.9C288.814 65.0333 288.98 64.1667 289.18 63.3C289.38 62.3667 289.48 61.5333 289.48 60.8C289.48 59.8 289.214 59 288.68 58.4C288.214 57.7333 287.48 57.4 286.48 57.4C285.28 57.4 284.114 57.8333 282.98 58.7C281.914 59.5667 281.08 60.3 280.48 60.9L273.88 92H253.48L262.58 49H278.88L280.68 55.4H281.28ZM394.515 43.6C394.515 47.5333 393.415 51.1667 391.215 54.5C389.015 57.8333 385.382 60.3667 380.315 62.1L391.915 92H369.615L360.815 64.3H359.715L353.815 92H332.215L345.715 28.5H372.015C375.082 28.5 377.982 28.7 380.715 29.1C383.448 29.4333 385.815 30.1667 387.815 31.3C389.882 32.3667 391.515 33.9 392.715 35.9C393.915 37.8333 394.515 40.4 394.515 43.6ZM365.715 57.9C367.448 57.9 368.915 57.3333 370.115 56.2C371.382 55 372.382 53.5667 373.115 51.9C373.915 50.2333 374.482 48.4667 374.815 46.6C375.148 44.6667 375.315 43 375.315 41.6C375.315 39.8667 375.015 38.4 374.415 37.2C373.815 35.9333 372.515 35.3 370.515 35.3H366.015L361.015 57.9H365.715ZM402.696 52.7C406.096 51.0333 409.563 49.8333 413.096 49.1C416.696 48.3 420.696 47.9 425.096 47.9C429.363 47.9 432.896 48.2333 435.696 48.9C438.496 49.5667 440.729 50.5333 442.396 51.8C444.063 53.0667 445.229 54.5667 445.896 56.3C446.563 58.0333 446.896 60 446.896 62.2C446.896 63.4667 446.796 64.8333 446.596 66.3C446.463 67.7667 446.296 69 446.096 70L441.396 92H425.296L423.496 85.6H422.896C420.763 87.9333 418.263 89.7333 415.396 91C412.596 92.2 409.796 92.8 406.996 92.8C405.396 92.8 403.829 92.5667 402.296 92.1C400.763 91.6333 399.396 90.9333 398.196 90C396.996 89 396.029 87.7667 395.296 86.3C394.563 84.7667 394.196 82.9333 394.196 80.8C394.196 77.3333 395.129 74.6 396.996 72.6C398.929 70.5333 401.429 69 404.496 68C407.629 66.9333 411.129 66.2667 414.996 66C418.929 65.7333 422.863 65.6 426.796 65.6C426.929 64.9333 427.096 64 427.296 62.8C427.496 61.5333 427.596 60.4333 427.596 59.5C427.596 58.3 427.263 57.2 426.596 56.2C425.996 55.1333 424.696 54.6 422.696 54.6C420.363 54.6 418.629 55.3 417.496 56.7C416.429 58.0333 415.729 59.6667 415.396 61.6H400.796L402.696 52.7ZM425.696 70.3H423.896C421.963 70.3 420.296 70.5667 418.896 71.1C417.563 71.5667 416.463 72.2 415.596 73C414.796 73.8 414.196 74.7 413.796 75.7C413.396 76.7 413.196 77.7 413.196 78.7C413.196 80.3 413.596 81.5 414.396 82.3C415.263 83.1 416.263 83.5 417.396 83.5C418.796 83.5 420.163 83 421.496 82C422.896 81 423.763 79.6667 424.096 78L425.696 70.3ZM495.072 89.6C492.272 90.7333 489.305 91.5333 486.172 92C483.105 92.5333 479.605 92.8 475.672 92.8C472.205 92.8 469.005 92.4667 466.072 91.8C463.205 91.0667 460.705 89.9333 458.572 88.4C456.439 86.8667 454.772 84.9 453.572 82.5C452.372 80.0333 451.772 77.0667 451.772 73.6C451.772 70 452.372 66.6667 453.572 63.6C454.839 60.4667 456.705 57.7333 459.172 55.4C461.705 53.0667 464.905 51.2333 468.772 49.9C472.639 48.5667 477.239 47.9 482.572 47.9C486.905 47.9 490.672 48.2667 493.872 49C497.072 49.6667 499.705 51.2333 501.772 53.7L498.972 66.5H485.372C485.439 65.3667 485.505 64.3667 485.572 63.5C485.639 62.6333 485.672 61.6667 485.672 60.6C485.672 58.4667 485.439 56.9667 484.972 56.1C484.505 55.1667 483.739 54.7 482.672 54.7C480.805 54.7 479.172 55.6333 477.772 57.5C476.372 59.3 475.205 61.5 474.272 64.1C473.405 66.6333 472.739 69.3333 472.272 72.2C471.872 75 471.672 77.4 471.672 79.4C471.672 80.1333 471.705 80.9 471.772 81.7C471.839 82.4333 471.972 83.1333 472.172 83.8C472.439 84.4667 472.772 85 473.172 85.4C473.572 85.8 474.139 86 474.872 86C475.539 86 476.305 85.8 477.172 85.4C478.039 85 478.872 84.4 479.672 83.6C480.472 82.7333 481.239 81.6333 481.972 80.3C482.705 78.9667 483.272 77.3667 483.672 75.5H497.972L495.072 89.6ZM522.12 92H501.82L510.92 49H531.42L522.12 92ZM534.02 35.9C534.02 37.4333 533.687 38.7667 533.02 39.9C532.42 41.0333 531.587 42 530.52 42.8C529.52 43.6 528.354 44.2 527.02 44.6C525.687 45 524.32 45.2 522.92 45.2C520.254 45.2 518.02 44.5667 516.22 43.3C514.42 42.0333 513.52 40.0333 513.52 37.3C513.52 35.8333 513.82 34.5333 514.42 33.4C515.02 32.2 515.82 31.2333 516.82 30.5C517.887 29.7 519.087 29.1 520.42 28.7C521.82 28.3 523.254 28.1 524.72 28.1C527.32 28.1 529.52 28.7333 531.32 30C533.12 31.2667 534.02 33.2333 534.02 35.9ZM558.917 55.4C560.317 54.0667 561.884 52.8333 563.617 51.7C565.151 50.7667 566.951 49.9 569.017 49.1C571.084 48.3 573.384 47.9 575.917 47.9C579.384 47.9 582.251 48.8 584.517 50.6C586.784 52.3333 587.917 54.7333 587.917 57.8C587.917 58.6667 587.817 59.7333 587.617 61C587.417 62.2 587.184 63.4667 586.917 64.8C586.651 66.1333 586.351 67.5 586.017 68.9C585.751 70.2333 585.517 71.4333 585.317 72.5L581.117 92H560.817L566.317 65.9C566.451 65.0333 566.617 64.1667 566.817 63.3C567.017 62.3667 567.117 61.5333 567.117 60.8C567.117 59.8 566.851 59 566.317 58.4C565.851 57.7333 565.117 57.4 564.117 57.4C562.917 57.4 561.751 57.8333 560.617 58.7C559.551 59.5667 558.717 60.3 558.117 60.9L551.517 92H531.117L540.217 49H556.517L558.317 55.4H558.917ZM631.511 49H647.711L639.511 87.9C638.911 90.9 637.911 93.6667 636.511 96.2C635.111 98.7333 633.144 100.933 630.611 102.8C628.144 104.667 625.011 106.133 621.211 107.2C617.478 108.267 612.911 108.8 607.511 108.8C606.511 108.8 605.311 108.767 603.911 108.7C602.511 108.7 601.078 108.667 599.611 108.6C598.144 108.6 596.744 108.567 595.411 108.5C594.078 108.433 593.011 108.367 592.211 108.3L594.111 101.1C596.244 101.433 598.411 101.6 600.611 101.6C602.878 101.667 604.811 101.7 606.411 101.7C608.411 101.7 610.078 101.5 611.411 101.1C612.811 100.767 613.944 100.2 614.811 99.4C615.744 98.6 616.478 97.5333 617.011 96.2C617.611 94.8667 618.078 93.2333 618.411 91.3L619.611 84.8H618.911C618.511 85.4 617.911 86.1333 617.111 87C616.378 87.8 615.411 88.6 614.211 89.4C613.011 90.1333 611.578 90.7667 609.911 91.3C608.311 91.7667 606.478 92 604.411 92C602.078 92 600.078 91.6667 598.411 91C596.811 90.2667 595.511 89.3 594.511 88.1C593.511 86.8333 592.778 85.3667 592.311 83.7C591.844 81.9667 591.611 80.1 591.611 78.1C591.611 77.2333 591.678 75.9 591.811 74.1C591.944 72.3 592.244 70.2667 592.711 68C593.244 65.7333 593.978 63.4333 594.911 61.1C595.911 58.7 597.211 56.5333 598.811 54.6C600.478 52.6667 602.511 51.0667 604.911 49.8C607.378 48.5333 610.344 47.9 613.811 47.9C614.878 47.9 616.044 48 617.311 48.2C618.578 48.4 619.811 48.7667 621.011 49.3C622.211 49.8333 623.278 50.6 624.211 51.6C625.144 52.6 625.878 53.9 626.411 55.5H627.011L631.511 49ZM620.311 57.7C618.711 57.7 617.378 58.5667 616.311 60.3C615.244 61.9667 614.378 63.9333 613.711 66.2C613.044 68.4667 612.544 70.7333 612.211 73C611.944 75.2 611.811 76.8333 611.811 77.9C611.811 79.2333 612.011 80.3667 612.411 81.3C612.878 82.1667 613.678 82.6 614.811 82.6C615.478 82.6 616.111 82.4333 616.711 82.1C617.378 81.7667 617.978 81.4 618.511 81C619.111 80.5333 619.611 80.0667 620.011 79.6C620.478 79.1333 620.811 78.7667 621.011 78.5L624.711 61C624.178 60.2667 623.544 59.5333 622.811 58.8C622.144 58.0667 621.311 57.7 620.311 57.7Z" fill="url(#paint0_linear_11_2)" fill-opacity="0.5"/>
<path d="M50.4766 102.5H163.831V107.7H50.4766V102.5ZM212.872 102.5H587.167V107.7H212.872V102.5ZM636.208 102.5H648.511V107.7H636.208V102.5Z" fill="url(#paint1_linear_11_2)" fill-opacity="0.5"/>
<path d="M111.777 46C111.777 47.9333 111.477 49.6667 110.877 51.2C110.343 52.7333 109.577 54.1 108.577 55.3C107.577 56.5 106.41 57.5667 105.077 58.5C103.743 59.4333 102.277 60.3 100.677 61.1C101.41 61.3667 102.277 61.8 103.277 62.4C104.277 62.9333 105.243 63.7 106.177 64.7C107.11 65.7 107.877 67 108.477 68.6C109.143 70.1333 109.477 72.0333 109.477 74.3C109.477 77.3 108.843 80.0667 107.577 82.6C106.31 85.1333 104.41 87.3333 101.877 89.2C99.4099 91 96.3432 92.4333 92.6766 93.5C89.0766 94.5 84.9099 95 80.1766 95H50.4766L63.9766 31.5H90.2766C92.8766 31.5 95.4432 31.7 97.9766 32.1C100.577 32.4333 102.877 33.1333 104.877 34.2C106.943 35.2667 108.61 36.7667 109.877 38.7C111.143 40.5667 111.777 43 111.777 46ZM84.5766 58.1C86.0432 58.1 87.2766 57.6667 88.2766 56.8C89.3432 55.9333 90.2099 54.8667 90.8766 53.6C91.5432 52.2667 92.0432 50.8667 92.3766 49.4C92.7099 47.8667 92.8766 46.5 92.8766 45.3C92.8766 43.3667 92.4099 41.7333 91.4766 40.4C90.6099 39 89.2099 38.3 87.2766 38.3H84.2766L79.9766 58.1H84.5766ZM77.3766 88.7C79.3766 88.7 81.0432 88.1333 82.3766 87C83.7099 85.8667 84.8099 84.4667 85.6766 82.8C86.5432 81.1333 87.1432 79.4 87.4766 77.6C87.8766 75.7333 88.0766 74.1 88.0766 72.7C88.0766 70.3667 87.5766 68.5333 86.5766 67.2C85.6432 65.8 84.1099 65.1 81.9766 65.1H78.2766L73.3766 88.7H77.3766ZM134.484 74.9C134.217 76.3667 134.017 77.7667 133.884 79.1C133.817 80.4333 133.784 81.6333 133.784 82.7C133.784 83.3 133.817 83.9667 133.884 84.7C133.95 85.4333 134.084 86.1333 134.284 86.8C134.55 87.4 134.884 87.9333 135.284 88.4C135.75 88.8 136.384 89 137.184 89C137.784 89 138.45 88.8 139.184 88.4C139.984 88 140.75 87.4333 141.484 86.7C142.284 85.9667 143.017 85.0667 143.684 84C144.417 82.9333 144.984 81.7333 145.384 80.4H161.784L159.184 91.1C157.85 91.9667 156.317 92.7 154.584 93.3C152.85 93.9 151.017 94.4 149.084 94.8C147.15 95.1333 145.184 95.3667 143.184 95.5C141.184 95.7 139.284 95.8 137.484 95.8C134.15 95.8 131.05 95.5 128.184 94.9C125.317 94.3 122.817 93.2667 120.684 91.8C118.55 90.3333 116.85 88.4 115.584 86C114.384 83.5333 113.784 80.5 113.784 76.9C113.784 73.6333 114.284 70.4333 115.284 67.3C116.35 64.1667 118.084 61.4 120.484 59C122.95 56.5333 126.217 54.5667 130.284 53.1C134.417 51.6333 139.55 50.9 145.684 50.9C152.35 50.9 157.35 51.9333 160.684 54C164.084 56.0667 165.784 59.3 165.784 63.7C165.784 65.5 165.517 67.4667 164.984 69.6C164.45 71.6667 163.65 73.4333 162.584 74.9H134.484ZM147.784 63C147.784 60.9333 147.45 59.5333 146.784 58.8C146.117 58.0667 145.317 57.7 144.384 57.7C143.317 57.7 142.317 58.0667 141.384 58.8C140.517 59.4667 139.717 60.4 138.984 61.6C138.25 62.7333 137.584 64.0667 136.984 65.6C136.384 67.0667 135.884 68.6333 135.484 70.3H146.884C147.017 69.5 147.15 68.6667 147.284 67.8C147.417 67.0667 147.517 66.2667 147.584 65.4C147.717 64.5333 147.784 63.7333 147.784 63ZM208.171 52H224.371L216.171 90.9C215.571 93.9 214.571 96.6667 213.171 99.2C211.771 101.733 209.804 103.933 207.271 105.8C204.804 107.667 201.671 109.133 197.871 110.2C194.138 111.267 189.571 111.8 184.171 111.8C183.171 111.8 181.971 111.767 180.571 111.7C179.171 111.7 177.738 111.667 176.271 111.6C174.804 111.6 173.404 111.567 172.071 111.5C170.738 111.433 169.671 111.367 168.871 111.3L170.771 104.1C172.904 104.433 175.071 104.6 177.271 104.6C179.538 104.667 181.471 104.7 183.071 104.7C185.071 104.7 186.738 104.5 188.071 104.1C189.471 103.767 190.604 103.2 191.471 102.4C192.404 101.6 193.138 100.533 193.671 99.2C194.271 97.8667 194.738 96.2333 195.071 94.3L196.271 87.8H195.571C195.171 88.4 194.571 89.1333 193.771 90C193.038 90.8 192.071 91.6 190.871 92.4C189.671 93.1333 188.238 93.7667 186.571 94.3C184.971 94.7667 183.138 95 181.071 95C178.738 95 176.738 94.6667 175.071 94C173.471 93.2667 172.171 92.3 171.171 91.1C170.171 89.8333 169.438 88.3667 168.971 86.7C168.504 84.9667 168.271 83.1 168.271 81.1C168.271 80.2333 168.338 78.9 168.471 77.1C168.604 75.3 168.904 73.2667 169.371 71C169.904 68.7333 170.638 66.4333 171.571 64.1C172.571 61.7 173.871 59.5333 175.471 57.6C177.138 55.6667 179.171 54.0667 181.571 52.8C184.038 51.5333 187.004 50.9 190.471 50.9C191.538 50.9 192.704 51 193.971 51.2C195.238 51.4 196.471 51.7667 197.671 52.3C198.871 52.8333 199.938 53.6 200.871 54.6C201.804 55.6 202.538 56.9 203.071 58.5H203.671L208.171 52ZM196.971 60.7C195.371 60.7 194.038 61.5667 192.971 63.3C191.904 64.9667 191.038 66.9333 190.371 69.2C189.704 71.4667 189.204 73.7333 188.871 76C188.604 78.2 188.471 79.8333 188.471 80.9C188.471 82.2333 188.671 83.3667 189.071 84.3C189.538 85.1667 190.338 85.6 191.471 85.6C192.138 85.6 192.771 85.4333 193.371 85.1C194.038 84.7667 194.638 84.4 195.171 84C195.771 83.5333 196.271 83.0667 196.671 82.6C197.138 82.1333 197.471 81.7667 197.671 81.5L201.371 64C200.838 63.2667 200.204 62.5333 199.471 61.8C198.804 61.0667 197.971 60.7 196.971 60.7ZM244.484 95H224.184L233.284 52H253.784L244.484 95ZM256.384 38.9C256.384 40.4333 256.05 41.7667 255.384 42.9C254.784 44.0333 253.95 45 252.884 45.8C251.884 46.6 250.717 47.2 249.384 47.6C248.05 48 246.684 48.2 245.284 48.2C242.617 48.2 240.384 47.5667 238.584 46.3C236.784 45.0333 235.884 43.0333 235.884 40.3C235.884 38.8333 236.184 37.5333 236.784 36.4C237.384 35.2 238.184 34.2333 239.184 33.5C240.25 32.7 241.45 32.1 242.784 31.7C244.184 31.3 245.617 31.1 247.084 31.1C249.684 31.1 251.884 31.7333 253.684 33C255.484 34.2667 256.384 36.2333 256.384 38.9ZM281.28 58.4C282.68 57.0667 284.247 55.8333 285.98 54.7C287.514 53.7667 289.314 52.9 291.38 52.1C293.447 51.3 295.747 50.9 298.28 50.9C301.747 50.9 304.614 51.8 306.88 53.6C309.147 55.3333 310.28 57.7333 310.28 60.8C310.28 61.6667 310.18 62.7333 309.98 64C309.78 65.2 309.547 66.4667 309.28 67.8C309.014 69.1333 308.714 70.5 308.38 71.9C308.114 73.2333 307.88 74.4333 307.68 75.5L303.48 95H283.18L288.68 68.9C288.814 68.0333 288.98 67.1667 289.18 66.3C289.38 65.3667 289.48 64.5333 289.48 63.8C289.48 62.8 289.214 62 288.68 61.4C288.214 60.7333 287.48 60.4 286.48 60.4C285.28 60.4 284.114 60.8333 282.98 61.7C281.914 62.5667 281.08 63.3 280.48 63.9L273.88 95H253.48L262.58 52H278.88L280.68 58.4H281.28ZM394.515 46.6C394.515 50.5333 393.415 54.1667 391.215 57.5C389.015 60.8333 385.382 63.3667 380.315 65.1L391.915 95H369.615L360.815 67.3H359.715L353.815 95H332.215L345.715 31.5H372.015C375.082 31.5 377.982 31.7 380.715 32.1C383.448 32.4333 385.815 33.1667 387.815 34.3C389.882 35.3667 391.515 36.9 392.715 38.9C393.915 40.8333 394.515 43.4 394.515 46.6ZM365.715 60.9C367.448 60.9 368.915 60.3333 370.115 59.2C371.382 58 372.382 56.5667 373.115 54.9C373.915 53.2333 374.482 51.4667 374.815 49.6C375.148 47.6667 375.315 46 375.315 44.6C375.315 42.8667 375.015 41.4 374.415 40.2C373.815 38.9333 372.515 38.3 370.515 38.3H366.015L361.015 60.9H365.715ZM402.696 55.7C406.096 54.0333 409.563 52.8333 413.096 52.1C416.696 51.3 420.696 50.9 425.096 50.9C429.363 50.9 432.896 51.2333 435.696 51.9C438.496 52.5667 440.729 53.5333 442.396 54.8C444.063 56.0667 445.229 57.5667 445.896 59.3C446.563 61.0333 446.896 63 446.896 65.2C446.896 66.4667 446.796 67.8333 446.596 69.3C446.463 70.7667 446.296 72 446.096 73L441.396 95H425.296L423.496 88.6H422.896C420.763 90.9333 418.263 92.7333 415.396 94C412.596 95.2 409.796 95.8 406.996 95.8C405.396 95.8 403.829 95.5667 402.296 95.1C400.763 94.6333 399.396 93.9333 398.196 93C396.996 92 396.029 90.7667 395.296 89.3C394.563 87.7667 394.196 85.9333 394.196 83.8C394.196 80.3333 395.129 77.6 396.996 75.6C398.929 73.5333 401.429 72 404.496 71C407.629 69.9333 411.129 69.2667 414.996 69C418.929 68.7333 422.863 68.6 426.796 68.6C426.929 67.9333 427.096 67 427.296 65.8C427.496 64.5333 427.596 63.4333 427.596 62.5C427.596 61.3 427.263 60.2 426.596 59.2C425.996 58.1333 424.696 57.6 422.696 57.6C420.363 57.6 418.629 58.3 417.496 59.7C416.429 61.0333 415.729 62.6667 415.396 64.6H400.796L402.696 55.7ZM425.696 73.3H423.896C421.963 73.3 420.296 73.5667 418.896 74.1C417.563 74.5667 416.463 75.2 415.596 76C414.796 76.8 414.196 77.7 413.796 78.7C413.396 79.7 413.196 80.7 413.196 81.7C413.196 83.3 413.596 84.5 414.396 85.3C415.263 86.1 416.263 86.5 417.396 86.5C418.796 86.5 420.163 86 421.496 85C422.896 84 423.763 82.6667 424.096 81L425.696 73.3ZM495.072 92.6C492.272 93.7333 489.305 94.5333 486.172 95C483.105 95.5333 479.605 95.8 475.672 95.8C472.205 95.8 469.005 95.4667 466.072 94.8C463.205 94.0667 460.705 92.9333 458.572 91.4C456.439 89.8667 454.772 87.9 453.572 85.5C452.372 83.0333 451.772 80.0667 451.772 76.6C451.772 73 452.372 69.6667 453.572 66.6C454.839 63.4667 456.705 60.7333 459.172 58.4C461.705 56.0667 464.905 54.2333 468.772 52.9C472.639 51.5667 477.239 50.9 482.572 50.9C486.905 50.9 490.672 51.2667 493.872 52C497.072 52.6667 499.705 54.2333 501.772 56.7L498.972 69.5H485.372C485.439 68.3667 485.505 67.3667 485.572 66.5C485.639 65.6333 485.672 64.6667 485.672 63.6C485.672 61.4667 485.439 59.9667 484.972 59.1C484.505 58.1667 483.739 57.7 482.672 57.7C480.805 57.7 479.172 58.6333 477.772 60.5C476.372 62.3 475.205 64.5 474.272 67.1C473.405 69.6333 472.739 72.3333 472.272 75.2C471.872 78 471.672 80.4 471.672 82.4C471.672 83.1333 471.705 83.9 471.772 84.7C471.839 85.4333 471.972 86.1333 472.172 86.8C472.439 87.4667 472.772 88 473.172 88.4C473.572 88.8 474.139 89 474.872 89C475.539 89 476.305 88.8 477.172 88.4C478.039 88 478.872 87.4 479.672 86.6C480.472 85.7333 481.239 84.6333 481.972 83.3C482.705 81.9667 483.272 80.3667 483.672 78.5H497.972L495.072 92.6ZM522.12 95H501.82L510.92 52H531.42L522.12 95ZM534.02 38.9C534.02 40.4333 533.687 41.7667 533.02 42.9C532.42 44.0333 531.587 45 530.52 45.8C529.52 46.6 528.354 47.2 527.02 47.6C525.687 48 524.32 48.2 522.92 48.2C520.254 48.2 518.02 47.5667 516.22 46.3C514.42 45.0333 513.52 43.0333 513.52 40.3C513.52 38.8333 513.82 37.5333 514.42 36.4C515.02 35.2 515.82 34.2333 516.82 33.5C517.887 32.7 519.087 32.1 520.42 31.7C521.82 31.3 523.254 31.1 524.72 31.1C527.32 31.1 529.52 31.7333 531.32 33C533.12 34.2667 534.02 36.2333 534.02 38.9ZM558.917 58.4C560.317 57.0667 561.884 55.8333 563.617 54.7C565.151 53.7667 566.951 52.9 569.017 52.1C571.084 51.3 573.384 50.9 575.917 50.9C579.384 50.9 582.251 51.8 584.517 53.6C586.784 55.3333 587.917 57.7333 587.917 60.8C587.917 61.6667 587.817 62.7333 587.617 64C587.417 65.2 587.184 66.4667 586.917 67.8C586.651 69.1333 586.351 70.5 586.017 71.9C585.751 73.2333 585.517 74.4333 585.317 75.5L581.117 95H560.817L566.317 68.9C566.451 68.0333 566.617 67.1667 566.817 66.3C567.017 65.3667 567.117 64.5333 567.117 63.8C567.117 62.8 566.851 62 566.317 61.4C565.851 60.7333 565.117 60.4 564.117 60.4C562.917 60.4 561.751 60.8333 560.617 61.7C559.551 62.5667 558.717 63.3 558.117 63.9L551.517 95H531.117L540.217 52H556.517L558.317 58.4H558.917ZM631.511 52H647.711L639.511 90.9C638.911 93.9 637.911 96.6667 636.511 99.2C635.111 101.733 633.144 103.933 630.611 105.8C628.144 107.667 625.011 109.133 621.211 110.2C617.478 111.267 612.911 111.8 607.511 111.8C606.511 111.8 605.311 111.767 603.911 111.7C602.511 111.7 601.078 111.667 599.611 111.6C598.144 111.6 596.744 111.567 595.411 111.5C594.078 111.433 593.011 111.367 592.211 111.3L594.111 104.1C596.244 104.433 598.411 104.6 600.611 104.6C602.878 104.667 604.811 104.7 606.411 104.7C608.411 104.7 610.078 104.5 611.411 104.1C612.811 103.767 613.944 103.2 614.811 102.4C615.744 101.6 616.478 100.533 617.011 99.2C617.611 97.8667 618.078 96.2333 618.411 94.3L619.611 87.8H618.911C618.511 88.4 617.911 89.1333 617.111 90C616.378 90.8 615.411 91.6 614.211 92.4C613.011 93.1333 611.578 93.7667 609.911 94.3C608.311 94.7667 606.478 95 604.411 95C602.078 95 600.078 94.6667 598.411 94C596.811 93.2667 595.511 92.3 594.511 91.1C593.511 89.8333 592.778 88.3667 592.311 86.7C591.844 84.9667 591.611 83.1 591.611 81.1C591.611 80.2333 591.678 78.9 591.811 77.1C591.944 75.3 592.244 73.2667 592.711 71C593.244 68.7333 593.978 66.4333 594.911 64.1C595.911 61.7 597.211 59.5333 598.811 57.6C600.478 55.6667 602.511 54.0667 604.911 52.8C607.378 51.5333 610.344 50.9 613.811 50.9C614.878 50.9 616.044 51 617.311 51.2C618.578 51.4 619.811 51.7667 621.011 52.3C622.211 52.8333 623.278 53.6 624.211 54.6C625.144 55.6 625.878 56.9 626.411 58.5H627.011L631.511 52ZM620.311 60.7C618.711 60.7 617.378 61.5667 616.311 63.3C615.244 64.9667 614.378 66.9333 613.711 69.2C613.044 71.4667 612.544 73.7333 612.211 76C611.944 78.2 611.811 79.8333 611.811 80.9C611.811 82.2333 612.011 83.3667 612.411 84.3C612.878 85.1667 613.678 85.6 614.811 85.6C615.478 85.6 616.111 85.4333 616.711 85.1C617.378 84.7667 617.978 84.4 618.511 84C619.111 83.5333 619.611 83.0667 620.011 82.6C620.478 82.1333 620.811 81.7667 621.011 81.5L624.711 64C624.178 63.2667 623.544 62.5333 622.811 61.8C622.144 61.0667 621.311 60.7 620.311 60.7Z" fill="url(#paint2_linear_11_2)" fill-opacity="0.5"/>
<path d="M50.4766 105.5H163.831V110.7H50.4766V105.5ZM212.872 105.5H587.167V110.7H212.872V105.5ZM636.208 105.5H648.511V110.7H636.208V105.5Z" fill="url(#paint3_linear_11_2)" fill-opacity="0.5"/>
<path d="M111.777 49C111.777 50.9333 111.477 52.6667 110.877 54.2C110.343 55.7333 109.577 57.1 108.577 58.3C107.577 59.5 106.41 60.5667 105.077 61.5C103.743 62.4333 102.277 63.3 100.677 64.1C101.41 64.3667 102.277 64.8 103.277 65.4C104.277 65.9333 105.243 66.7 106.177 67.7C107.11 68.7 107.877 70 108.477 71.6C109.143 73.1333 109.477 75.0333 109.477 77.3C109.477 80.3 108.843 83.0667 107.577 85.6C106.31 88.1333 104.41 90.3333 101.877 92.2C99.4099 94 96.3432 95.4333 92.6766 96.5C89.0766 97.5 84.9099 98 80.1766 98H50.4766L63.9766 34.5H90.2766C92.8766 34.5 95.4432 34.7 97.9766 35.1C100.577 35.4333 102.877 36.1333 104.877 37.2C106.943 38.2667 108.61 39.7667 109.877 41.7C111.143 43.5667 111.777 46 111.777 49ZM84.5766 61.1C86.0432 61.1 87.2766 60.6667 88.2766 59.8C89.3432 58.9333 90.2099 57.8667 90.8766 56.6C91.5432 55.2667 92.0432 53.8667 92.3766 52.4C92.7099 50.8667 92.8766 49.5 92.8766 48.3C92.8766 46.3667 92.4099 44.7333 91.4766 43.4C90.6099 42 89.2099 41.3 87.2766 41.3H84.2766L79.9766 61.1H84.5766ZM77.3766 91.7C79.3766 91.7 81.0432 91.1333 82.3766 90C83.7099 88.8667 84.8099 87.4667 85.6766 85.8C86.5432 84.1333 87.1432 82.4 87.4766 80.6C87.8766 78.7333 88.0766 77.1 88.0766 75.7C88.0766 73.3667 87.5766 71.5333 86.5766 70.2C85.6432 68.8 84.1099 68.1 81.9766 68.1H78.2766L73.3766 91.7H77.3766ZM134.484 77.9C134.217 79.3667 134.017 80.7667 133.884 82.1C133.817 83.4333 133.784 84.6333 133.784 85.7C133.784 86.3 133.817 86.9667 133.884 87.7C133.95 88.4333 134.084 89.1333 134.284 89.8C134.55 90.4 134.884 90.9333 135.284 91.4C135.75 91.8 136.384 92 137.184 92C137.784 92 138.45 91.8 139.184 91.4C139.984 91 140.75 90.4333 141.484 89.7C142.284 88.9667 143.017 88.0667 143.684 87C144.417 85.9333 144.984 84.7333 145.384 83.4H161.784L159.184 94.1C157.85 94.9667 156.317 95.7 154.584 96.3C152.85 96.9 151.017 97.4 149.084 97.8C147.15 98.1333 145.184 98.3667 143.184 98.5C141.184 98.7 139.284 98.8 137.484 98.8C134.15 98.8 131.05 98.5 128.184 97.9C125.317 97.3 122.817 96.2667 120.684 94.8C118.55 93.3333 116.85 91.4 115.584 89C114.384 86.5333 113.784 83.5 113.784 79.9C113.784 76.6333 114.284 73.4333 115.284 70.3C116.35 67.1667 118.084 64.4 120.484 62C122.95 59.5333 126.217 57.5667 130.284 56.1C134.417 54.6333 139.55 53.9 145.684 53.9C152.35 53.9 157.35 54.9333 160.684 57C164.084 59.0667 165.784 62.3 165.784 66.7C165.784 68.5 165.517 70.4667 164.984 72.6C164.45 74.6667 163.65 76.4333 162.584 77.9H134.484ZM147.784 66C147.784 63.9333 147.45 62.5333 146.784 61.8C146.117 61.0667 145.317 60.7 144.384 60.7C143.317 60.7 142.317 61.0667 141.384 61.8C140.517 62.4667 139.717 63.4 138.984 64.6C138.25 65.7333 137.584 67.0667 136.984 68.6C136.384 70.0667 135.884 71.6333 135.484 73.3H146.884C147.017 72.5 147.15 71.6667 147.284 70.8C147.417 70.0667 147.517 69.2667 147.584 68.4C147.717 67.5333 147.784 66.7333 147.784 66ZM208.171 55H224.371L216.171 93.9C215.571 96.9 214.571 99.6667 213.171 102.2C211.771 104.733 209.804 106.933 207.271 108.8C204.804 110.667 201.671 112.133 197.871 113.2C194.138 114.267 189.571 114.8 184.171 114.8C183.171 114.8 181.971 114.767 180.571 114.7C179.171 114.7 177.738 114.667 176.271 114.6C174.804 114.6 173.404 114.567 172.071 114.5C170.738 114.433 169.671 114.367 168.871 114.3L170.771 107.1C172.904 107.433 175.071 107.6 177.271 107.6C179.538 107.667 181.471 107.7 183.071 107.7C185.071 107.7 186.738 107.5 188.071 107.1C189.471 106.767 190.604 106.2 191.471 105.4C192.404 104.6 193.138 103.533 193.671 102.2C194.271 100.867 194.738 99.2333 195.071 97.3L196.271 90.8H195.571C195.171 91.4 194.571 92.1333 193.771 93C193.038 93.8 192.071 94.6 190.871 95.4C189.671 96.1333 188.238 96.7667 186.571 97.3C184.971 97.7667 183.138 98 181.071 98C178.738 98 176.738 97.6667 175.071 97C173.471 96.2667 172.171 95.3 171.171 94.1C170.171 92.8333 169.438 91.3667 168.971 89.7C168.504 87.9667 168.271 86.1 168.271 84.1C168.271 83.2333 168.338 81.9 168.471 80.1C168.604 78.3 168.904 76.2667 169.371 74C169.904 71.7333 170.638 69.4333 171.571 67.1C172.571 64.7 173.871 62.5333 175.471 60.6C177.138 58.6667 179.171 57.0667 181.571 55.8C184.038 54.5333 187.004 53.9 190.471 53.9C191.538 53.9 192.704 54 193.971 54.2C195.238 54.4 196.471 54.7667 197.671 55.3C198.871 55.8333 199.938 56.6 200.871 57.6C201.804 58.6 202.538 59.9 203.071 61.5H203.671L208.171 55ZM196.971 63.7C195.371 63.7 194.038 64.5667 192.971 66.3C191.904 67.9667 191.038 69.9333 190.371 72.2C189.704 74.4667 189.204 76.7333 188.871 79C188.604 81.2 188.471 82.8333 188.471 83.9C188.471 85.2333 188.671 86.3667 189.071 87.3C189.538 88.1667 190.338 88.6 191.471 88.6C192.138 88.6 192.771 88.4333 193.371 88.1C194.038 87.7667 194.638 87.4 195.171 87C195.771 86.5333 196.271 86.0667 196.671 85.6C197.138 85.1333 197.471 84.7667 197.671 84.5L201.371 67C200.838 66.2667 200.204 65.5333 199.471 64.8C198.804 64.0667 197.971 63.7 196.971 63.7ZM244.484 98H224.184L233.284 55H253.784L244.484 98ZM256.384 41.9C256.384 43.4333 256.05 44.7667 255.384 45.9C254.784 47.0333 253.95 48 252.884 48.8C251.884 49.6 250.717 50.2 249.384 50.6C248.05 51 246.684 51.2 245.284 51.2C242.617 51.2 240.384 50.5667 238.584 49.3C236.784 48.0333 235.884 46.0333 235.884 43.3C235.884 41.8333 236.184 40.5333 236.784 39.4C237.384 38.2 238.184 37.2333 239.184 36.5C240.25 35.7 241.45 35.1 242.784 34.7C244.184 34.3 245.617 34.1 247.084 34.1C249.684 34.1 251.884 34.7333 253.684 36C255.484 37.2667 256.384 39.2333 256.384 41.9ZM281.28 61.4C282.68 60.0667 284.247 58.8333 285.98 57.7C287.514 56.7667 289.314 55.9 291.38 55.1C293.447 54.3 295.747 53.9 298.28 53.9C301.747 53.9 304.614 54.8 306.88 56.6C309.147 58.3333 310.28 60.7333 310.28 63.8C310.28 64.6667 310.18 65.7333 309.98 67C309.78 68.2 309.547 69.4667 309.28 70.8C309.014 72.1333 308.714 73.5 308.38 74.9C308.114 76.2333 307.88 77.4333 307.68 78.5L303.48 98H283.18L288.68 71.9C288.814 71.0333 288.98 70.1667 289.18 69.3C289.38 68.3667 289.48 67.5333 289.48 66.8C289.48 65.8 289.214 65 288.68 64.4C288.214 63.7333 287.48 63.4 286.48 63.4C285.28 63.4 284.114 63.8333 282.98 64.7C281.914 65.5667 281.08 66.3 280.48 66.9L273.88 98H253.48L262.58 55H278.88L280.68 61.4H281.28ZM394.515 49.6C394.515 53.5333 393.415 57.1667 391.215 60.5C389.015 63.8333 385.382 66.3667 380.315 68.1L391.915 98H369.615L360.815 70.3H359.715L353.815 98H332.215L345.715 34.5H372.015C375.082 34.5 377.982 34.7 380.715 35.1C383.448 35.4333 385.815 36.1667 387.815 37.3C389.882 38.3667 391.515 39.9 392.715 41.9C393.915 43.8333 394.515 46.4 394.515 49.6ZM365.715 63.9C367.448 63.9 368.915 63.3333 370.115 62.2C371.382 61 372.382 59.5667 373.115 57.9C373.915 56.2333 374.482 54.4667 374.815 52.6C375.148 50.6667 375.315 49 375.315 47.6C375.315 45.8667 375.015 44.4 374.415 43.2C373.815 41.9333 372.515 41.3 370.515 41.3H366.015L361.015 63.9H365.715ZM402.696 58.7C406.096 57.0333 409.563 55.8333 413.096 55.1C416.696 54.3 420.696 53.9 425.096 53.9C429.363 53.9 432.896 54.2333 435.696 54.9C438.496 55.5667 440.729 56.5333 442.396 57.8C444.063 59.0667 445.229 60.5667 445.896 62.3C446.563 64.0333 446.896 66 446.896 68.2C446.896 69.4667 446.796 70.8333 446.596 72.3C446.463 73.7667 446.296 75 446.096 76L441.396 98H425.296L423.496 91.6H422.896C420.763 93.9333 418.263 95.7333 415.396 97C412.596 98.2 409.796 98.8 406.996 98.8C405.396 98.8 403.829 98.5667 402.296 98.1C400.763 97.6333 399.396 96.9333 398.196 96C396.996 95 396.029 93.7667 395.296 92.3C394.563 90.7667 394.196 88.9333 394.196 86.8C394.196 83.3333 395.129 80.6 396.996 78.6C398.929 76.5333 401.429 75 404.496 74C407.629 72.9333 411.129 72.2667 414.996 72C418.929 71.7333 422.863 71.6 426.796 71.6C426.929 70.9333 427.096 70 427.296 68.8C427.496 67.5333 427.596 66.4333 427.596 65.5C427.596 64.3 427.263 63.2 426.596 62.2C425.996 61.1333 424.696 60.6 422.696 60.6C420.363 60.6 418.629 61.3 417.496 62.7C416.429 64.0333 415.729 65.6667 415.396 67.6H400.796L402.696 58.7ZM425.696 76.3H423.896C421.963 76.3 420.296 76.5667 418.896 77.1C417.563 77.5667 416.463 78.2 415.596 79C414.796 79.8 414.196 80.7 413.796 81.7C413.396 82.7 413.196 83.7 413.196 84.7C413.196 86.3 413.596 87.5 414.396 88.3C415.263 89.1 416.263 89.5 417.396 89.5C418.796 89.5 420.163 89 421.496 88C422.896 87 423.763 85.6667 424.096 84L425.696 76.3ZM495.072 95.6C492.272 96.7333 489.305 97.5333 486.172 98C483.105 98.5333 479.605 98.8 475.672 98.8C472.205 98.8 469.005 98.4667 466.072 97.8C463.205 97.0667 460.705 95.9333 458.572 94.4C456.439 92.8667 454.772 90.9 453.572 88.5C452.372 86.0333 451.772 83.0667 451.772 79.6C451.772 76 452.372 72.6667 453.572 69.6C454.839 66.4667 456.705 63.7333 459.172 61.4C461.705 59.0667 464.905 57.2333 468.772 55.9C472.639 54.5667 477.239 53.9 482.572 53.9C486.905 53.9 490.672 54.2667 493.872 55C497.072 55.6667 499.705 57.2333 501.772 59.7L498.972 72.5H485.372C485.439 71.3667 485.505 70.3667 485.572 69.5C485.639 68.6333 485.672 67.6667 485.672 66.6C485.672 64.4667 485.439 62.9667 484.972 62.1C484.505 61.1667 483.739 60.7 482.672 60.7C480.805 60.7 479.172 61.6333 477.772 63.5C476.372 65.3 475.205 67.5 474.272 70.1C473.405 72.6333 472.739 75.3333 472.272 78.2C471.872 81 471.672 83.4 471.672 85.4C471.672 86.1333 471.705 86.9 471.772 87.7C471.839 88.4333 471.972 89.1333 472.172 89.8C472.439 90.4667 472.772 91 473.172 91.4C473.572 91.8 474.139 92 474.872 92C475.539 92 476.305 91.8 477.172 91.4C478.039 91 478.872 90.4 479.672 89.6C480.472 88.7333 481.239 87.6333 481.972 86.3C482.705 84.9667 483.272 83.3667 483.672 81.5H497.972L495.072 95.6ZM522.12 98H501.82L510.92 55H531.42L522.12 98ZM534.02 41.9C534.02 43.4333 533.687 44.7667 533.02 45.9C532.42 47.0333 531.587 48 530.52 48.8C529.52 49.6 528.354 50.2 527.02 50.6C525.687 51 524.32 51.2 522.92 51.2C520.254 51.2 518.02 50.5667 516.22 49.3C514.42 48.0333 513.52 46.0333 513.52 43.3C513.52 41.8333 513.82 40.5333 514.42 39.4C515.02 38.2 515.82 37.2333 516.82 36.5C517.887 35.7 519.087 35.1 520.42 34.7C521.82 34.3 523.254 34.1 524.72 34.1C527.32 34.1 529.52 34.7333 531.32 36C533.12 37.2667 534.02 39.2333 534.02 41.9ZM558.917 61.4C560.317 60.0667 561.884 58.8333 563.617 57.7C565.151 56.7667 566.951 55.9 569.017 55.1C571.084 54.3 573.384 53.9 575.917 53.9C579.384 53.9 582.251 54.8 584.517 56.6C586.784 58.3333 587.917 60.7333 587.917 63.8C587.917 64.6667 587.817 65.7333 587.617 67C587.417 68.2 587.184 69.4667 586.917 70.8C586.651 72.1333 586.351 73.5 586.017 74.9C585.751 76.2333 585.517 77.4333 585.317 78.5L581.117 98H560.817L566.317 71.9C566.451 71.0333 566.617 70.1667 566.817 69.3C567.017 68.3667 567.117 67.5333 567.117 66.8C567.117 65.8 566.851 65 566.317 64.4C565.851 63.7333 565.117 63.4 564.117 63.4C562.917 63.4 561.751 63.8333 560.617 64.7C559.551 65.5667 558.717 66.3 558.117 66.9L551.517 98H531.117L540.217 55H556.517L558.317 61.4H558.917ZM631.511 55H647.711L639.511 93.9C638.911 96.9 637.911 99.6667 636.511 102.2C635.111 104.733 633.144 106.933 630.611 108.8C628.144 110.667 625.011 112.133 621.211 113.2C617.478 114.267 612.911 114.8 607.511 114.8C606.511 114.8 605.311 114.767 603.911 114.7C602.511 114.7 601.078 114.667 599.611 114.6C598.144 114.6 596.744 114.567 595.411 114.5C594.078 114.433 593.011 114.367 592.211 114.3L594.111 107.1C596.244 107.433 598.411 107.6 600.611 107.6C602.878 107.667 604.811 107.7 606.411 107.7C608.411 107.7 610.078 107.5 611.411 107.1C612.811 106.767 613.944 106.2 614.811 105.4C615.744 104.6 616.478 103.533 617.011 102.2C617.611 100.867 618.078 99.2333 618.411 97.3L619.611 90.8H618.911C618.511 91.4 617.911 92.1333 617.111 93C616.378 93.8 615.411 94.6 614.211 95.4C613.011 96.1333 611.578 96.7667 609.911 97.3C608.311 97.7667 606.478 98 604.411 98C602.078 98 600.078 97.6667 598.411 97C596.811 96.2667 595.511 95.3 594.511 94.1C593.511 92.8333 592.778 91.3667 592.311 89.7C591.844 87.9667 591.611 86.1 591.611 84.1C591.611 83.2333 591.678 81.9 591.811 80.1C591.944 78.3 592.244 76.2667 592.711 74C593.244 71.7333 593.978 69.4333 594.911 67.1C595.911 64.7 597.211 62.5333 598.811 60.6C600.478 58.6667 602.511 57.0667 604.911 55.8C607.378 54.5333 610.344 53.9 613.811 53.9C614.878 53.9 616.044 54 617.311 54.2C618.578 54.4 619.811 54.7667 621.011 55.3C622.211 55.8333 623.278 56.6 624.211 57.6C625.144 58.6 625.878 59.9 626.411 61.5H627.011L631.511 55ZM620.311 63.7C618.711 63.7 617.378 64.5667 616.311 66.3C615.244 67.9667 614.378 69.9333 613.711 72.2C613.044 74.4667 612.544 76.7333 612.211 79C611.944 81.2 611.811 82.8333 611.811 83.9C611.811 85.2333 612.011 86.3667 612.411 87.3C612.878 88.1667 613.678 88.6 614.811 88.6C615.478 88.6 616.111 88.4333 616.711 88.1C617.378 87.7667 617.978 87.4 618.511 87C619.111 86.5333 619.611 86.0667 620.011 85.6C620.478 85.1333 620.811 84.7667 621.011 84.5L624.711 67C624.178 66.2667 623.544 65.5333 622.811 64.8C622.144 64.0667 621.311 63.7 620.311 63.7Z" fill="black" fill-opacity="0.5"/>
<path d="M50.4766 108.5H163.831V113.7H50.4766V108.5ZM212.872 108.5H587.167V113.7H212.872V108.5ZM636.208 108.5H648.511V113.7H636.208V108.5Z" fill="black" fill-opacity="0.5"/>
</g>
<defs>
<linearGradient id="paint0_linear_11_2" x1="349.5" y1="-6" x2="349.5" y2="120" gradientUnits="userSpaceOnUse">
<stop stop-color="#FF8C00"/>
<stop offset="1" stop-color="#A45A00"/>
</linearGradient>
<linearGradient id="paint1_linear_11_2" x1="349.5" y1="-6" x2="349.5" y2="120" gradientUnits="userSpaceOnUse">
<stop stop-color="#FF8C00"/>
<stop offset="1" stop-color="#A45A00"/>
</linearGradient>
<linearGradient id="paint2_linear_11_2" x1="349.5" y1="-3" x2="349.5" y2="124" gradientUnits="userSpaceOnUse">
<stop stop-color="#FF8C00"/>
<stop offset="1" stop-color="#A45A00"/>
</linearGradient>
<linearGradient id="paint3_linear_11_2" x1="349.5" y1="-3" x2="349.5" y2="124" gradientUnits="userSpaceOnUse">
<stop stop-color="#FF8C00"/>
<stop offset="1" stop-color="#A45A00"/>
</linearGradient>
<clipPath id="clip0_11_2">
<rect width="700" height="127" fill="white"/>
</clipPath>
</defs>
</svg>
