<svg width="700" height="700" viewBox="0 0 700 700" fill="none" xmlns="http://www.w3.org/2000/svg">
<g clip-path="url(#clip0_1_35)">
<rect width="700" height="700" fill="#FFBB00"/>
<path d="M646.695 411H37C25.9543 411 17 402.046 17 391V1.5C17 -9.54569 25.9543 -18.5 37 -18.5H660C671.046 -18.5 680 -9.54569 680 1.5V375.201C680 379.915 678.335 384.477 675.298 388.083L661.994 403.883C658.193 408.395 652.595 411 646.695 411Z" fill="url(#paint0_linear_1_35)"/>
<path d="M31 386L44.5 322.5H71.4C75.5333 322.5 79.1333 322.933 82.2 323.8C85.3333 324.6 87.9 325.967 89.9 327.9C91.9667 329.833 93.5 332.367 94.5 335.5C95.5667 338.633 96.1 342.467 96.1 347C96.1 351.867 95.4667 356.633 94.2 361.3C93 365.967 90.9667 370.133 88.1 373.8C85.2333 377.467 81.4667 380.433 76.8 382.7C72.2 384.9 66.5 386 59.7 386H31ZM58.4 379C60.6 379 62.5333 378.1 64.2 376.3C65.9333 374.433 67.4 372.1 68.6 369.3C69.8667 366.433 70.9 363.3 71.7 359.9C72.5667 356.433 73.2333 353.1 73.7 349.9C74.2333 346.7 74.6 343.833 74.8 341.3C75.0667 338.767 75.2 336.967 75.2 335.9C75.2 333.833 74.7667 332.233 73.9 331.1C73.1 329.9 71.6667 329.3 69.6 329.3H64.8L54.1 379H58.4ZM131.619 362L126.519 386H104.819L110.319 360.3L100.519 322.5H124.519L131.319 347.6L146.319 322.5H157.119L131.619 362ZM187.002 340.9C187.202 339.9 187.302 338.533 187.302 336.8C187.302 335.8 187.235 334.833 187.102 333.9C186.968 332.9 186.735 332.033 186.402 331.3C186.068 330.5 185.568 329.9 184.902 329.5C184.235 329.033 183.368 328.8 182.302 328.8C181.102 328.8 180.002 329.067 179.002 329.6C178.002 330.133 177.102 330.833 176.302 331.7C175.568 332.5 174.968 333.467 174.502 334.6C174.102 335.667 173.902 336.8 173.902 338C173.902 339.733 174.335 341.067 175.202 342C176.135 342.933 177.335 343.7 178.802 344.3C180.268 344.9 181.935 345.4 183.802 345.8C185.668 346.2 187.602 346.667 189.602 347.2C191.268 347.667 192.935 348.267 194.602 349C196.268 349.733 197.735 350.733 199.002 352C200.335 353.2 201.402 354.8 202.202 356.8C203.002 358.733 203.402 361.167 203.402 364.1C203.402 368.3 202.568 371.833 200.902 374.7C199.235 377.567 196.935 379.9 194.002 381.7C191.068 383.5 187.568 384.8 183.502 385.6C179.502 386.4 175.135 386.8 170.402 386.8C165.602 386.8 161.668 386.5 158.602 385.9C155.602 385.233 153.235 384.533 151.502 383.8C149.435 382.933 147.902 381.933 146.902 380.8L150.302 367.1H167.902C167.835 367.7 167.768 368.533 167.702 369.6C167.635 370.6 167.602 371.4 167.602 372C167.602 372.8 167.702 373.633 167.902 374.5C168.102 375.367 168.402 376.167 168.802 376.9C169.268 377.633 169.902 378.233 170.702 378.7C171.502 379.167 172.502 379.4 173.702 379.4C175.035 379.4 176.202 379.1 177.202 378.5C178.268 377.9 179.135 377.167 179.802 376.3C180.535 375.367 181.068 374.367 181.402 373.3C181.802 372.167 182.002 371.067 182.002 370C182.002 368.533 181.635 367.3 180.902 366.3C180.235 365.3 179.302 364.467 178.102 363.8C176.902 363.067 175.502 362.467 173.902 362C172.368 361.467 170.768 360.933 169.102 360.4C167.502 359.933 165.802 359.367 164.002 358.7C162.268 358.033 160.668 357.1 159.202 355.9C157.735 354.7 156.502 353.2 155.502 351.4C154.568 349.533 154.102 347.167 154.102 344.3C154.102 340.033 155.168 336.467 157.302 333.6C159.502 330.667 162.235 328.3 165.502 326.5C168.835 324.7 172.468 323.433 176.402 322.7C180.335 321.9 184.068 321.5 187.602 321.5C192.268 321.5 196.268 322.067 199.602 323.2C203.002 324.267 205.568 325.533 207.302 327L203.602 340.9H187.002ZM247.393 321.5C253.126 321.5 257.76 322.233 261.293 323.7C264.893 325.167 267.726 327.433 269.793 330.5C271.126 332.567 272.16 334.9 272.893 337.5C273.626 340.1 273.993 343.1 273.993 346.5C273.993 349.433 273.726 352.367 273.193 355.3C272.66 358.233 271.893 361.067 270.893 363.8C269.96 366.467 268.793 369 267.393 371.4C266.06 373.733 264.56 375.8 262.893 377.6C259.76 381 256.126 383.4 251.993 384.8C247.926 386.133 242.893 386.8 236.893 386.8C231.093 386.8 226.426 386.2 222.893 385C219.36 383.8 216.56 381.867 214.493 379.2C213.026 377.333 211.86 374.967 210.993 372.1C210.193 369.233 209.793 365.633 209.793 361.3C209.793 353.9 211.093 347.3 213.693 341.5C216.36 335.633 220.126 331 224.993 327.6C227.926 325.533 231.193 324 234.793 323C238.393 322 242.593 321.5 247.393 321.5ZM236.093 379.8C237.626 379.8 239.06 379.133 240.393 377.8C241.793 376.4 243.06 374.567 244.193 372.3C245.393 369.967 246.46 367.333 247.393 364.4C248.393 361.467 249.226 358.433 249.893 355.3C250.56 352.167 251.06 349.067 251.393 346C251.793 342.867 251.993 340.033 251.993 337.5C251.993 334.033 251.626 331.667 250.893 330.4C250.226 329.067 249.226 328.4 247.893 328.4C246.36 328.4 244.893 329.067 243.493 330.4C242.093 331.733 240.76 333.533 239.493 335.8C238.293 338 237.193 340.567 236.193 343.5C235.26 346.367 234.426 349.333 233.693 352.4C233.026 355.467 232.493 358.5 232.093 361.5C231.76 364.5 231.593 367.267 231.593 369.8C231.593 373.6 231.993 376.233 232.793 377.7C233.66 379.1 234.76 379.8 236.093 379.8ZM315.85 321.5C321.583 321.5 326.217 322.233 329.75 323.7C333.35 325.167 336.183 327.433 338.25 330.5C339.583 332.567 340.617 334.9 341.35 337.5C342.083 340.1 342.45 343.1 342.45 346.5C342.45 349.433 342.183 352.367 341.65 355.3C341.117 358.233 340.35 361.067 339.35 363.8C338.417 366.467 337.25 369 335.85 371.4C334.517 373.733 333.017 375.8 331.35 377.6C328.217 381 324.583 383.4 320.45 384.8C316.383 386.133 311.35 386.8 305.35 386.8C299.55 386.8 294.883 386.2 291.35 385C287.817 383.8 285.017 381.867 282.95 379.2C281.483 377.333 280.317 374.967 279.45 372.1C278.65 369.233 278.25 365.633 278.25 361.3C278.25 353.9 279.55 347.3 282.15 341.5C284.817 335.633 288.583 331 293.45 327.6C296.383 325.533 299.65 324 303.25 323C306.85 322 311.05 321.5 315.85 321.5ZM304.55 379.8C306.083 379.8 307.517 379.133 308.85 377.8C310.25 376.4 311.517 374.567 312.65 372.3C313.85 369.967 314.917 367.333 315.85 364.4C316.85 361.467 317.683 358.433 318.35 355.3C319.017 352.167 319.517 349.067 319.85 346C320.25 342.867 320.45 340.033 320.45 337.5C320.45 334.033 320.083 331.667 319.35 330.4C318.683 329.067 317.683 328.4 316.35 328.4C314.817 328.4 313.35 329.067 311.95 330.4C310.55 331.733 309.217 333.533 307.95 335.8C306.75 338 305.65 340.567 304.65 343.5C303.717 346.367 302.883 349.333 302.15 352.4C301.483 355.467 300.95 358.5 300.55 361.5C300.217 364.5 300.05 367.267 300.05 369.8C300.05 373.6 300.45 376.233 301.25 377.7C302.117 379.1 303.217 379.8 304.55 379.8ZM396.507 386H373.107L362.007 340.1L352.207 386H343.207L356.707 322.5H380.607L391.107 369L401.007 322.5H410.207L396.507 386ZM427.863 377.2C427.863 378.733 427.529 380.1 426.863 381.3C426.263 382.5 425.429 383.5 424.363 384.3C423.363 385.1 422.196 385.7 420.863 386.1C419.529 386.567 418.129 386.8 416.663 386.8C414.129 386.8 411.963 386.133 410.163 384.8C408.429 383.4 407.562 381.233 407.562 378.3C407.562 376.767 407.863 375.4 408.463 374.2C409.063 373 409.863 372 410.862 371.2C411.863 370.4 412.996 369.8 414.263 369.4C415.596 368.933 416.963 368.7 418.363 368.7C421.096 368.7 423.363 369.4 425.163 370.8C426.963 372.133 427.863 374.267 427.863 377.2ZM489.646 380.6C487.979 381.4 486.246 382.2 484.446 383C482.713 383.733 480.846 384.4 478.846 385C476.846 385.533 474.646 385.967 472.246 386.3C469.913 386.633 467.346 386.8 464.546 386.8C455.613 386.8 448.713 384.8 443.846 380.8C439.046 376.8 436.646 370.133 436.646 360.8C436.646 355.4 437.479 350.333 439.146 345.6C440.813 340.8 443.279 336.633 446.546 333.1C449.813 329.5 453.846 326.667 458.646 324.6C463.446 322.533 468.946 321.5 475.146 321.5C478.079 321.5 480.746 321.7 483.146 322.1C485.613 322.5 487.813 323.033 489.746 323.7C491.746 324.3 493.513 324.967 495.046 325.7C496.646 326.433 498.079 327.133 499.346 327.8L495.746 346.4H477.746C477.813 345.733 477.879 344.867 477.946 343.8C478.079 342.733 478.179 341.667 478.246 340.6C478.313 339.467 478.379 338.367 478.446 337.3C478.513 336.233 478.546 335.333 478.546 334.6C478.546 334.067 478.513 333.467 478.446 332.8C478.379 332.067 478.213 331.367 477.946 330.7C477.679 330.033 477.246 329.5 476.646 329.1C476.113 328.633 475.379 328.4 474.446 328.4C472.713 328.4 471.113 329.133 469.646 330.6C468.246 332 466.979 333.9 465.846 336.3C464.713 338.633 463.713 341.3 462.846 344.3C461.979 347.3 461.246 350.367 460.646 353.5C460.113 356.567 459.679 359.6 459.346 362.6C459.079 365.6 458.946 368.233 458.946 370.5C458.946 371.167 458.979 372 459.046 373C459.113 374 459.313 374.967 459.646 375.9C459.979 376.833 460.479 377.633 461.146 378.3C461.879 378.967 462.846 379.3 464.046 379.3C466.113 379.3 468.113 378.033 470.046 375.5C471.979 372.9 473.679 368.3 475.146 361.7H493.646L489.646 380.6ZM510.613 322.5H532.313L520.513 377.6H540.813L539.113 386H497.113L510.613 322.5ZM569.907 363.3C569.574 364.767 569.307 366.033 569.107 367.1C568.907 368.167 568.807 369.167 568.807 370.1C568.807 372.433 569.607 374.3 571.207 375.7C572.874 377.1 575.307 377.8 578.507 377.8C580.84 377.8 582.74 377.4 584.207 376.6C585.74 375.8 586.974 374.733 587.907 373.4C588.907 372.067 589.674 370.533 590.207 368.8C590.807 367.067 591.307 365.233 591.707 363.3L600.207 322.5H609.307L600.607 363.5C599.94 366.7 598.974 369.7 597.707 372.5C596.44 375.3 594.607 377.767 592.207 379.9C589.874 382.033 586.84 383.733 583.107 385C579.374 386.2 574.74 386.8 569.207 386.8C561.54 386.8 555.874 385.567 552.207 383.1C548.54 380.567 546.707 376.7 546.707 371.5C546.707 369.167 547.007 366.2 547.607 362.6C548.207 359 548.974 355.1 549.907 350.9L556.007 322.5H578.707L569.907 363.3ZM667.495 337C667.495 338.933 667.195 340.667 666.595 342.2C666.062 343.733 665.295 345.1 664.295 346.3C663.295 347.5 662.129 348.567 660.795 349.5C659.462 350.433 657.995 351.3 656.395 352.1C657.129 352.367 657.995 352.8 658.995 353.4C659.995 353.933 660.962 354.7 661.895 355.7C662.829 356.7 663.595 358 664.195 359.6C664.862 361.133 665.195 363.033 665.195 365.3C665.195 368.3 664.562 371.067 663.295 373.6C662.029 376.133 660.129 378.333 657.595 380.2C655.129 382 652.062 383.433 648.395 384.5C644.795 385.5 640.629 386 635.895 386H606.195L619.695 322.5H645.995C648.595 322.5 651.162 322.7 653.695 323.1C656.295 323.433 658.595 324.133 660.595 325.2C662.662 326.267 664.329 327.767 665.595 329.7C666.862 331.567 667.495 334 667.495 337ZM640.295 349.1C641.762 349.1 642.995 348.667 643.995 347.8C645.062 346.933 645.929 345.867 646.595 344.6C647.262 343.267 647.762 341.867 648.095 340.4C648.429 338.867 648.595 337.5 648.595 336.3C648.595 334.367 648.129 332.733 647.195 331.4C646.329 330 644.929 329.3 642.995 329.3H639.995L635.695 349.1H640.295ZM633.095 379.7C635.095 379.7 636.762 379.133 638.095 378C639.429 376.867 640.529 375.467 641.395 373.8C642.262 372.133 642.862 370.4 643.195 368.6C643.595 366.733 643.795 365.1 643.795 363.7C643.795 361.367 643.295 359.533 642.295 358.2C641.362 356.8 639.829 356.1 637.695 356.1H633.995L629.095 379.7H633.095Z" fill="black"/>
<path d="M31 389L44.5 325.5H71.4C75.5333 325.5 79.1333 325.933 82.2 326.8C85.3333 327.6 87.9 328.967 89.9 330.9C91.9667 332.833 93.5 335.367 94.5 338.5C95.5667 341.633 96.1 345.467 96.1 350C96.1 354.867 95.4667 359.633 94.2 364.3C93 368.967 90.9667 373.133 88.1 376.8C85.2333 380.467 81.4667 383.433 76.8 385.7C72.2 387.9 66.5 389 59.7 389H31ZM58.4 382C60.6 382 62.5333 381.1 64.2 379.3C65.9333 377.433 67.4 375.1 68.6 372.3C69.8667 369.433 70.9 366.3 71.7 362.9C72.5667 359.433 73.2333 356.1 73.7 352.9C74.2333 349.7 74.6 346.833 74.8 344.3C75.0667 341.767 75.2 339.967 75.2 338.9C75.2 336.833 74.7667 335.233 73.9 334.1C73.1 332.9 71.6667 332.3 69.6 332.3H64.8L54.1 382H58.4ZM131.619 365L126.519 389H104.819L110.319 363.3L100.519 325.5H124.519L131.319 350.6L146.319 325.5H157.119L131.619 365ZM187.002 343.9C187.202 342.9 187.302 341.533 187.302 339.8C187.302 338.8 187.235 337.833 187.102 336.9C186.968 335.9 186.735 335.033 186.402 334.3C186.068 333.5 185.568 332.9 184.902 332.5C184.235 332.033 183.368 331.8 182.302 331.8C181.102 331.8 180.002 332.067 179.002 332.6C178.002 333.133 177.102 333.833 176.302 334.7C175.568 335.5 174.968 336.467 174.502 337.6C174.102 338.667 173.902 339.8 173.902 341C173.902 342.733 174.335 344.067 175.202 345C176.135 345.933 177.335 346.7 178.802 347.3C180.268 347.9 181.935 348.4 183.802 348.8C185.668 349.2 187.602 349.667 189.602 350.2C191.268 350.667 192.935 351.267 194.602 352C196.268 352.733 197.735 353.733 199.002 355C200.335 356.2 201.402 357.8 202.202 359.8C203.002 361.733 203.402 364.167 203.402 367.1C203.402 371.3 202.568 374.833 200.902 377.7C199.235 380.567 196.935 382.9 194.002 384.7C191.068 386.5 187.568 387.8 183.502 388.6C179.502 389.4 175.135 389.8 170.402 389.8C165.602 389.8 161.668 389.5 158.602 388.9C155.602 388.233 153.235 387.533 151.502 386.8C149.435 385.933 147.902 384.933 146.902 383.8L150.302 370.1H167.902C167.835 370.7 167.768 371.533 167.702 372.6C167.635 373.6 167.602 374.4 167.602 375C167.602 375.8 167.702 376.633 167.902 377.5C168.102 378.367 168.402 379.167 168.802 379.9C169.268 380.633 169.902 381.233 170.702 381.7C171.502 382.167 172.502 382.4 173.702 382.4C175.035 382.4 176.202 382.1 177.202 381.5C178.268 380.9 179.135 380.167 179.802 379.3C180.535 378.367 181.068 377.367 181.402 376.3C181.802 375.167 182.002 374.067 182.002 373C182.002 371.533 181.635 370.3 180.902 369.3C180.235 368.3 179.302 367.467 178.102 366.8C176.902 366.067 175.502 365.467 173.902 365C172.368 364.467 170.768 363.933 169.102 363.4C167.502 362.933 165.802 362.367 164.002 361.7C162.268 361.033 160.668 360.1 159.202 358.9C157.735 357.7 156.502 356.2 155.502 354.4C154.568 352.533 154.102 350.167 154.102 347.3C154.102 343.033 155.168 339.467 157.302 336.6C159.502 333.667 162.235 331.3 165.502 329.5C168.835 327.7 172.468 326.433 176.402 325.7C180.335 324.9 184.068 324.5 187.602 324.5C192.268 324.5 196.268 325.067 199.602 326.2C203.002 327.267 205.568 328.533 207.302 330L203.602 343.9H187.002ZM247.393 324.5C253.126 324.5 257.76 325.233 261.293 326.7C264.893 328.167 267.726 330.433 269.793 333.5C271.126 335.567 272.16 337.9 272.893 340.5C273.626 343.1 273.993 346.1 273.993 349.5C273.993 352.433 273.726 355.367 273.193 358.3C272.66 361.233 271.893 364.067 270.893 366.8C269.96 369.467 268.793 372 267.393 374.4C266.06 376.733 264.56 378.8 262.893 380.6C259.76 384 256.126 386.4 251.993 387.8C247.926 389.133 242.893 389.8 236.893 389.8C231.093 389.8 226.426 389.2 222.893 388C219.36 386.8 216.56 384.867 214.493 382.2C213.026 380.333 211.86 377.967 210.993 375.1C210.193 372.233 209.793 368.633 209.793 364.3C209.793 356.9 211.093 350.3 213.693 344.5C216.36 338.633 220.126 334 224.993 330.6C227.926 328.533 231.193 327 234.793 326C238.393 325 242.593 324.5 247.393 324.5ZM236.093 382.8C237.626 382.8 239.06 382.133 240.393 380.8C241.793 379.4 243.06 377.567 244.193 375.3C245.393 372.967 246.46 370.333 247.393 367.4C248.393 364.467 249.226 361.433 249.893 358.3C250.56 355.167 251.06 352.067 251.393 349C251.793 345.867 251.993 343.033 251.993 340.5C251.993 337.033 251.626 334.667 250.893 333.4C250.226 332.067 249.226 331.4 247.893 331.4C246.36 331.4 244.893 332.067 243.493 333.4C242.093 334.733 240.76 336.533 239.493 338.8C238.293 341 237.193 343.567 236.193 346.5C235.26 349.367 234.426 352.333 233.693 355.4C233.026 358.467 232.493 361.5 232.093 364.5C231.76 367.5 231.593 370.267 231.593 372.8C231.593 376.6 231.993 379.233 232.793 380.7C233.66 382.1 234.76 382.8 236.093 382.8ZM315.85 324.5C321.583 324.5 326.217 325.233 329.75 326.7C333.35 328.167 336.183 330.433 338.25 333.5C339.583 335.567 340.617 337.9 341.35 340.5C342.083 343.1 342.45 346.1 342.45 349.5C342.45 352.433 342.183 355.367 341.65 358.3C341.117 361.233 340.35 364.067 339.35 366.8C338.417 369.467 337.25 372 335.85 374.4C334.517 376.733 333.017 378.8 331.35 380.6C328.217 384 324.583 386.4 320.45 387.8C316.383 389.133 311.35 389.8 305.35 389.8C299.55 389.8 294.883 389.2 291.35 388C287.817 386.8 285.017 384.867 282.95 382.2C281.483 380.333 280.317 377.967 279.45 375.1C278.65 372.233 278.25 368.633 278.25 364.3C278.25 356.9 279.55 350.3 282.15 344.5C284.817 338.633 288.583 334 293.45 330.6C296.383 328.533 299.65 327 303.25 326C306.85 325 311.05 324.5 315.85 324.5ZM304.55 382.8C306.083 382.8 307.517 382.133 308.85 380.8C310.25 379.4 311.517 377.567 312.65 375.3C313.85 372.967 314.917 370.333 315.85 367.4C316.85 364.467 317.683 361.433 318.35 358.3C319.017 355.167 319.517 352.067 319.85 349C320.25 345.867 320.45 343.033 320.45 340.5C320.45 337.033 320.083 334.667 319.35 333.4C318.683 332.067 317.683 331.4 316.35 331.4C314.817 331.4 313.35 332.067 311.95 333.4C310.55 334.733 309.217 336.533 307.95 338.8C306.75 341 305.65 343.567 304.65 346.5C303.717 349.367 302.883 352.333 302.15 355.4C301.483 358.467 300.95 361.5 300.55 364.5C300.217 367.5 300.05 370.267 300.05 372.8C300.05 376.6 300.45 379.233 301.25 380.7C302.117 382.1 303.217 382.8 304.55 382.8ZM396.507 389H373.107L362.007 343.1L352.207 389H343.207L356.707 325.5H380.607L391.107 372L401.007 325.5H410.207L396.507 389ZM427.863 380.2C427.863 381.733 427.529 383.1 426.863 384.3C426.263 385.5 425.429 386.5 424.363 387.3C423.363 388.1 422.196 388.7 420.863 389.1C419.529 389.567 418.129 389.8 416.663 389.8C414.129 389.8 411.963 389.133 410.163 387.8C408.429 386.4 407.562 384.233 407.562 381.3C407.562 379.767 407.863 378.4 408.463 377.2C409.063 376 409.863 375 410.862 374.2C411.863 373.4 412.996 372.8 414.263 372.4C415.596 371.933 416.963 371.7 418.363 371.7C421.096 371.7 423.363 372.4 425.163 373.8C426.963 375.133 427.863 377.267 427.863 380.2ZM489.646 383.6C487.979 384.4 486.246 385.2 484.446 386C482.713 386.733 480.846 387.4 478.846 388C476.846 388.533 474.646 388.967 472.246 389.3C469.913 389.633 467.346 389.8 464.546 389.8C455.613 389.8 448.713 387.8 443.846 383.8C439.046 379.8 436.646 373.133 436.646 363.8C436.646 358.4 437.479 353.333 439.146 348.6C440.813 343.8 443.279 339.633 446.546 336.1C449.813 332.5 453.846 329.667 458.646 327.6C463.446 325.533 468.946 324.5 475.146 324.5C478.079 324.5 480.746 324.7 483.146 325.1C485.613 325.5 487.813 326.033 489.746 326.7C491.746 327.3 493.513 327.967 495.046 328.7C496.646 329.433 498.079 330.133 499.346 330.8L495.746 349.4H477.746C477.813 348.733 477.879 347.867 477.946 346.8C478.079 345.733 478.179 344.667 478.246 343.6C478.313 342.467 478.379 341.367 478.446 340.3C478.513 339.233 478.546 338.333 478.546 337.6C478.546 337.067 478.513 336.467 478.446 335.8C478.379 335.067 478.213 334.367 477.946 333.7C477.679 333.033 477.246 332.5 476.646 332.1C476.113 331.633 475.379 331.4 474.446 331.4C472.713 331.4 471.113 332.133 469.646 333.6C468.246 335 466.979 336.9 465.846 339.3C464.713 341.633 463.713 344.3 462.846 347.3C461.979 350.3 461.246 353.367 460.646 356.5C460.113 359.567 459.679 362.6 459.346 365.6C459.079 368.6 458.946 371.233 458.946 373.5C458.946 374.167 458.979 375 459.046 376C459.113 377 459.313 377.967 459.646 378.9C459.979 379.833 460.479 380.633 461.146 381.3C461.879 381.967 462.846 382.3 464.046 382.3C466.113 382.3 468.113 381.033 470.046 378.5C471.979 375.9 473.679 371.3 475.146 364.7H493.646L489.646 383.6ZM510.613 325.5H532.313L520.513 380.6H540.813L539.113 389H497.113L510.613 325.5ZM569.907 366.3C569.574 367.767 569.307 369.033 569.107 370.1C568.907 371.167 568.807 372.167 568.807 373.1C568.807 375.433 569.607 377.3 571.207 378.7C572.874 380.1 575.307 380.8 578.507 380.8C580.84 380.8 582.74 380.4 584.207 379.6C585.74 378.8 586.974 377.733 587.907 376.4C588.907 375.067 589.674 373.533 590.207 371.8C590.807 370.067 591.307 368.233 591.707 366.3L600.207 325.5H609.307L600.607 366.5C599.94 369.7 598.974 372.7 597.707 375.5C596.44 378.3 594.607 380.767 592.207 382.9C589.874 385.033 586.84 386.733 583.107 388C579.374 389.2 574.74 389.8 569.207 389.8C561.54 389.8 555.874 388.567 552.207 386.1C548.54 383.567 546.707 379.7 546.707 374.5C546.707 372.167 547.007 369.2 547.607 365.6C548.207 362 548.974 358.1 549.907 353.9L556.007 325.5H578.707L569.907 366.3ZM667.495 340C667.495 341.933 667.195 343.667 666.595 345.2C666.062 346.733 665.295 348.1 664.295 349.3C663.295 350.5 662.129 351.567 660.795 352.5C659.462 353.433 657.995 354.3 656.395 355.1C657.129 355.367 657.995 355.8 658.995 356.4C659.995 356.933 660.962 357.7 661.895 358.7C662.829 359.7 663.595 361 664.195 362.6C664.862 364.133 665.195 366.033 665.195 368.3C665.195 371.3 664.562 374.067 663.295 376.6C662.029 379.133 660.129 381.333 657.595 383.2C655.129 385 652.062 386.433 648.395 387.5C644.795 388.5 640.629 389 635.895 389H606.195L619.695 325.5H645.995C648.595 325.5 651.162 325.7 653.695 326.1C656.295 326.433 658.595 327.133 660.595 328.2C662.662 329.267 664.329 330.767 665.595 332.7C666.862 334.567 667.495 337 667.495 340ZM640.295 352.1C641.762 352.1 642.995 351.667 643.995 350.8C645.062 349.933 645.929 348.867 646.595 347.6C647.262 346.267 647.762 344.867 648.095 343.4C648.429 341.867 648.595 340.5 648.595 339.3C648.595 337.367 648.129 335.733 647.195 334.4C646.329 333 644.929 332.3 642.995 332.3H639.995L635.695 352.1H640.295ZM633.095 382.7C635.095 382.7 636.762 382.133 638.095 381C639.429 379.867 640.529 378.467 641.395 376.8C642.262 375.133 642.862 373.4 643.195 371.6C643.595 369.733 643.795 368.1 643.795 366.7C643.795 364.367 643.295 362.533 642.295 361.2C641.362 359.8 639.829 359.1 637.695 359.1H633.995L629.095 382.7H633.095Z" fill="#E5A800" fill-opacity="0.5"/>
<path d="M31 392L44.5 328.5H71.4C75.5333 328.5 79.1333 328.933 82.2 329.8C85.3333 330.6 87.9 331.967 89.9 333.9C91.9667 335.833 93.5 338.367 94.5 341.5C95.5667 344.633 96.1 348.467 96.1 353C96.1 357.867 95.4667 362.633 94.2 367.3C93 371.967 90.9667 376.133 88.1 379.8C85.2333 383.467 81.4667 386.433 76.8 388.7C72.2 390.9 66.5 392 59.7 392H31ZM58.4 385C60.6 385 62.5333 384.1 64.2 382.3C65.9333 380.433 67.4 378.1 68.6 375.3C69.8667 372.433 70.9 369.3 71.7 365.9C72.5667 362.433 73.2333 359.1 73.7 355.9C74.2333 352.7 74.6 349.833 74.8 347.3C75.0667 344.767 75.2 342.967 75.2 341.9C75.2 339.833 74.7667 338.233 73.9 337.1C73.1 335.9 71.6667 335.3 69.6 335.3H64.8L54.1 385H58.4ZM131.619 368L126.519 392H104.819L110.319 366.3L100.519 328.5H124.519L131.319 353.6L146.319 328.5H157.119L131.619 368ZM187.002 346.9C187.202 345.9 187.302 344.533 187.302 342.8C187.302 341.8 187.235 340.833 187.102 339.9C186.968 338.9 186.735 338.033 186.402 337.3C186.068 336.5 185.568 335.9 184.902 335.5C184.235 335.033 183.368 334.8 182.302 334.8C181.102 334.8 180.002 335.067 179.002 335.6C178.002 336.133 177.102 336.833 176.302 337.7C175.568 338.5 174.968 339.467 174.502 340.6C174.102 341.667 173.902 342.8 173.902 344C173.902 345.733 174.335 347.067 175.202 348C176.135 348.933 177.335 349.7 178.802 350.3C180.268 350.9 181.935 351.4 183.802 351.8C185.668 352.2 187.602 352.667 189.602 353.2C191.268 353.667 192.935 354.267 194.602 355C196.268 355.733 197.735 356.733 199.002 358C200.335 359.2 201.402 360.8 202.202 362.8C203.002 364.733 203.402 367.167 203.402 370.1C203.402 374.3 202.568 377.833 200.902 380.7C199.235 383.567 196.935 385.9 194.002 387.7C191.068 389.5 187.568 390.8 183.502 391.6C179.502 392.4 175.135 392.8 170.402 392.8C165.602 392.8 161.668 392.5 158.602 391.9C155.602 391.233 153.235 390.533 151.502 389.8C149.435 388.933 147.902 387.933 146.902 386.8L150.302 373.1H167.902C167.835 373.7 167.768 374.533 167.702 375.6C167.635 376.6 167.602 377.4 167.602 378C167.602 378.8 167.702 379.633 167.902 380.5C168.102 381.367 168.402 382.167 168.802 382.9C169.268 383.633 169.902 384.233 170.702 384.7C171.502 385.167 172.502 385.4 173.702 385.4C175.035 385.4 176.202 385.1 177.202 384.5C178.268 383.9 179.135 383.167 179.802 382.3C180.535 381.367 181.068 380.367 181.402 379.3C181.802 378.167 182.002 377.067 182.002 376C182.002 374.533 181.635 373.3 180.902 372.3C180.235 371.3 179.302 370.467 178.102 369.8C176.902 369.067 175.502 368.467 173.902 368C172.368 367.467 170.768 366.933 169.102 366.4C167.502 365.933 165.802 365.367 164.002 364.7C162.268 364.033 160.668 363.1 159.202 361.9C157.735 360.7 156.502 359.2 155.502 357.4C154.568 355.533 154.102 353.167 154.102 350.3C154.102 346.033 155.168 342.467 157.302 339.6C159.502 336.667 162.235 334.3 165.502 332.5C168.835 330.7 172.468 329.433 176.402 328.7C180.335 327.9 184.068 327.5 187.602 327.5C192.268 327.5 196.268 328.067 199.602 329.2C203.002 330.267 205.568 331.533 207.302 333L203.602 346.9H187.002ZM247.393 327.5C253.126 327.5 257.76 328.233 261.293 329.7C264.893 331.167 267.726 333.433 269.793 336.5C271.126 338.567 272.16 340.9 272.893 343.5C273.626 346.1 273.993 349.1 273.993 352.5C273.993 355.433 273.726 358.367 273.193 361.3C272.66 364.233 271.893 367.067 270.893 369.8C269.96 372.467 268.793 375 267.393 377.4C266.06 379.733 264.56 381.8 262.893 383.6C259.76 387 256.126 389.4 251.993 390.8C247.926 392.133 242.893 392.8 236.893 392.8C231.093 392.8 226.426 392.2 222.893 391C219.36 389.8 216.56 387.867 214.493 385.2C213.026 383.333 211.86 380.967 210.993 378.1C210.193 375.233 209.793 371.633 209.793 367.3C209.793 359.9 211.093 353.3 213.693 347.5C216.36 341.633 220.126 337 224.993 333.6C227.926 331.533 231.193 330 234.793 329C238.393 328 242.593 327.5 247.393 327.5ZM236.093 385.8C237.626 385.8 239.06 385.133 240.393 383.8C241.793 382.4 243.06 380.567 244.193 378.3C245.393 375.967 246.46 373.333 247.393 370.4C248.393 367.467 249.226 364.433 249.893 361.3C250.56 358.167 251.06 355.067 251.393 352C251.793 348.867 251.993 346.033 251.993 343.5C251.993 340.033 251.626 337.667 250.893 336.4C250.226 335.067 249.226 334.4 247.893 334.4C246.36 334.4 244.893 335.067 243.493 336.4C242.093 337.733 240.76 339.533 239.493 341.8C238.293 344 237.193 346.567 236.193 349.5C235.26 352.367 234.426 355.333 233.693 358.4C233.026 361.467 232.493 364.5 232.093 367.5C231.76 370.5 231.593 373.267 231.593 375.8C231.593 379.6 231.993 382.233 232.793 383.7C233.66 385.1 234.76 385.8 236.093 385.8ZM315.85 327.5C321.583 327.5 326.217 328.233 329.75 329.7C333.35 331.167 336.183 333.433 338.25 336.5C339.583 338.567 340.617 340.9 341.35 343.5C342.083 346.1 342.45 349.1 342.45 352.5C342.45 355.433 342.183 358.367 341.65 361.3C341.117 364.233 340.35 367.067 339.35 369.8C338.417 372.467 337.25 375 335.85 377.4C334.517 379.733 333.017 381.8 331.35 383.6C328.217 387 324.583 389.4 320.45 390.8C316.383 392.133 311.35 392.8 305.35 392.8C299.55 392.8 294.883 392.2 291.35 391C287.817 389.8 285.017 387.867 282.95 385.2C281.483 383.333 280.317 380.967 279.45 378.1C278.65 375.233 278.25 371.633 278.25 367.3C278.25 359.9 279.55 353.3 282.15 347.5C284.817 341.633 288.583 337 293.45 333.6C296.383 331.533 299.65 330 303.25 329C306.85 328 311.05 327.5 315.85 327.5ZM304.55 385.8C306.083 385.8 307.517 385.133 308.85 383.8C310.25 382.4 311.517 380.567 312.65 378.3C313.85 375.967 314.917 373.333 315.85 370.4C316.85 367.467 317.683 364.433 318.35 361.3C319.017 358.167 319.517 355.067 319.85 352C320.25 348.867 320.45 346.033 320.45 343.5C320.45 340.033 320.083 337.667 319.35 336.4C318.683 335.067 317.683 334.4 316.35 334.4C314.817 334.4 313.35 335.067 311.95 336.4C310.55 337.733 309.217 339.533 307.95 341.8C306.75 344 305.65 346.567 304.65 349.5C303.717 352.367 302.883 355.333 302.15 358.4C301.483 361.467 300.95 364.5 300.55 367.5C300.217 370.5 300.05 373.267 300.05 375.8C300.05 379.6 300.45 382.233 301.25 383.7C302.117 385.1 303.217 385.8 304.55 385.8ZM396.507 392H373.107L362.007 346.1L352.207 392H343.207L356.707 328.5H380.607L391.107 375L401.007 328.5H410.207L396.507 392ZM427.863 383.2C427.863 384.733 427.529 386.1 426.863 387.3C426.263 388.5 425.429 389.5 424.363 390.3C423.363 391.1 422.196 391.7 420.863 392.1C419.529 392.567 418.129 392.8 416.663 392.8C414.129 392.8 411.963 392.133 410.163 390.8C408.429 389.4 407.562 387.233 407.562 384.3C407.562 382.767 407.863 381.4 408.463 380.2C409.063 379 409.863 378 410.862 377.2C411.863 376.4 412.996 375.8 414.263 375.4C415.596 374.933 416.963 374.7 418.363 374.7C421.096 374.7 423.363 375.4 425.163 376.8C426.963 378.133 427.863 380.267 427.863 383.2ZM489.646 386.6C487.979 387.4 486.246 388.2 484.446 389C482.713 389.733 480.846 390.4 478.846 391C476.846 391.533 474.646 391.967 472.246 392.3C469.913 392.633 467.346 392.8 464.546 392.8C455.613 392.8 448.713 390.8 443.846 386.8C439.046 382.8 436.646 376.133 436.646 366.8C436.646 361.4 437.479 356.333 439.146 351.6C440.813 346.8 443.279 342.633 446.546 339.1C449.813 335.5 453.846 332.667 458.646 330.6C463.446 328.533 468.946 327.5 475.146 327.5C478.079 327.5 480.746 327.7 483.146 328.1C485.613 328.5 487.813 329.033 489.746 329.7C491.746 330.3 493.513 330.967 495.046 331.7C496.646 332.433 498.079 333.133 499.346 333.8L495.746 352.4H477.746C477.813 351.733 477.879 350.867 477.946 349.8C478.079 348.733 478.179 347.667 478.246 346.6C478.313 345.467 478.379 344.367 478.446 343.3C478.513 342.233 478.546 341.333 478.546 340.6C478.546 340.067 478.513 339.467 478.446 338.8C478.379 338.067 478.213 337.367 477.946 336.7C477.679 336.033 477.246 335.5 476.646 335.1C476.113 334.633 475.379 334.4 474.446 334.4C472.713 334.4 471.113 335.133 469.646 336.6C468.246 338 466.979 339.9 465.846 342.3C464.713 344.633 463.713 347.3 462.846 350.3C461.979 353.3 461.246 356.367 460.646 359.5C460.113 362.567 459.679 365.6 459.346 368.6C459.079 371.6 458.946 374.233 458.946 376.5C458.946 377.167 458.979 378 459.046 379C459.113 380 459.313 380.967 459.646 381.9C459.979 382.833 460.479 383.633 461.146 384.3C461.879 384.967 462.846 385.3 464.046 385.3C466.113 385.3 468.113 384.033 470.046 381.5C471.979 378.9 473.679 374.3 475.146 367.7H493.646L489.646 386.6ZM510.613 328.5H532.313L520.513 383.6H540.813L539.113 392H497.113L510.613 328.5ZM569.907 369.3C569.574 370.767 569.307 372.033 569.107 373.1C568.907 374.167 568.807 375.167 568.807 376.1C568.807 378.433 569.607 380.3 571.207 381.7C572.874 383.1 575.307 383.8 578.507 383.8C580.84 383.8 582.74 383.4 584.207 382.6C585.74 381.8 586.974 380.733 587.907 379.4C588.907 378.067 589.674 376.533 590.207 374.8C590.807 373.067 591.307 371.233 591.707 369.3L600.207 328.5H609.307L600.607 369.5C599.94 372.7 598.974 375.7 597.707 378.5C596.44 381.3 594.607 383.767 592.207 385.9C589.874 388.033 586.84 389.733 583.107 391C579.374 392.2 574.74 392.8 569.207 392.8C561.54 392.8 555.874 391.567 552.207 389.1C548.54 386.567 546.707 382.7 546.707 377.5C546.707 375.167 547.007 372.2 547.607 368.6C548.207 365 548.974 361.1 549.907 356.9L556.007 328.5H578.707L569.907 369.3ZM667.495 343C667.495 344.933 667.195 346.667 666.595 348.2C666.062 349.733 665.295 351.1 664.295 352.3C663.295 353.5 662.129 354.567 660.795 355.5C659.462 356.433 657.995 357.3 656.395 358.1C657.129 358.367 657.995 358.8 658.995 359.4C659.995 359.933 660.962 360.7 661.895 361.7C662.829 362.7 663.595 364 664.195 365.6C664.862 367.133 665.195 369.033 665.195 371.3C665.195 374.3 664.562 377.067 663.295 379.6C662.029 382.133 660.129 384.333 657.595 386.2C655.129 388 652.062 389.433 648.395 390.5C644.795 391.5 640.629 392 635.895 392H606.195L619.695 328.5H645.995C648.595 328.5 651.162 328.7 653.695 329.1C656.295 329.433 658.595 330.133 660.595 331.2C662.662 332.267 664.329 333.767 665.595 335.7C666.862 337.567 667.495 340 667.495 343ZM640.295 355.1C641.762 355.1 642.995 354.667 643.995 353.8C645.062 352.933 645.929 351.867 646.595 350.6C647.262 349.267 647.762 347.867 648.095 346.4C648.429 344.867 648.595 343.5 648.595 342.3C648.595 340.367 648.129 338.733 647.195 337.4C646.329 336 644.929 335.3 642.995 335.3H639.995L635.695 355.1H640.295ZM633.095 385.7C635.095 385.7 636.762 385.133 638.095 384C639.429 382.867 640.529 381.467 641.395 379.8C642.262 378.133 642.862 376.4 643.195 374.6C643.595 372.733 643.795 371.1 643.795 369.7C643.795 367.367 643.295 365.533 642.295 364.2C641.362 362.8 639.829 362.1 637.695 362.1H633.995L629.095 385.7H633.095Z" fill="#E5A800" fill-opacity="0.5"/>
<path d="M115.295 514.5H136.995L125.195 569.6H145.495L143.795 578H101.795L115.295 514.5ZM169.982 557.9C169.715 559.367 169.515 560.767 169.382 562.1C169.315 563.433 169.282 564.633 169.282 565.7C169.282 566.3 169.315 566.967 169.382 567.7C169.448 568.433 169.582 569.133 169.782 569.8C170.048 570.4 170.382 570.933 170.782 571.4C171.248 571.8 171.882 572 172.682 572C173.282 572 173.948 571.8 174.682 571.4C175.482 571 176.248 570.433 176.982 569.7C177.782 568.967 178.515 568.067 179.182 567C179.915 565.933 180.482 564.733 180.882 563.4H197.282L194.682 574.1C193.348 574.967 191.815 575.7 190.082 576.3C188.348 576.9 186.515 577.4 184.582 577.8C182.648 578.133 180.682 578.367 178.682 578.5C176.682 578.7 174.782 578.8 172.982 578.8C169.648 578.8 166.548 578.5 163.682 577.9C160.815 577.3 158.315 576.267 156.182 574.8C154.048 573.333 152.348 571.4 151.082 569C149.882 566.533 149.282 563.5 149.282 559.9C149.282 556.633 149.782 553.433 150.782 550.3C151.848 547.167 153.582 544.4 155.982 542C158.448 539.533 161.715 537.567 165.782 536.1C169.915 534.633 175.048 533.9 181.182 533.9C187.848 533.9 192.848 534.933 196.182 537C199.582 539.067 201.282 542.3 201.282 546.7C201.282 548.5 201.015 550.467 200.482 552.6C199.948 554.667 199.148 556.433 198.082 557.9H169.982ZM183.282 546C183.282 543.933 182.948 542.533 182.282 541.8C181.615 541.067 180.815 540.7 179.882 540.7C178.815 540.7 177.815 541.067 176.882 541.8C176.015 542.467 175.215 543.4 174.482 544.6C173.748 545.733 173.082 547.067 172.482 548.6C171.882 550.067 171.382 551.633 170.982 553.3H182.382C182.515 552.5 182.648 551.667 182.782 550.8C182.915 550.067 183.015 549.267 183.082 548.4C183.215 547.533 183.282 546.733 183.282 546ZM206.981 535C209.448 534.467 211.614 533.867 213.481 533.2C215.348 532.533 217.048 531.7 218.581 530.7C220.181 529.7 221.681 528.467 223.081 527C224.548 525.533 226.114 523.733 227.781 521.6H238.081L235.181 535H242.981L241.681 541.7H233.781L229.681 561.2C229.348 562.733 229.081 564.1 228.881 565.3C228.681 566.5 228.581 567.433 228.581 568.1C228.581 569.433 229.048 570.267 229.981 570.6C230.981 570.933 232.814 571.1 235.481 571.1L233.981 578C233.514 578.133 232.781 578.233 231.781 578.3C230.848 578.367 229.781 578.433 228.581 578.5C227.448 578.633 226.248 578.7 224.981 578.7C223.781 578.767 222.714 578.8 221.781 578.8C220.114 578.8 218.481 578.667 216.881 578.4C215.281 578.2 213.848 577.767 212.581 577.1C211.314 576.367 210.281 575.333 209.481 574C208.748 572.667 208.381 570.867 208.381 568.6C208.381 567.8 208.414 566.8 208.481 565.6C208.614 564.4 208.848 563.067 209.181 561.6L213.381 541.7H205.581L206.981 535ZM271.941 518C271.941 520.533 271.341 522.967 270.141 525.3C268.941 527.633 267.408 529.8 265.541 531.8C263.674 533.733 261.574 535.467 259.241 537C256.974 538.533 254.741 539.7 252.541 540.5L249.741 536.3C252.141 534.433 253.941 532.767 255.141 531.3C256.408 529.833 257.041 528.4 257.041 527C257.041 524.6 255.208 522.033 251.541 519.3C251.541 517.7 251.841 516.267 252.441 515C253.041 513.733 253.841 512.667 254.841 511.8C255.841 510.933 257.008 510.267 258.341 509.8C259.674 509.333 261.041 509.1 262.441 509.1C265.174 509.1 267.441 509.833 269.241 511.3C271.041 512.767 271.941 515 271.941 518ZM297.436 547.6C297.503 547.267 297.57 546.933 297.636 546.6C297.703 546.267 297.736 545.9 297.736 545.5C297.736 544.3 297.503 543.2 297.036 542.2C296.636 541.133 295.803 540.6 294.536 540.6C293.403 540.6 292.27 541.1 291.136 542.1C290.003 543.033 289.436 544.3 289.436 545.9C289.436 546.967 289.703 547.833 290.236 548.5C290.836 549.1 291.603 549.6 292.536 550C293.47 550.4 294.503 550.733 295.636 551C296.836 551.267 298.003 551.533 299.136 551.8C300.736 552.2 302.236 552.7 303.636 553.3C305.103 553.833 306.403 554.567 307.536 555.5C308.67 556.433 309.57 557.6 310.236 559C310.903 560.333 311.236 562 311.236 564C311.236 566.8 310.57 569.167 309.236 571.1C307.97 572.967 306.17 574.5 303.836 575.7C301.57 576.833 298.87 577.633 295.736 578.1C292.67 578.567 289.37 578.8 285.836 578.8C280.436 578.8 275.97 578.4 272.436 577.6C268.903 576.8 266.436 576.033 265.036 575.3L267.136 565.3H280.636C280.57 565.633 280.536 565.967 280.536 566.3C280.536 566.567 280.536 566.867 280.536 567.2C280.536 568.733 280.87 569.967 281.536 570.9C282.27 571.767 283.503 572.2 285.236 572.2C287.17 572.2 288.536 571.667 289.336 570.6C290.203 569.467 290.636 568.433 290.636 567.5C290.636 566.567 290.27 565.767 289.536 565.1C288.87 564.367 288.003 563.767 286.936 563.3C285.87 562.767 284.67 562.333 283.336 562C282.07 561.6 280.836 561.233 279.636 560.9C278.77 560.7 277.77 560.367 276.636 559.9C275.57 559.433 274.536 558.767 273.536 557.9C272.536 557.033 271.703 555.933 271.036 554.6C270.37 553.2 270.036 551.467 270.036 549.4C270.036 546.467 270.736 544.033 272.136 542.1C273.603 540.1 275.47 538.5 277.736 537.3C280.07 536.1 282.67 535.233 285.536 534.7C288.47 534.167 291.403 533.9 294.336 533.9C298.003 533.9 301.47 534.233 304.736 534.9C308.003 535.567 310.67 536.433 312.736 537.5L310.436 547.6H297.436ZM395.907 529C395.907 530.933 395.607 532.667 395.007 534.2C394.474 535.733 393.707 537.1 392.707 538.3C391.707 539.5 390.541 540.567 389.207 541.5C387.874 542.433 386.407 543.3 384.807 544.1C385.541 544.367 386.407 544.8 387.407 545.4C388.407 545.933 389.374 546.7 390.307 547.7C391.241 548.7 392.007 550 392.607 551.6C393.274 553.133 393.607 555.033 393.607 557.3C393.607 560.3 392.974 563.067 391.707 565.6C390.441 568.133 388.541 570.333 386.007 572.2C383.541 574 380.474 575.433 376.807 576.5C373.207 577.5 369.041 578 364.307 578H334.607L348.107 514.5H374.407C377.007 514.5 379.574 514.7 382.107 515.1C384.707 515.433 387.007 516.133 389.007 517.2C391.074 518.267 392.741 519.767 394.007 521.7C395.274 523.567 395.907 526 395.907 529ZM368.707 541.1C370.174 541.1 371.407 540.667 372.407 539.8C373.474 538.933 374.341 537.867 375.007 536.6C375.674 535.267 376.174 533.867 376.507 532.4C376.841 530.867 377.007 529.5 377.007 528.3C377.007 526.367 376.541 524.733 375.607 523.4C374.741 522 373.341 521.3 371.407 521.3H368.407L364.107 541.1H368.707ZM361.507 571.7C363.507 571.7 365.174 571.133 366.507 570C367.841 568.867 368.941 567.467 369.807 565.8C370.674 564.133 371.274 562.4 371.607 560.6C372.007 558.733 372.207 557.1 372.207 555.7C372.207 553.367 371.707 551.533 370.707 550.2C369.774 548.8 368.241 548.1 366.107 548.1H362.407L357.507 571.7H361.507ZM418.614 557.9C418.348 559.367 418.148 560.767 418.014 562.1C417.948 563.433 417.914 564.633 417.914 565.7C417.914 566.3 417.948 566.967 418.014 567.7C418.081 568.433 418.214 569.133 418.414 569.8C418.681 570.4 419.014 570.933 419.414 571.4C419.881 571.8 420.514 572 421.314 572C421.914 572 422.581 571.8 423.314 571.4C424.114 571 424.881 570.433 425.614 569.7C426.414 568.967 427.148 568.067 427.814 567C428.548 565.933 429.114 564.733 429.514 563.4H445.914L443.314 574.1C441.981 574.967 440.448 575.7 438.714 576.3C436.981 576.9 435.148 577.4 433.214 577.8C431.281 578.133 429.314 578.367 427.314 578.5C425.314 578.7 423.414 578.8 421.614 578.8C418.281 578.8 415.181 578.5 412.314 577.9C409.448 577.3 406.948 576.267 404.814 574.8C402.681 573.333 400.981 571.4 399.714 569C398.514 566.533 397.914 563.5 397.914 559.9C397.914 556.633 398.414 553.433 399.414 550.3C400.481 547.167 402.214 544.4 404.614 542C407.081 539.533 410.348 537.567 414.414 536.1C418.548 534.633 423.681 533.9 429.814 533.9C436.481 533.9 441.481 534.933 444.814 537C448.214 539.067 449.914 542.3 449.914 546.7C449.914 548.5 449.648 550.467 449.114 552.6C448.581 554.667 447.781 556.433 446.714 557.9H418.614ZM431.914 546C431.914 543.933 431.581 542.533 430.914 541.8C430.248 541.067 429.448 540.7 428.514 540.7C427.448 540.7 426.448 541.067 425.514 541.8C424.648 542.467 423.848 543.4 423.114 544.6C422.381 545.733 421.714 547.067 421.114 548.6C420.514 550.067 420.014 551.633 419.614 553.3H431.014C431.148 552.5 431.281 551.667 431.414 550.8C431.548 550.067 431.648 549.267 431.714 548.4C431.848 547.533 431.914 546.733 431.914 546ZM492.302 535H508.502L500.302 573.9C499.702 576.9 498.702 579.667 497.302 582.2C495.902 584.733 493.935 586.933 491.402 588.8C488.935 590.667 485.802 592.133 482.002 593.2C478.269 594.267 473.702 594.8 468.302 594.8C467.302 594.8 466.102 594.767 464.702 594.7C463.302 594.7 461.869 594.667 460.402 594.6C458.935 594.6 457.535 594.567 456.202 594.5C454.869 594.433 453.802 594.367 453.002 594.3L454.902 587.1C457.035 587.433 459.202 587.6 461.402 587.6C463.669 587.667 465.602 587.7 467.202 587.7C469.202 587.7 470.869 587.5 472.202 587.1C473.602 586.767 474.735 586.2 475.602 585.4C476.535 584.6 477.269 583.533 477.802 582.2C478.402 580.867 478.869 579.233 479.202 577.3L480.402 570.8H479.702C479.302 571.4 478.702 572.133 477.902 573C477.169 573.8 476.202 574.6 475.002 575.4C473.802 576.133 472.369 576.767 470.702 577.3C469.102 577.767 467.269 578 465.202 578C462.869 578 460.869 577.667 459.202 577C457.602 576.267 456.302 575.3 455.302 574.1C454.302 572.833 453.569 571.367 453.102 569.7C452.635 567.967 452.402 566.1 452.402 564.1C452.402 563.233 452.469 561.9 452.602 560.1C452.735 558.3 453.035 556.267 453.502 554C454.035 551.733 454.769 549.433 455.702 547.1C456.702 544.7 458.002 542.533 459.602 540.6C461.269 538.667 463.302 537.067 465.702 535.8C468.169 534.533 471.135 533.9 474.602 533.9C475.669 533.9 476.835 534 478.102 534.2C479.369 534.4 480.602 534.767 481.802 535.3C483.002 535.833 484.069 536.6 485.002 537.6C485.935 538.6 486.669 539.9 487.202 541.5H487.802L492.302 535ZM481.102 543.7C479.502 543.7 478.169 544.567 477.102 546.3C476.035 547.967 475.169 549.933 474.502 552.2C473.835 554.467 473.335 556.733 473.002 559C472.735 561.2 472.602 562.833 472.602 563.9C472.602 565.233 472.802 566.367 473.202 567.3C473.669 568.167 474.469 568.6 475.602 568.6C476.269 568.6 476.902 568.433 477.502 568.1C478.169 567.767 478.769 567.4 479.302 567C479.902 566.533 480.402 566.067 480.802 565.6C481.269 565.133 481.602 564.767 481.802 564.5L485.502 547C484.969 546.267 484.335 545.533 483.602 544.8C482.935 544.067 482.102 543.7 481.102 543.7ZM528.614 578H508.314L517.414 535H537.914L528.614 578ZM540.514 521.9C540.514 523.433 540.181 524.767 539.514 525.9C538.914 527.033 538.081 528 537.014 528.8C536.014 529.6 534.848 530.2 533.514 530.6C532.181 531 530.814 531.2 529.414 531.2C526.748 531.2 524.514 530.567 522.714 529.3C520.914 528.033 520.014 526.033 520.014 523.3C520.014 521.833 520.314 520.533 520.914 519.4C521.514 518.2 522.314 517.233 523.314 516.5C524.381 515.7 525.581 515.1 526.914 514.7C528.314 514.3 529.748 514.1 531.214 514.1C533.814 514.1 536.014 514.733 537.814 516C539.614 517.267 540.514 519.233 540.514 521.9ZM565.411 541.4C566.811 540.067 568.378 538.833 570.111 537.7C571.645 536.767 573.445 535.9 575.511 535.1C577.578 534.3 579.878 533.9 582.411 533.9C585.878 533.9 588.745 534.8 591.011 536.6C593.278 538.333 594.411 540.733 594.411 543.8C594.411 544.667 594.311 545.733 594.111 547C593.911 548.2 593.678 549.467 593.411 550.8C593.145 552.133 592.845 553.5 592.511 554.9C592.245 556.233 592.011 557.433 591.811 558.5L587.611 578H567.311L572.811 551.9C572.945 551.033 573.111 550.167 573.311 549.3C573.511 548.367 573.611 547.533 573.611 546.8C573.611 545.8 573.345 545 572.811 544.4C572.345 543.733 571.611 543.4 570.611 543.4C569.411 543.4 568.245 543.833 567.111 544.7C566.045 545.567 565.211 546.3 564.611 546.9L558.011 578H537.611L546.711 535H563.011L564.811 541.4H565.411Z" fill="url(#paint1_linear_1_35)" fill-opacity="0.5"/>
<path d="M115.295 517.5H136.995L125.195 572.6H145.495L143.795 581H101.795L115.295 517.5ZM169.982 560.9C169.715 562.367 169.515 563.767 169.382 565.1C169.315 566.433 169.282 567.633 169.282 568.7C169.282 569.3 169.315 569.967 169.382 570.7C169.448 571.433 169.582 572.133 169.782 572.8C170.048 573.4 170.382 573.933 170.782 574.4C171.248 574.8 171.882 575 172.682 575C173.282 575 173.948 574.8 174.682 574.4C175.482 574 176.248 573.433 176.982 572.7C177.782 571.967 178.515 571.067 179.182 570C179.915 568.933 180.482 567.733 180.882 566.4H197.282L194.682 577.1C193.348 577.967 191.815 578.7 190.082 579.3C188.348 579.9 186.515 580.4 184.582 580.8C182.648 581.133 180.682 581.367 178.682 581.5C176.682 581.7 174.782 581.8 172.982 581.8C169.648 581.8 166.548 581.5 163.682 580.9C160.815 580.3 158.315 579.267 156.182 577.8C154.048 576.333 152.348 574.4 151.082 572C149.882 569.533 149.282 566.5 149.282 562.9C149.282 559.633 149.782 556.433 150.782 553.3C151.848 550.167 153.582 547.4 155.982 545C158.448 542.533 161.715 540.567 165.782 539.1C169.915 537.633 175.048 536.9 181.182 536.9C187.848 536.9 192.848 537.933 196.182 540C199.582 542.067 201.282 545.3 201.282 549.7C201.282 551.5 201.015 553.467 200.482 555.6C199.948 557.667 199.148 559.433 198.082 560.9H169.982ZM183.282 549C183.282 546.933 182.948 545.533 182.282 544.8C181.615 544.067 180.815 543.7 179.882 543.7C178.815 543.7 177.815 544.067 176.882 544.8C176.015 545.467 175.215 546.4 174.482 547.6C173.748 548.733 173.082 550.067 172.482 551.6C171.882 553.067 171.382 554.633 170.982 556.3H182.382C182.515 555.5 182.648 554.667 182.782 553.8C182.915 553.067 183.015 552.267 183.082 551.4C183.215 550.533 183.282 549.733 183.282 549ZM206.981 538C209.448 537.467 211.614 536.867 213.481 536.2C215.348 535.533 217.048 534.7 218.581 533.7C220.181 532.7 221.681 531.467 223.081 530C224.548 528.533 226.114 526.733 227.781 524.6H238.081L235.181 538H242.981L241.681 544.7H233.781L229.681 564.2C229.348 565.733 229.081 567.1 228.881 568.3C228.681 569.5 228.581 570.433 228.581 571.1C228.581 572.433 229.048 573.267 229.981 573.6C230.981 573.933 232.814 574.1 235.481 574.1L233.981 581C233.514 581.133 232.781 581.233 231.781 581.3C230.848 581.367 229.781 581.433 228.581 581.5C227.448 581.633 226.248 581.7 224.981 581.7C223.781 581.767 222.714 581.8 221.781 581.8C220.114 581.8 218.481 581.667 216.881 581.4C215.281 581.2 213.848 580.767 212.581 580.1C211.314 579.367 210.281 578.333 209.481 577C208.748 575.667 208.381 573.867 208.381 571.6C208.381 570.8 208.414 569.8 208.481 568.6C208.614 567.4 208.848 566.067 209.181 564.6L213.381 544.7H205.581L206.981 538ZM271.941 521C271.941 523.533 271.341 525.967 270.141 528.3C268.941 530.633 267.408 532.8 265.541 534.8C263.674 536.733 261.574 538.467 259.241 540C256.974 541.533 254.741 542.7 252.541 543.5L249.741 539.3C252.141 537.433 253.941 535.767 255.141 534.3C256.408 532.833 257.041 531.4 257.041 530C257.041 527.6 255.208 525.033 251.541 522.3C251.541 520.7 251.841 519.267 252.441 518C253.041 516.733 253.841 515.667 254.841 514.8C255.841 513.933 257.008 513.267 258.341 512.8C259.674 512.333 261.041 512.1 262.441 512.1C265.174 512.1 267.441 512.833 269.241 514.3C271.041 515.767 271.941 518 271.941 521ZM297.436 550.6C297.503 550.267 297.57 549.933 297.636 549.6C297.703 549.267 297.736 548.9 297.736 548.5C297.736 547.3 297.503 546.2 297.036 545.2C296.636 544.133 295.803 543.6 294.536 543.6C293.403 543.6 292.27 544.1 291.136 545.1C290.003 546.033 289.436 547.3 289.436 548.9C289.436 549.967 289.703 550.833 290.236 551.5C290.836 552.1 291.603 552.6 292.536 553C293.47 553.4 294.503 553.733 295.636 554C296.836 554.267 298.003 554.533 299.136 554.8C300.736 555.2 302.236 555.7 303.636 556.3C305.103 556.833 306.403 557.567 307.536 558.5C308.67 559.433 309.57 560.6 310.236 562C310.903 563.333 311.236 565 311.236 567C311.236 569.8 310.57 572.167 309.236 574.1C307.97 575.967 306.17 577.5 303.836 578.7C301.57 579.833 298.87 580.633 295.736 581.1C292.67 581.567 289.37 581.8 285.836 581.8C280.436 581.8 275.97 581.4 272.436 580.6C268.903 579.8 266.436 579.033 265.036 578.3L267.136 568.3H280.636C280.57 568.633 280.536 568.967 280.536 569.3C280.536 569.567 280.536 569.867 280.536 570.2C280.536 571.733 280.87 572.967 281.536 573.9C282.27 574.767 283.503 575.2 285.236 575.2C287.17 575.2 288.536 574.667 289.336 573.6C290.203 572.467 290.636 571.433 290.636 570.5C290.636 569.567 290.27 568.767 289.536 568.1C288.87 567.367 288.003 566.767 286.936 566.3C285.87 565.767 284.67 565.333 283.336 565C282.07 564.6 280.836 564.233 279.636 563.9C278.77 563.7 277.77 563.367 276.636 562.9C275.57 562.433 274.536 561.767 273.536 560.9C272.536 560.033 271.703 558.933 271.036 557.6C270.37 556.2 270.036 554.467 270.036 552.4C270.036 549.467 270.736 547.033 272.136 545.1C273.603 543.1 275.47 541.5 277.736 540.3C280.07 539.1 282.67 538.233 285.536 537.7C288.47 537.167 291.403 536.9 294.336 536.9C298.003 536.9 301.47 537.233 304.736 537.9C308.003 538.567 310.67 539.433 312.736 540.5L310.436 550.6H297.436ZM395.907 532C395.907 533.933 395.607 535.667 395.007 537.2C394.474 538.733 393.707 540.1 392.707 541.3C391.707 542.5 390.541 543.567 389.207 544.5C387.874 545.433 386.407 546.3 384.807 547.1C385.541 547.367 386.407 547.8 387.407 548.4C388.407 548.933 389.374 549.7 390.307 550.7C391.241 551.7 392.007 553 392.607 554.6C393.274 556.133 393.607 558.033 393.607 560.3C393.607 563.3 392.974 566.067 391.707 568.6C390.441 571.133 388.541 573.333 386.007 575.2C383.541 577 380.474 578.433 376.807 579.5C373.207 580.5 369.041 581 364.307 581H334.607L348.107 517.5H374.407C377.007 517.5 379.574 517.7 382.107 518.1C384.707 518.433 387.007 519.133 389.007 520.2C391.074 521.267 392.741 522.767 394.007 524.7C395.274 526.567 395.907 529 395.907 532ZM368.707 544.1C370.174 544.1 371.407 543.667 372.407 542.8C373.474 541.933 374.341 540.867 375.007 539.6C375.674 538.267 376.174 536.867 376.507 535.4C376.841 533.867 377.007 532.5 377.007 531.3C377.007 529.367 376.541 527.733 375.607 526.4C374.741 525 373.341 524.3 371.407 524.3H368.407L364.107 544.1H368.707ZM361.507 574.7C363.507 574.7 365.174 574.133 366.507 573C367.841 571.867 368.941 570.467 369.807 568.8C370.674 567.133 371.274 565.4 371.607 563.6C372.007 561.733 372.207 560.1 372.207 558.7C372.207 556.367 371.707 554.533 370.707 553.2C369.774 551.8 368.241 551.1 366.107 551.1H362.407L357.507 574.7H361.507ZM418.614 560.9C418.348 562.367 418.148 563.767 418.014 565.1C417.948 566.433 417.914 567.633 417.914 568.7C417.914 569.3 417.948 569.967 418.014 570.7C418.081 571.433 418.214 572.133 418.414 572.8C418.681 573.4 419.014 573.933 419.414 574.4C419.881 574.8 420.514 575 421.314 575C421.914 575 422.581 574.8 423.314 574.4C424.114 574 424.881 573.433 425.614 572.7C426.414 571.967 427.148 571.067 427.814 570C428.548 568.933 429.114 567.733 429.514 566.4H445.914L443.314 577.1C441.981 577.967 440.448 578.7 438.714 579.3C436.981 579.9 435.148 580.4 433.214 580.8C431.281 581.133 429.314 581.367 427.314 581.5C425.314 581.7 423.414 581.8 421.614 581.8C418.281 581.8 415.181 581.5 412.314 580.9C409.448 580.3 406.948 579.267 404.814 577.8C402.681 576.333 400.981 574.4 399.714 572C398.514 569.533 397.914 566.5 397.914 562.9C397.914 559.633 398.414 556.433 399.414 553.3C400.481 550.167 402.214 547.4 404.614 545C407.081 542.533 410.348 540.567 414.414 539.1C418.548 537.633 423.681 536.9 429.814 536.9C436.481 536.9 441.481 537.933 444.814 540C448.214 542.067 449.914 545.3 449.914 549.7C449.914 551.5 449.648 553.467 449.114 555.6C448.581 557.667 447.781 559.433 446.714 560.9H418.614ZM431.914 549C431.914 546.933 431.581 545.533 430.914 544.8C430.248 544.067 429.448 543.7 428.514 543.7C427.448 543.7 426.448 544.067 425.514 544.8C424.648 545.467 423.848 546.4 423.114 547.6C422.381 548.733 421.714 550.067 421.114 551.6C420.514 553.067 420.014 554.633 419.614 556.3H431.014C431.148 555.5 431.281 554.667 431.414 553.8C431.548 553.067 431.648 552.267 431.714 551.4C431.848 550.533 431.914 549.733 431.914 549ZM492.302 538H508.502L500.302 576.9C499.702 579.9 498.702 582.667 497.302 585.2C495.902 587.733 493.935 589.933 491.402 591.8C488.935 593.667 485.802 595.133 482.002 596.2C478.269 597.267 473.702 597.8 468.302 597.8C467.302 597.8 466.102 597.767 464.702 597.7C463.302 597.7 461.869 597.667 460.402 597.6C458.935 597.6 457.535 597.567 456.202 597.5C454.869 597.433 453.802 597.367 453.002 597.3L454.902 590.1C457.035 590.433 459.202 590.6 461.402 590.6C463.669 590.667 465.602 590.7 467.202 590.7C469.202 590.7 470.869 590.5 472.202 590.1C473.602 589.767 474.735 589.2 475.602 588.4C476.535 587.6 477.269 586.533 477.802 585.2C478.402 583.867 478.869 582.233 479.202 580.3L480.402 573.8H479.702C479.302 574.4 478.702 575.133 477.902 576C477.169 576.8 476.202 577.6 475.002 578.4C473.802 579.133 472.369 579.767 470.702 580.3C469.102 580.767 467.269 581 465.202 581C462.869 581 460.869 580.667 459.202 580C457.602 579.267 456.302 578.3 455.302 577.1C454.302 575.833 453.569 574.367 453.102 572.7C452.635 570.967 452.402 569.1 452.402 567.1C452.402 566.233 452.469 564.9 452.602 563.1C452.735 561.3 453.035 559.267 453.502 557C454.035 554.733 454.769 552.433 455.702 550.1C456.702 547.7 458.002 545.533 459.602 543.6C461.269 541.667 463.302 540.067 465.702 538.8C468.169 537.533 471.135 536.9 474.602 536.9C475.669 536.9 476.835 537 478.102 537.2C479.369 537.4 480.602 537.767 481.802 538.3C483.002 538.833 484.069 539.6 485.002 540.6C485.935 541.6 486.669 542.9 487.202 544.5H487.802L492.302 538ZM481.102 546.7C479.502 546.7 478.169 547.567 477.102 549.3C476.035 550.967 475.169 552.933 474.502 555.2C473.835 557.467 473.335 559.733 473.002 562C472.735 564.2 472.602 565.833 472.602 566.9C472.602 568.233 472.802 569.367 473.202 570.3C473.669 571.167 474.469 571.6 475.602 571.6C476.269 571.6 476.902 571.433 477.502 571.1C478.169 570.767 478.769 570.4 479.302 570C479.902 569.533 480.402 569.067 480.802 568.6C481.269 568.133 481.602 567.767 481.802 567.5L485.502 550C484.969 549.267 484.335 548.533 483.602 547.8C482.935 547.067 482.102 546.7 481.102 546.7ZM528.614 581H508.314L517.414 538H537.914L528.614 581ZM540.514 524.9C540.514 526.433 540.181 527.767 539.514 528.9C538.914 530.033 538.081 531 537.014 531.8C536.014 532.6 534.848 533.2 533.514 533.6C532.181 534 530.814 534.2 529.414 534.2C526.748 534.2 524.514 533.567 522.714 532.3C520.914 531.033 520.014 529.033 520.014 526.3C520.014 524.833 520.314 523.533 520.914 522.4C521.514 521.2 522.314 520.233 523.314 519.5C524.381 518.7 525.581 518.1 526.914 517.7C528.314 517.3 529.748 517.1 531.214 517.1C533.814 517.1 536.014 517.733 537.814 519C539.614 520.267 540.514 522.233 540.514 524.9ZM565.411 544.4C566.811 543.067 568.378 541.833 570.111 540.7C571.645 539.767 573.445 538.9 575.511 538.1C577.578 537.3 579.878 536.9 582.411 536.9C585.878 536.9 588.745 537.8 591.011 539.6C593.278 541.333 594.411 543.733 594.411 546.8C594.411 547.667 594.311 548.733 594.111 550C593.911 551.2 593.678 552.467 593.411 553.8C593.145 555.133 592.845 556.5 592.511 557.9C592.245 559.233 592.011 560.433 591.811 561.5L587.611 581H567.311L572.811 554.9C572.945 554.033 573.111 553.167 573.311 552.3C573.511 551.367 573.611 550.533 573.611 549.8C573.611 548.8 573.345 548 572.811 547.4C572.345 546.733 571.611 546.4 570.611 546.4C569.411 546.4 568.245 546.833 567.111 547.7C566.045 548.567 565.211 549.3 564.611 549.9L558.011 581H537.611L546.711 538H563.011L564.811 544.4H565.411Z" fill="url(#paint2_linear_1_35)" fill-opacity="0.5"/>
<path d="M115.295 520.5H136.995L125.195 575.6H145.495L143.795 584H101.795L115.295 520.5ZM169.982 563.9C169.715 565.367 169.515 566.767 169.382 568.1C169.315 569.433 169.282 570.633 169.282 571.7C169.282 572.3 169.315 572.967 169.382 573.7C169.448 574.433 169.582 575.133 169.782 575.8C170.048 576.4 170.382 576.933 170.782 577.4C171.248 577.8 171.882 578 172.682 578C173.282 578 173.948 577.8 174.682 577.4C175.482 577 176.248 576.433 176.982 575.7C177.782 574.967 178.515 574.067 179.182 573C179.915 571.933 180.482 570.733 180.882 569.4H197.282L194.682 580.1C193.348 580.967 191.815 581.7 190.082 582.3C188.348 582.9 186.515 583.4 184.582 583.8C182.648 584.133 180.682 584.367 178.682 584.5C176.682 584.7 174.782 584.8 172.982 584.8C169.648 584.8 166.548 584.5 163.682 583.9C160.815 583.3 158.315 582.267 156.182 580.8C154.048 579.333 152.348 577.4 151.082 575C149.882 572.533 149.282 569.5 149.282 565.9C149.282 562.633 149.782 559.433 150.782 556.3C151.848 553.167 153.582 550.4 155.982 548C158.448 545.533 161.715 543.567 165.782 542.1C169.915 540.633 175.048 539.9 181.182 539.9C187.848 539.9 192.848 540.933 196.182 543C199.582 545.067 201.282 548.3 201.282 552.7C201.282 554.5 201.015 556.467 200.482 558.6C199.948 560.667 199.148 562.433 198.082 563.9H169.982ZM183.282 552C183.282 549.933 182.948 548.533 182.282 547.8C181.615 547.067 180.815 546.7 179.882 546.7C178.815 546.7 177.815 547.067 176.882 547.8C176.015 548.467 175.215 549.4 174.482 550.6C173.748 551.733 173.082 553.067 172.482 554.6C171.882 556.067 171.382 557.633 170.982 559.3H182.382C182.515 558.5 182.648 557.667 182.782 556.8C182.915 556.067 183.015 555.267 183.082 554.4C183.215 553.533 183.282 552.733 183.282 552ZM206.981 541C209.448 540.467 211.614 539.867 213.481 539.2C215.348 538.533 217.048 537.7 218.581 536.7C220.181 535.7 221.681 534.467 223.081 533C224.548 531.533 226.114 529.733 227.781 527.6H238.081L235.181 541H242.981L241.681 547.7H233.781L229.681 567.2C229.348 568.733 229.081 570.1 228.881 571.3C228.681 572.5 228.581 573.433 228.581 574.1C228.581 575.433 229.048 576.267 229.981 576.6C230.981 576.933 232.814 577.1 235.481 577.1L233.981 584C233.514 584.133 232.781 584.233 231.781 584.3C230.848 584.367 229.781 584.433 228.581 584.5C227.448 584.633 226.248 584.7 224.981 584.7C223.781 584.767 222.714 584.8 221.781 584.8C220.114 584.8 218.481 584.667 216.881 584.4C215.281 584.2 213.848 583.767 212.581 583.1C211.314 582.367 210.281 581.333 209.481 580C208.748 578.667 208.381 576.867 208.381 574.6C208.381 573.8 208.414 572.8 208.481 571.6C208.614 570.4 208.848 569.067 209.181 567.6L213.381 547.7H205.581L206.981 541ZM271.941 524C271.941 526.533 271.341 528.967 270.141 531.3C268.941 533.633 267.408 535.8 265.541 537.8C263.674 539.733 261.574 541.467 259.241 543C256.974 544.533 254.741 545.7 252.541 546.5L249.741 542.3C252.141 540.433 253.941 538.767 255.141 537.3C256.408 535.833 257.041 534.4 257.041 533C257.041 530.6 255.208 528.033 251.541 525.3C251.541 523.7 251.841 522.267 252.441 521C253.041 519.733 253.841 518.667 254.841 517.8C255.841 516.933 257.008 516.267 258.341 515.8C259.674 515.333 261.041 515.1 262.441 515.1C265.174 515.1 267.441 515.833 269.241 517.3C271.041 518.767 271.941 521 271.941 524ZM297.436 553.6C297.503 553.267 297.57 552.933 297.636 552.6C297.703 552.267 297.736 551.9 297.736 551.5C297.736 550.3 297.503 549.2 297.036 548.2C296.636 547.133 295.803 546.6 294.536 546.6C293.403 546.6 292.27 547.1 291.136 548.1C290.003 549.033 289.436 550.3 289.436 551.9C289.436 552.967 289.703 553.833 290.236 554.5C290.836 555.1 291.603 555.6 292.536 556C293.47 556.4 294.503 556.733 295.636 557C296.836 557.267 298.003 557.533 299.136 557.8C300.736 558.2 302.236 558.7 303.636 559.3C305.103 559.833 306.403 560.567 307.536 561.5C308.67 562.433 309.57 563.6 310.236 565C310.903 566.333 311.236 568 311.236 570C311.236 572.8 310.57 575.167 309.236 577.1C307.97 578.967 306.17 580.5 303.836 581.7C301.57 582.833 298.87 583.633 295.736 584.1C292.67 584.567 289.37 584.8 285.836 584.8C280.436 584.8 275.97 584.4 272.436 583.6C268.903 582.8 266.436 582.033 265.036 581.3L267.136 571.3H280.636C280.57 571.633 280.536 571.967 280.536 572.3C280.536 572.567 280.536 572.867 280.536 573.2C280.536 574.733 280.87 575.967 281.536 576.9C282.27 577.767 283.503 578.2 285.236 578.2C287.17 578.2 288.536 577.667 289.336 576.6C290.203 575.467 290.636 574.433 290.636 573.5C290.636 572.567 290.27 571.767 289.536 571.1C288.87 570.367 288.003 569.767 286.936 569.3C285.87 568.767 284.67 568.333 283.336 568C282.07 567.6 280.836 567.233 279.636 566.9C278.77 566.7 277.77 566.367 276.636 565.9C275.57 565.433 274.536 564.767 273.536 563.9C272.536 563.033 271.703 561.933 271.036 560.6C270.37 559.2 270.036 557.467 270.036 555.4C270.036 552.467 270.736 550.033 272.136 548.1C273.603 546.1 275.47 544.5 277.736 543.3C280.07 542.1 282.67 541.233 285.536 540.7C288.47 540.167 291.403 539.9 294.336 539.9C298.003 539.9 301.47 540.233 304.736 540.9C308.003 541.567 310.67 542.433 312.736 543.5L310.436 553.6H297.436ZM395.907 535C395.907 536.933 395.607 538.667 395.007 540.2C394.474 541.733 393.707 543.1 392.707 544.3C391.707 545.5 390.541 546.567 389.207 547.5C387.874 548.433 386.407 549.3 384.807 550.1C385.541 550.367 386.407 550.8 387.407 551.4C388.407 551.933 389.374 552.7 390.307 553.7C391.241 554.7 392.007 556 392.607 557.6C393.274 559.133 393.607 561.033 393.607 563.3C393.607 566.3 392.974 569.067 391.707 571.6C390.441 574.133 388.541 576.333 386.007 578.2C383.541 580 380.474 581.433 376.807 582.5C373.207 583.5 369.041 584 364.307 584H334.607L348.107 520.5H374.407C377.007 520.5 379.574 520.7 382.107 521.1C384.707 521.433 387.007 522.133 389.007 523.2C391.074 524.267 392.741 525.767 394.007 527.7C395.274 529.567 395.907 532 395.907 535ZM368.707 547.1C370.174 547.1 371.407 546.667 372.407 545.8C373.474 544.933 374.341 543.867 375.007 542.6C375.674 541.267 376.174 539.867 376.507 538.4C376.841 536.867 377.007 535.5 377.007 534.3C377.007 532.367 376.541 530.733 375.607 529.4C374.741 528 373.341 527.3 371.407 527.3H368.407L364.107 547.1H368.707ZM361.507 577.7C363.507 577.7 365.174 577.133 366.507 576C367.841 574.867 368.941 573.467 369.807 571.8C370.674 570.133 371.274 568.4 371.607 566.6C372.007 564.733 372.207 563.1 372.207 561.7C372.207 559.367 371.707 557.533 370.707 556.2C369.774 554.8 368.241 554.1 366.107 554.1H362.407L357.507 577.7H361.507ZM418.614 563.9C418.348 565.367 418.148 566.767 418.014 568.1C417.948 569.433 417.914 570.633 417.914 571.7C417.914 572.3 417.948 572.967 418.014 573.7C418.081 574.433 418.214 575.133 418.414 575.8C418.681 576.4 419.014 576.933 419.414 577.4C419.881 577.8 420.514 578 421.314 578C421.914 578 422.581 577.8 423.314 577.4C424.114 577 424.881 576.433 425.614 575.7C426.414 574.967 427.148 574.067 427.814 573C428.548 571.933 429.114 570.733 429.514 569.4H445.914L443.314 580.1C441.981 580.967 440.448 581.7 438.714 582.3C436.981 582.9 435.148 583.4 433.214 583.8C431.281 584.133 429.314 584.367 427.314 584.5C425.314 584.7 423.414 584.8 421.614 584.8C418.281 584.8 415.181 584.5 412.314 583.9C409.448 583.3 406.948 582.267 404.814 580.8C402.681 579.333 400.981 577.4 399.714 575C398.514 572.533 397.914 569.5 397.914 565.9C397.914 562.633 398.414 559.433 399.414 556.3C400.481 553.167 402.214 550.4 404.614 548C407.081 545.533 410.348 543.567 414.414 542.1C418.548 540.633 423.681 539.9 429.814 539.9C436.481 539.9 441.481 540.933 444.814 543C448.214 545.067 449.914 548.3 449.914 552.7C449.914 554.5 449.648 556.467 449.114 558.6C448.581 560.667 447.781 562.433 446.714 563.9H418.614ZM431.914 552C431.914 549.933 431.581 548.533 430.914 547.8C430.248 547.067 429.448 546.7 428.514 546.7C427.448 546.7 426.448 547.067 425.514 547.8C424.648 548.467 423.848 549.4 423.114 550.6C422.381 551.733 421.714 553.067 421.114 554.6C420.514 556.067 420.014 557.633 419.614 559.3H431.014C431.148 558.5 431.281 557.667 431.414 556.8C431.548 556.067 431.648 555.267 431.714 554.4C431.848 553.533 431.914 552.733 431.914 552ZM492.302 541H508.502L500.302 579.9C499.702 582.9 498.702 585.667 497.302 588.2C495.902 590.733 493.935 592.933 491.402 594.8C488.935 596.667 485.802 598.133 482.002 599.2C478.269 600.267 473.702 600.8 468.302 600.8C467.302 600.8 466.102 600.767 464.702 600.7C463.302 600.7 461.869 600.667 460.402 600.6C458.935 600.6 457.535 600.567 456.202 600.5C454.869 600.433 453.802 600.367 453.002 600.3L454.902 593.1C457.035 593.433 459.202 593.6 461.402 593.6C463.669 593.667 465.602 593.7 467.202 593.7C469.202 593.7 470.869 593.5 472.202 593.1C473.602 592.767 474.735 592.2 475.602 591.4C476.535 590.6 477.269 589.533 477.802 588.2C478.402 586.867 478.869 585.233 479.202 583.3L480.402 576.8H479.702C479.302 577.4 478.702 578.133 477.902 579C477.169 579.8 476.202 580.6 475.002 581.4C473.802 582.133 472.369 582.767 470.702 583.3C469.102 583.767 467.269 584 465.202 584C462.869 584 460.869 583.667 459.202 583C457.602 582.267 456.302 581.3 455.302 580.1C454.302 578.833 453.569 577.367 453.102 575.7C452.635 573.967 452.402 572.1 452.402 570.1C452.402 569.233 452.469 567.9 452.602 566.1C452.735 564.3 453.035 562.267 453.502 560C454.035 557.733 454.769 555.433 455.702 553.1C456.702 550.7 458.002 548.533 459.602 546.6C461.269 544.667 463.302 543.067 465.702 541.8C468.169 540.533 471.135 539.9 474.602 539.9C475.669 539.9 476.835 540 478.102 540.2C479.369 540.4 480.602 540.767 481.802 541.3C483.002 541.833 484.069 542.6 485.002 543.6C485.935 544.6 486.669 545.9 487.202 547.5H487.802L492.302 541ZM481.102 549.7C479.502 549.7 478.169 550.567 477.102 552.3C476.035 553.967 475.169 555.933 474.502 558.2C473.835 560.467 473.335 562.733 473.002 565C472.735 567.2 472.602 568.833 472.602 569.9C472.602 571.233 472.802 572.367 473.202 573.3C473.669 574.167 474.469 574.6 475.602 574.6C476.269 574.6 476.902 574.433 477.502 574.1C478.169 573.767 478.769 573.4 479.302 573C479.902 572.533 480.402 572.067 480.802 571.6C481.269 571.133 481.602 570.767 481.802 570.5L485.502 553C484.969 552.267 484.335 551.533 483.602 550.8C482.935 550.067 482.102 549.7 481.102 549.7ZM528.614 584H508.314L517.414 541H537.914L528.614 584ZM540.514 527.9C540.514 529.433 540.181 530.767 539.514 531.9C538.914 533.033 538.081 534 537.014 534.8C536.014 535.6 534.848 536.2 533.514 536.6C532.181 537 530.814 537.2 529.414 537.2C526.748 537.2 524.514 536.567 522.714 535.3C520.914 534.033 520.014 532.033 520.014 529.3C520.014 527.833 520.314 526.533 520.914 525.4C521.514 524.2 522.314 523.233 523.314 522.5C524.381 521.7 525.581 521.1 526.914 520.7C528.314 520.3 529.748 520.1 531.214 520.1C533.814 520.1 536.014 520.733 537.814 522C539.614 523.267 540.514 525.233 540.514 527.9ZM565.411 547.4C566.811 546.067 568.378 544.833 570.111 543.7C571.645 542.767 573.445 541.9 575.511 541.1C577.578 540.3 579.878 539.9 582.411 539.9C585.878 539.9 588.745 540.8 591.011 542.6C593.278 544.333 594.411 546.733 594.411 549.8C594.411 550.667 594.311 551.733 594.111 553C593.911 554.2 593.678 555.467 593.411 556.8C593.145 558.133 592.845 559.5 592.511 560.9C592.245 562.233 592.011 563.433 591.811 564.5L587.611 584H567.311L572.811 557.9C572.945 557.033 573.111 556.167 573.311 555.3C573.511 554.367 573.611 553.533 573.611 552.8C573.611 551.8 573.345 551 572.811 550.4C572.345 549.733 571.611 549.4 570.611 549.4C569.411 549.4 568.245 549.833 567.111 550.7C566.045 551.567 565.211 552.3 564.611 552.9L558.011 584H537.611L546.711 541H563.011L564.811 547.4H565.411Z" fill="black" fill-opacity="0.5"/>
<path d="M2.37375 670H-14.9062L-4.10625 619.2H13.2538L2.37375 670ZM28.4675 670H11.1875L21.9875 619.2H39.3475L28.4675 670ZM54.5613 670H37.2812L48.0813 619.2H65.4413L54.5613 670ZM80.655 670H63.375L74.175 619.2H91.535L80.655 670ZM106.749 670H89.4688L100.269 619.2H117.629L106.749 670ZM132.843 670H115.562L126.363 619.2H143.723L132.843 670ZM158.936 670H141.656L152.456 619.2H169.816L158.936 670ZM185.03 670H167.75L178.55 619.2H195.91L185.03 670ZM211.124 670H193.844L204.644 619.2H222.004L211.124 670ZM237.218 670H219.938L230.738 619.2H248.098L237.218 670ZM263.311 670H246.031L256.831 619.2H274.191L263.311 670ZM289.405 670H272.125L282.925 619.2H300.285L289.405 670ZM315.499 670H298.219L309.019 619.2H326.379L315.499 670ZM341.593 670H324.312L335.113 619.2H352.473L341.593 670ZM367.686 670H350.406L361.206 619.2H378.566L367.686 670ZM393.78 670H376.5L387.3 619.2H404.66L393.78 670ZM419.874 670H402.594L413.394 619.2H430.754L419.874 670ZM445.968 670H428.688L439.488 619.2H456.848L445.968 670ZM472.061 670H454.781L465.581 619.2H482.941L472.061 670ZM498.155 670H480.875L491.675 619.2H509.035L498.155 670ZM524.249 670H506.969L517.769 619.2H535.129L524.249 670ZM550.343 670H533.062L543.863 619.2H561.223L550.343 670ZM576.436 670H559.156L569.956 619.2H587.316L576.436 670ZM602.53 670H585.25L596.05 619.2H613.41L602.53 670ZM628.624 670H611.344L622.144 619.2H639.504L628.624 670ZM654.718 670H637.438L648.238 619.2H665.598L654.718 670ZM680.811 670H663.531L674.331 619.2H691.691L680.811 670ZM706.905 670H689.625L700.425 619.2H717.785L706.905 670ZM732.999 670H715.719L726.519 619.2H743.879L732.999 670ZM759.093 670H741.812L752.613 619.2H769.973L759.093 670Z" fill="url(#paint3_linear_1_35)"/>
<path d="M-14.9062 678.4H767.893V682.56H-14.9062V678.4Z" fill="url(#paint4_linear_1_35)"/>
<path d="M778.72 621L796 621L785.2 671.8L767.84 671.8L778.72 621ZM752.626 621L769.906 621L759.106 671.8L741.746 671.8L752.626 621ZM726.532 621L743.812 621L733.012 671.8L715.652 671.8L726.532 621ZM700.439 621L717.719 621L706.919 671.8L689.559 671.8L700.439 621ZM674.345 621L691.625 621L680.825 671.8L663.465 671.8L674.345 621ZM648.251 621L665.531 621L654.731 671.8L637.371 671.8L648.251 621ZM622.157 621L639.437 621L628.637 671.8L611.277 671.8L622.157 621ZM596.064 621L613.344 621L602.544 671.8L585.184 671.8L596.064 621ZM569.97 621L587.25 621L576.45 671.8L559.09 671.8L569.97 621ZM543.876 621L561.156 621L550.356 671.8L532.996 671.8L543.876 621ZM517.782 621L535.062 621L524.262 671.8L506.902 671.8L517.782 621ZM491.689 621L508.969 621L498.169 671.8L480.809 671.8L491.689 621ZM465.595 621L482.875 621L472.075 671.8L454.715 671.8L465.595 621ZM439.501 621L456.781 621L445.981 671.8L428.621 671.8L439.501 621ZM413.407 621L430.687 621L419.887 671.8L402.527 671.8L413.407 621ZM387.314 621L404.594 621L393.794 671.8L376.434 671.8L387.314 621ZM361.22 621L378.5 621L367.7 671.8L350.34 671.8L361.22 621ZM335.126 621L352.406 621L341.606 671.8L324.246 671.8L335.126 621ZM309.032 621L326.312 621L315.512 671.8L298.152 671.8L309.032 621ZM282.939 621L300.219 621L289.419 671.8L272.059 671.8L282.939 621ZM256.845 621L274.125 621L263.325 671.8L245.965 671.8L256.845 621ZM230.751 621L248.031 621L237.231 671.8L219.871 671.8L230.751 621ZM204.657 621L221.937 621L211.137 671.8L193.777 671.8L204.657 621ZM178.564 621L195.844 621L185.044 671.8L167.684 671.8L178.564 621ZM152.47 621L169.75 621L158.95 671.8L141.59 671.8L152.47 621ZM126.376 621L143.656 621L132.856 671.8L115.496 671.8L126.376 621ZM100.282 621L117.562 621L106.762 671.8L89.4025 671.8L100.282 621ZM74.1887 621L91.4687 621L80.6687 671.8L63.3087 671.8L74.1887 621ZM48.095 621L65.375 621L54.575 671.8L37.215 671.8L48.095 621ZM22.0012 621L39.2812 621L28.4812 671.8L11.1212 671.8L22.0012 621ZM-4.09251 621L13.1875 621L2.3875 671.8L-14.9725 671.8L-4.09251 621ZM-30.1863 621L-12.9063 621L-23.7063 671.8L-41.0663 671.8L-30.1863 621Z" fill="url(#paint5_linear_1_35)"/>
<path d="M796 612.6L-38.9863 612.6L-38.9863 608.44L796 608.44L796 612.6Z" fill="url(#paint6_linear_1_35)"/>
<path d="M2.37375 490H-14.9062L-4.10625 439.2H13.2538L2.37375 490ZM28.4675 490H11.1875L21.9875 439.2H39.3475L28.4675 490ZM54.5613 490H37.2812L48.0813 439.2H65.4413L54.5613 490ZM80.655 490H63.375L74.175 439.2H91.535L80.655 490ZM106.749 490H89.4688L100.269 439.2H117.629L106.749 490ZM132.843 490H115.562L126.363 439.2H143.723L132.843 490ZM158.936 490H141.656L152.456 439.2H169.816L158.936 490ZM185.03 490H167.75L178.55 439.2H195.91L185.03 490ZM211.124 490H193.844L204.644 439.2H222.004L211.124 490ZM237.218 490H219.938L230.738 439.2H248.098L237.218 490ZM263.311 490H246.031L256.831 439.2H274.191L263.311 490ZM289.405 490H272.125L282.925 439.2H300.285L289.405 490ZM315.499 490H298.219L309.019 439.2H326.379L315.499 490ZM341.593 490H324.312L335.113 439.2H352.473L341.593 490ZM367.686 490H350.406L361.206 439.2H378.566L367.686 490ZM393.78 490H376.5L387.3 439.2H404.66L393.78 490ZM419.874 490H402.594L413.394 439.2H430.754L419.874 490ZM445.968 490H428.688L439.488 439.2H456.848L445.968 490ZM472.061 490H454.781L465.581 439.2H482.941L472.061 490ZM498.155 490H480.875L491.675 439.2H509.035L498.155 490ZM524.249 490H506.969L517.769 439.2H535.129L524.249 490ZM550.343 490H533.062L543.863 439.2H561.223L550.343 490ZM576.436 490H559.156L569.956 439.2H587.316L576.436 490ZM602.53 490H585.25L596.05 439.2H613.41L602.53 490ZM628.624 490H611.344L622.144 439.2H639.504L628.624 490ZM654.718 490H637.438L648.238 439.2H665.598L654.718 490ZM680.811 490H663.531L674.331 439.2H691.691L680.811 490ZM706.905 490H689.625L700.425 439.2H717.785L706.905 490ZM732.999 490H715.719L726.519 439.2H743.879L732.999 490ZM759.093 490H741.812L752.613 439.2H769.973L759.093 490Z" fill="url(#paint7_linear_1_35)"/>
<path d="M-14.9062 498.4H767.893V502.56H-14.9062V498.4Z" fill="url(#paint8_linear_1_35)"/>
<path d="M778.72 441L796 441L785.2 491.8L767.84 491.8L778.72 441ZM752.626 441L769.906 441L759.106 491.8L741.746 491.8L752.626 441ZM726.532 441L743.812 441L733.012 491.8L715.652 491.8L726.532 441ZM700.439 441L717.719 441L706.919 491.8L689.559 491.8L700.439 441ZM674.345 441L691.625 441L680.825 491.8L663.465 491.8L674.345 441ZM648.251 441L665.531 441L654.731 491.8L637.371 491.8L648.251 441ZM622.157 441L639.437 441L628.637 491.8L611.277 491.8L622.157 441ZM596.064 441L613.344 441L602.544 491.8L585.184 491.8L596.064 441ZM569.97 441L587.25 441L576.45 491.8L559.09 491.8L569.97 441ZM543.876 441L561.156 441L550.356 491.8L532.996 491.8L543.876 441ZM517.782 441L535.062 441L524.262 491.8L506.902 491.8L517.782 441ZM491.689 441L508.969 441L498.169 491.8L480.809 491.8L491.689 441ZM465.595 441L482.875 441L472.075 491.8L454.715 491.8L465.595 441ZM439.501 441L456.781 441L445.981 491.8L428.621 491.8L439.501 441ZM413.407 441L430.687 441L419.887 491.8L402.527 491.8L413.407 441ZM387.314 441L404.594 441L393.794 491.8L376.434 491.8L387.314 441ZM361.22 441L378.5 441L367.7 491.8L350.34 491.8L361.22 441ZM335.126 441L352.406 441L341.606 491.8L324.246 491.8L335.126 441ZM309.032 441L326.312 441L315.512 491.8L298.152 491.8L309.032 441ZM282.939 441L300.219 441L289.419 491.8L272.059 491.8L282.939 441ZM256.845 441L274.125 441L263.325 491.8L245.965 491.8L256.845 441ZM230.751 441L248.031 441L237.231 491.8L219.871 491.8L230.751 441ZM204.657 441L221.937 441L211.137 491.8L193.777 491.8L204.657 441ZM178.564 441L195.844 441L185.044 491.8L167.684 491.8L178.564 441ZM152.47 441L169.75 441L158.95 491.8L141.59 491.8L152.47 441ZM126.376 441L143.656 441L132.856 491.8L115.496 491.8L126.376 441ZM100.282 441L117.562 441L106.762 491.8L89.4025 491.8L100.282 441ZM74.1887 441L91.4687 441L80.6687 491.8L63.3087 491.8L74.1887 441ZM48.095 441L65.375 441L54.575 491.8L37.215 491.8L48.095 441ZM22.0012 441L39.2812 441L28.4812 491.8L11.1212 491.8L22.0012 441ZM-4.09251 441L13.1875 441L2.3875 491.8L-14.9725 491.8L-4.09251 441ZM-30.1863 441L-12.9063 441L-23.7063 491.8L-41.0663 491.8L-30.1863 441Z" fill="url(#paint9_linear_1_35)"/>
<path d="M796 432.6L-38.9863 432.6L-38.9863 428.44L796 428.44L796 432.6Z" fill="url(#paint10_linear_1_35)"/>
</g>
<defs>
<linearGradient id="paint0_linear_1_35" x1="348.5" y1="-18.5" x2="348.5" y2="411" gradientUnits="userSpaceOnUse">
<stop stop-color="#FFC800"/>
<stop offset="1" stop-color="#997800"/>
</linearGradient>
<linearGradient id="paint1_linear_1_35" x1="349.5" y1="480" x2="349.5" y2="606" gradientUnits="userSpaceOnUse">
<stop stop-color="#E5A800"/>
<stop offset="0.675132" stop-color="#B98800"/>
<stop offset="1" stop-color="#A47800"/>
</linearGradient>
<linearGradient id="paint2_linear_1_35" x1="349.5" y1="483" x2="349.5" y2="610" gradientUnits="userSpaceOnUse">
<stop stop-color="#E5A800"/>
<stop offset="0.675132" stop-color="#B98800"/>
<stop offset="1" stop-color="#A47800"/>
</linearGradient>
<linearGradient id="paint3_linear_1_35" x1="376.5" y1="693" x2="376.5" y2="592" gradientUnits="userSpaceOnUse">
<stop stop-color="#B98800"/>
<stop offset="1" stop-color="#FFBB00"/>
</linearGradient>
<linearGradient id="paint4_linear_1_35" x1="376.5" y1="693" x2="376.5" y2="592" gradientUnits="userSpaceOnUse">
<stop stop-color="#B98800"/>
<stop offset="1" stop-color="#FFBB00"/>
</linearGradient>
<linearGradient id="paint5_linear_1_35" x1="378.5" y1="598" x2="378.5" y2="699" gradientUnits="userSpaceOnUse">
<stop stop-color="#B98800"/>
<stop offset="1" stop-color="#FFBB00"/>
</linearGradient>
<linearGradient id="paint6_linear_1_35" x1="378.5" y1="598" x2="378.5" y2="699" gradientUnits="userSpaceOnUse">
<stop stop-color="#B98800"/>
<stop offset="1" stop-color="#FFBB00"/>
</linearGradient>
<linearGradient id="paint7_linear_1_35" x1="376.5" y1="513" x2="376.5" y2="412" gradientUnits="userSpaceOnUse">
<stop stop-color="#B98800"/>
<stop offset="1" stop-color="#FFBB00"/>
</linearGradient>
<linearGradient id="paint8_linear_1_35" x1="376.5" y1="513" x2="376.5" y2="412" gradientUnits="userSpaceOnUse">
<stop stop-color="#B98800"/>
<stop offset="1" stop-color="#FFBB00"/>
</linearGradient>
<linearGradient id="paint9_linear_1_35" x1="378.5" y1="418" x2="378.5" y2="519" gradientUnits="userSpaceOnUse">
<stop stop-color="#B98800"/>
<stop offset="1" stop-color="#FFBB00"/>
</linearGradient>
<linearGradient id="paint10_linear_1_35" x1="378.5" y1="418" x2="378.5" y2="519" gradientUnits="userSpaceOnUse">
<stop stop-color="#B98800"/>
<stop offset="1" stop-color="#FFBB00"/>
</linearGradient>
<clipPath id="clip0_1_35">
<rect width="700" height="700" fill="white"/>
</clipPath>
</defs>
</svg>
