<svg width="75" height="75" viewBox="0 0 75 75" fill="none" xmlns="http://www.w3.org/2000/svg">
<g clip-path="url(#clip0_18_2)">
<path d="M-53.6262 62H-70.9062L-60.1062 11.2H-42.7462L-53.6262 62ZM-27.5325 62H-44.8125L-34.0125 11.2H-16.6525L-27.5325 62ZM-1.43875 62H-18.7188L-7.91875 11.2H9.44125L-1.43875 62ZM24.655 62H7.375L18.175 11.2H35.535L24.655 62ZM50.7488 62H33.4688L44.2688 11.2H61.6288L50.7488 62ZM76.8425 62H59.5625L70.3625 11.2H87.7225L76.8425 62ZM102.936 62H85.6562L96.4563 11.2H113.816L102.936 62ZM129.03 62H111.75L122.55 11.2H139.91L129.03 62ZM155.124 62H137.844L148.644 11.2H166.004L155.124 62ZM181.218 62H163.938L174.738 11.2H192.098L181.218 62ZM207.311 62H190.031L200.831 11.2H218.191L207.311 62ZM233.405 62H216.125L226.925 11.2H244.285L233.405 62ZM259.499 62H242.219L253.019 11.2H270.379L259.499 62ZM285.593 62H268.312L279.113 11.2H296.473L285.593 62ZM311.686 62H294.406L305.206 11.2H322.566L311.686 62ZM337.78 62H320.5L331.3 11.2H348.66L337.78 62ZM363.874 62H346.594L357.394 11.2H374.754L363.874 62ZM389.968 62H372.688L383.488 11.2H400.848L389.968 62ZM416.061 62H398.781L409.581 11.2H426.941L416.061 62ZM442.155 62H424.875L435.675 11.2H453.035L442.155 62ZM468.249 62H450.969L461.769 11.2H479.129L468.249 62ZM494.343 62H477.062L487.863 11.2H505.223L494.343 62ZM520.436 62H503.156L513.956 11.2H531.316L520.436 62ZM546.53 62H529.25L540.05 11.2H557.41L546.53 62ZM572.624 62H555.344L566.144 11.2H583.504L572.624 62ZM598.718 62H581.438L592.238 11.2H609.598L598.718 62ZM624.811 62H607.531L618.331 11.2H635.691L624.811 62ZM650.905 62H633.625L644.425 11.2H661.785L650.905 62ZM676.999 62H659.719L670.519 11.2H687.879L676.999 62ZM703.093 62H685.812L696.613 11.2H713.973L703.093 62Z" fill="url(#paint0_linear_18_2)"/>
<path d="M-70.9062 70.4H711.893V74.56H-70.9062V70.4Z" fill="url(#paint1_linear_18_2)"/>
<path d="M722.72 12.9999L740 12.9999L729.2 63.7999L711.84 63.7999L722.72 12.9999ZM696.626 12.9999L713.906 12.9999L703.106 63.7999L685.746 63.7999L696.626 12.9999ZM670.532 12.9999L687.812 12.9999L677.012 63.7999L659.652 63.7999L670.532 12.9999ZM644.439 12.9999L661.719 12.9999L650.919 63.8L633.559 63.8L644.439 12.9999ZM618.345 12.9999L635.625 12.9999L624.825 63.8L607.465 63.8L618.345 12.9999ZM592.251 13L609.531 13L598.731 63.8L581.371 63.8L592.251 13ZM566.157 13L583.437 13L572.637 63.8L555.277 63.8L566.157 13ZM540.064 13L557.344 13L546.544 63.8L529.184 63.8L540.064 13ZM513.97 13L531.25 13L520.45 63.8L503.09 63.8L513.97 13ZM487.876 13L505.156 13L494.356 63.8L476.996 63.8L487.876 13ZM461.782 13L479.062 13L468.262 63.8L450.902 63.8L461.782 13ZM435.689 13L452.969 13L442.169 63.8L424.809 63.8L435.689 13ZM409.595 13L426.875 13L416.075 63.8L398.715 63.8L409.595 13ZM383.501 13L400.781 13L389.981 63.8L372.621 63.8L383.501 13ZM357.407 13L374.687 13L363.887 63.8L346.527 63.8L357.407 13ZM331.314 13L348.594 13L337.794 63.8L320.434 63.8L331.314 13ZM305.22 13L322.5 13L311.7 63.8L294.34 63.8L305.22 13ZM279.126 13L296.406 13L285.606 63.8L268.246 63.8L279.126 13ZM253.032 13L270.312 13L259.512 63.8L242.152 63.8L253.032 13ZM226.939 13L244.219 13L233.419 63.8L216.059 63.8L226.939 13ZM200.845 13L218.125 13L207.325 63.8L189.965 63.8L200.845 13ZM174.751 13L192.031 13L181.231 63.8L163.871 63.8L174.751 13ZM148.657 13L165.937 13L155.137 63.8L137.777 63.8L148.657 13ZM122.564 13L139.844 13L129.044 63.8L111.684 63.8L122.564 13ZM96.47 13L113.75 13L102.95 63.8L85.59 63.8L96.47 13ZM70.3762 13L87.6562 13L76.8562 63.8L59.4962 63.8L70.3762 13ZM44.2825 13L61.5625 13L50.7625 63.8L33.4025 63.8L44.2825 13ZM18.1887 13L35.4687 13L24.6687 63.8L7.30875 63.8L18.1887 13ZM-7.90501 13L9.37499 13L-1.425 63.8L-18.785 63.8L-7.90501 13ZM-33.9988 13L-16.7188 13L-27.5188 63.8L-44.8788 63.8L-33.9988 13ZM-60.0925 13L-42.8125 13L-53.6125 63.8L-70.9725 63.8L-60.0925 13ZM-86.1863 13L-68.9063 13L-79.7063 63.8L-97.0663 63.8L-86.1863 13Z" fill="url(#paint2_linear_18_2)"/>
<path d="M740 4.59994L-94.9863 4.60001L-94.9863 0.440014L740 0.439941L740 4.59994Z" fill="url(#paint3_linear_18_2)"/>
</g>
<defs>
<linearGradient id="paint0_linear_18_2" x1="320.5" y1="85" x2="320.5" y2="-16" gradientUnits="userSpaceOnUse">
<stop stop-color="#B90000"/>
<stop offset="1" stop-color="#FF0000"/>
</linearGradient>
<linearGradient id="paint1_linear_18_2" x1="320.5" y1="85" x2="320.5" y2="-16" gradientUnits="userSpaceOnUse">
<stop stop-color="#B90000"/>
<stop offset="1" stop-color="#FF0000"/>
</linearGradient>
<linearGradient id="paint2_linear_18_2" x1="322.5" y1="-10" x2="322.5" y2="91" gradientUnits="userSpaceOnUse">
<stop stop-color="#B90000"/>
<stop offset="1" stop-color="#FF0000"/>
</linearGradient>
<linearGradient id="paint3_linear_18_2" x1="322.5" y1="-10" x2="322.5" y2="91" gradientUnits="userSpaceOnUse">
<stop stop-color="#B90000"/>
<stop offset="1" stop-color="#FF0000"/>
</linearGradient>
<clipPath id="clip0_18_2">
<rect width="75" height="75" fill="white"/>
</clipPath>
</defs>
</svg>
