<svg width="663" height="411" viewBox="0 0 663 411" fill="none" xmlns="http://www.w3.org/2000/svg">
<g clip-path="url(#clip0_7_2)">
<path d="M629.695 411H20C8.95431 411 0 402.046 0 391V1.5C0 -9.54569 8.9543 -18.5 20 -18.5H643C654.046 -18.5 663 -9.54569 663 1.5V375.201C663 379.915 661.335 384.477 658.298 388.083L644.994 403.883C641.193 408.395 635.595 411 629.695 411Z" fill="url(#paint0_linear_7_2)"/>
<path d="M14 386L27.5 322.5H54.4C58.5333 322.5 62.1333 322.933 65.2 323.8C68.3333 324.6 70.9 325.967 72.9 327.9C74.9667 329.833 76.5 332.367 77.5 335.5C78.5667 338.633 79.1 342.467 79.1 347C79.1 351.867 78.4667 356.633 77.2 361.3C76 365.967 73.9667 370.133 71.1 373.8C68.2333 377.467 64.4667 380.433 59.8 382.7C55.2 384.9 49.5 386 42.7 386H14ZM41.4 379C43.6 379 45.5333 378.1 47.2 376.3C48.9333 374.433 50.4 372.1 51.6 369.3C52.8667 366.433 53.9 363.3 54.7 359.9C55.5667 356.433 56.2333 353.1 56.7 349.9C57.2333 346.7 57.6 343.833 57.8 341.3C58.0667 338.767 58.2 336.967 58.2 335.9C58.2 333.833 57.7667 332.233 56.9 331.1C56.1 329.9 54.6667 329.3 52.6 329.3H47.8L37.1 379H41.4ZM114.619 362L109.519 386H87.8188L93.3188 360.3L83.5188 322.5H107.519L114.319 347.6L129.319 322.5H140.119L114.619 362ZM170.002 340.9C170.202 339.9 170.302 338.533 170.302 336.8C170.302 335.8 170.235 334.833 170.102 333.9C169.968 332.9 169.735 332.033 169.402 331.3C169.068 330.5 168.568 329.9 167.902 329.5C167.235 329.033 166.368 328.8 165.302 328.8C164.102 328.8 163.002 329.067 162.002 329.6C161.002 330.133 160.102 330.833 159.302 331.7C158.568 332.5 157.968 333.467 157.502 334.6C157.102 335.667 156.902 336.8 156.902 338C156.902 339.733 157.335 341.067 158.202 342C159.135 342.933 160.335 343.7 161.802 344.3C163.268 344.9 164.935 345.4 166.802 345.8C168.668 346.2 170.602 346.667 172.602 347.2C174.268 347.667 175.935 348.267 177.602 349C179.268 349.733 180.735 350.733 182.002 352C183.335 353.2 184.402 354.8 185.202 356.8C186.002 358.733 186.402 361.167 186.402 364.1C186.402 368.3 185.568 371.833 183.902 374.7C182.235 377.567 179.935 379.9 177.002 381.7C174.068 383.5 170.568 384.8 166.502 385.6C162.502 386.4 158.135 386.8 153.402 386.8C148.602 386.8 144.668 386.5 141.602 385.9C138.602 385.233 136.235 384.533 134.502 383.8C132.435 382.933 130.902 381.933 129.902 380.8L133.302 367.1H150.902C150.835 367.7 150.768 368.533 150.702 369.6C150.635 370.6 150.602 371.4 150.602 372C150.602 372.8 150.702 373.633 150.902 374.5C151.102 375.367 151.402 376.167 151.802 376.9C152.268 377.633 152.902 378.233 153.702 378.7C154.502 379.167 155.502 379.4 156.702 379.4C158.035 379.4 159.202 379.1 160.202 378.5C161.268 377.9 162.135 377.167 162.802 376.3C163.535 375.367 164.068 374.367 164.402 373.3C164.802 372.167 165.002 371.067 165.002 370C165.002 368.533 164.635 367.3 163.902 366.3C163.235 365.3 162.302 364.467 161.102 363.8C159.902 363.067 158.502 362.467 156.902 362C155.368 361.467 153.768 360.933 152.102 360.4C150.502 359.933 148.802 359.367 147.002 358.7C145.268 358.033 143.668 357.1 142.202 355.9C140.735 354.7 139.502 353.2 138.502 351.4C137.568 349.533 137.102 347.167 137.102 344.3C137.102 340.033 138.168 336.467 140.302 333.6C142.502 330.667 145.235 328.3 148.502 326.5C151.835 324.7 155.468 323.433 159.402 322.7C163.335 321.9 167.068 321.5 170.602 321.5C175.268 321.5 179.268 322.067 182.602 323.2C186.002 324.267 188.568 325.533 190.302 327L186.602 340.9H170.002ZM230.393 321.5C236.126 321.5 240.76 322.233 244.293 323.7C247.893 325.167 250.726 327.433 252.793 330.5C254.126 332.567 255.16 334.9 255.893 337.5C256.626 340.1 256.993 343.1 256.993 346.5C256.993 349.433 256.726 352.367 256.193 355.3C255.66 358.233 254.893 361.067 253.893 363.8C252.96 366.467 251.793 369 250.393 371.4C249.06 373.733 247.56 375.8 245.893 377.6C242.76 381 239.126 383.4 234.993 384.8C230.926 386.133 225.893 386.8 219.893 386.8C214.093 386.8 209.426 386.2 205.893 385C202.36 383.8 199.56 381.867 197.493 379.2C196.026 377.333 194.86 374.967 193.993 372.1C193.193 369.233 192.793 365.633 192.793 361.3C192.793 353.9 194.093 347.3 196.693 341.5C199.36 335.633 203.126 331 207.993 327.6C210.926 325.533 214.193 324 217.793 323C221.393 322 225.593 321.5 230.393 321.5ZM219.093 379.8C220.626 379.8 222.06 379.133 223.393 377.8C224.793 376.4 226.06 374.567 227.193 372.3C228.393 369.967 229.46 367.333 230.393 364.4C231.393 361.467 232.226 358.433 232.893 355.3C233.56 352.167 234.06 349.067 234.393 346C234.793 342.867 234.993 340.033 234.993 337.5C234.993 334.033 234.626 331.667 233.893 330.4C233.226 329.067 232.226 328.4 230.893 328.4C229.36 328.4 227.893 329.067 226.493 330.4C225.093 331.733 223.76 333.533 222.493 335.8C221.293 338 220.193 340.567 219.193 343.5C218.26 346.367 217.426 349.333 216.693 352.4C216.026 355.467 215.493 358.5 215.093 361.5C214.76 364.5 214.593 367.267 214.593 369.8C214.593 373.6 214.993 376.233 215.793 377.7C216.66 379.1 217.76 379.8 219.093 379.8ZM298.85 321.5C304.583 321.5 309.217 322.233 312.75 323.7C316.35 325.167 319.183 327.433 321.25 330.5C322.583 332.567 323.617 334.9 324.35 337.5C325.083 340.1 325.45 343.1 325.45 346.5C325.45 349.433 325.183 352.367 324.65 355.3C324.117 358.233 323.35 361.067 322.35 363.8C321.417 366.467 320.25 369 318.85 371.4C317.517 373.733 316.017 375.8 314.35 377.6C311.217 381 307.583 383.4 303.45 384.8C299.383 386.133 294.35 386.8 288.35 386.8C282.55 386.8 277.883 386.2 274.35 385C270.817 383.8 268.017 381.867 265.95 379.2C264.483 377.333 263.317 374.967 262.45 372.1C261.65 369.233 261.25 365.633 261.25 361.3C261.25 353.9 262.55 347.3 265.15 341.5C267.817 335.633 271.583 331 276.45 327.6C279.383 325.533 282.65 324 286.25 323C289.85 322 294.05 321.5 298.85 321.5ZM287.55 379.8C289.083 379.8 290.517 379.133 291.85 377.8C293.25 376.4 294.517 374.567 295.65 372.3C296.85 369.967 297.917 367.333 298.85 364.4C299.85 361.467 300.683 358.433 301.35 355.3C302.017 352.167 302.517 349.067 302.85 346C303.25 342.867 303.45 340.033 303.45 337.5C303.45 334.033 303.083 331.667 302.35 330.4C301.683 329.067 300.683 328.4 299.35 328.4C297.817 328.4 296.35 329.067 294.95 330.4C293.55 331.733 292.217 333.533 290.95 335.8C289.75 338 288.65 340.567 287.65 343.5C286.717 346.367 285.883 349.333 285.15 352.4C284.483 355.467 283.95 358.5 283.55 361.5C283.217 364.5 283.05 367.267 283.05 369.8C283.05 373.6 283.45 376.233 284.25 377.7C285.117 379.1 286.217 379.8 287.55 379.8ZM379.507 386H356.107L345.007 340.1L335.207 386H326.207L339.707 322.5H363.607L374.107 369L384.007 322.5H393.207L379.507 386ZM410.863 377.2C410.863 378.733 410.529 380.1 409.863 381.3C409.263 382.5 408.429 383.5 407.363 384.3C406.363 385.1 405.196 385.7 403.863 386.1C402.529 386.567 401.129 386.8 399.663 386.8C397.129 386.8 394.963 386.133 393.163 384.8C391.429 383.4 390.562 381.233 390.562 378.3C390.562 376.767 390.863 375.4 391.463 374.2C392.063 373 392.863 372 393.862 371.2C394.863 370.4 395.996 369.8 397.263 369.4C398.596 368.933 399.963 368.7 401.363 368.7C404.096 368.7 406.363 369.4 408.163 370.8C409.963 372.133 410.863 374.267 410.863 377.2ZM472.646 380.6C470.979 381.4 469.246 382.2 467.446 383C465.713 383.733 463.846 384.4 461.846 385C459.846 385.533 457.646 385.967 455.246 386.3C452.913 386.633 450.346 386.8 447.546 386.8C438.613 386.8 431.713 384.8 426.846 380.8C422.046 376.8 419.646 370.133 419.646 360.8C419.646 355.4 420.479 350.333 422.146 345.6C423.813 340.8 426.279 336.633 429.546 333.1C432.813 329.5 436.846 326.667 441.646 324.6C446.446 322.533 451.946 321.5 458.146 321.5C461.079 321.5 463.746 321.7 466.146 322.1C468.613 322.5 470.813 323.033 472.746 323.7C474.746 324.3 476.513 324.967 478.046 325.7C479.646 326.433 481.079 327.133 482.346 327.8L478.746 346.4H460.746C460.813 345.733 460.879 344.867 460.946 343.8C461.079 342.733 461.179 341.667 461.246 340.6C461.313 339.467 461.379 338.367 461.446 337.3C461.513 336.233 461.546 335.333 461.546 334.6C461.546 334.067 461.513 333.467 461.446 332.8C461.379 332.067 461.213 331.367 460.946 330.7C460.679 330.033 460.246 329.5 459.646 329.1C459.113 328.633 458.379 328.4 457.446 328.4C455.713 328.4 454.113 329.133 452.646 330.6C451.246 332 449.979 333.9 448.846 336.3C447.713 338.633 446.713 341.3 445.846 344.3C444.979 347.3 444.246 350.367 443.646 353.5C443.113 356.567 442.679 359.6 442.346 362.6C442.079 365.6 441.946 368.233 441.946 370.5C441.946 371.167 441.979 372 442.046 373C442.113 374 442.313 374.967 442.646 375.9C442.979 376.833 443.479 377.633 444.146 378.3C444.879 378.967 445.846 379.3 447.046 379.3C449.113 379.3 451.113 378.033 453.046 375.5C454.979 372.9 456.679 368.3 458.146 361.7H476.646L472.646 380.6ZM493.613 322.5H515.313L503.513 377.6H523.813L522.113 386H480.113L493.613 322.5ZM552.907 363.3C552.574 364.767 552.307 366.033 552.107 367.1C551.907 368.167 551.807 369.167 551.807 370.1C551.807 372.433 552.607 374.3 554.207 375.7C555.874 377.1 558.307 377.8 561.507 377.8C563.84 377.8 565.74 377.4 567.207 376.6C568.74 375.8 569.974 374.733 570.907 373.4C571.907 372.067 572.674 370.533 573.207 368.8C573.807 367.067 574.307 365.233 574.707 363.3L583.207 322.5H592.307L583.607 363.5C582.94 366.7 581.974 369.7 580.707 372.5C579.44 375.3 577.607 377.767 575.207 379.9C572.874 382.033 569.84 383.733 566.107 385C562.374 386.2 557.74 386.8 552.207 386.8C544.54 386.8 538.874 385.567 535.207 383.1C531.54 380.567 529.707 376.7 529.707 371.5C529.707 369.167 530.007 366.2 530.607 362.6C531.207 359 531.974 355.1 532.907 350.9L539.007 322.5H561.707L552.907 363.3ZM650.495 337C650.495 338.933 650.195 340.667 649.595 342.2C649.062 343.733 648.295 345.1 647.295 346.3C646.295 347.5 645.129 348.567 643.795 349.5C642.462 350.433 640.995 351.3 639.395 352.1C640.129 352.367 640.995 352.8 641.995 353.4C642.995 353.933 643.962 354.7 644.895 355.7C645.829 356.7 646.595 358 647.195 359.6C647.862 361.133 648.195 363.033 648.195 365.3C648.195 368.3 647.562 371.067 646.295 373.6C645.029 376.133 643.129 378.333 640.595 380.2C638.129 382 635.062 383.433 631.395 384.5C627.795 385.5 623.629 386 618.895 386H589.195L602.695 322.5H628.995C631.595 322.5 634.162 322.7 636.695 323.1C639.295 323.433 641.595 324.133 643.595 325.2C645.662 326.267 647.329 327.767 648.595 329.7C649.862 331.567 650.495 334 650.495 337ZM623.295 349.1C624.762 349.1 625.995 348.667 626.995 347.8C628.062 346.933 628.929 345.867 629.595 344.6C630.262 343.267 630.762 341.867 631.095 340.4C631.429 338.867 631.595 337.5 631.595 336.3C631.595 334.367 631.129 332.733 630.195 331.4C629.329 330 627.929 329.3 625.995 329.3H622.995L618.695 349.1H623.295ZM616.095 379.7C618.095 379.7 619.762 379.133 621.095 378C622.429 376.867 623.529 375.467 624.395 373.8C625.262 372.133 625.862 370.4 626.195 368.6C626.595 366.733 626.795 365.1 626.795 363.7C626.795 361.367 626.295 359.533 625.295 358.2C624.362 356.8 622.829 356.1 620.695 356.1H616.995L612.095 379.7H616.095Z" fill="black"/>
<path d="M14 389L27.5 325.5H54.4C58.5333 325.5 62.1333 325.933 65.2 326.8C68.3333 327.6 70.9 328.967 72.9 330.9C74.9667 332.833 76.5 335.367 77.5 338.5C78.5667 341.633 79.1 345.467 79.1 350C79.1 354.867 78.4667 359.633 77.2 364.3C76 368.967 73.9667 373.133 71.1 376.8C68.2333 380.467 64.4667 383.433 59.8 385.7C55.2 387.9 49.5 389 42.7 389H14ZM41.4 382C43.6 382 45.5333 381.1 47.2 379.3C48.9333 377.433 50.4 375.1 51.6 372.3C52.8667 369.433 53.9 366.3 54.7 362.9C55.5667 359.433 56.2333 356.1 56.7 352.9C57.2333 349.7 57.6 346.833 57.8 344.3C58.0667 341.767 58.2 339.967 58.2 338.9C58.2 336.833 57.7667 335.233 56.9 334.1C56.1 332.9 54.6667 332.3 52.6 332.3H47.8L37.1 382H41.4ZM114.619 365L109.519 389H87.8188L93.3188 363.3L83.5188 325.5H107.519L114.319 350.6L129.319 325.5H140.119L114.619 365ZM170.002 343.9C170.202 342.9 170.302 341.533 170.302 339.8C170.302 338.8 170.235 337.833 170.102 336.9C169.968 335.9 169.735 335.033 169.402 334.3C169.068 333.5 168.568 332.9 167.902 332.5C167.235 332.033 166.368 331.8 165.302 331.8C164.102 331.8 163.002 332.067 162.002 332.6C161.002 333.133 160.102 333.833 159.302 334.7C158.568 335.5 157.968 336.467 157.502 337.6C157.102 338.667 156.902 339.8 156.902 341C156.902 342.733 157.335 344.067 158.202 345C159.135 345.933 160.335 346.7 161.802 347.3C163.268 347.9 164.935 348.4 166.802 348.8C168.668 349.2 170.602 349.667 172.602 350.2C174.268 350.667 175.935 351.267 177.602 352C179.268 352.733 180.735 353.733 182.002 355C183.335 356.2 184.402 357.8 185.202 359.8C186.002 361.733 186.402 364.167 186.402 367.1C186.402 371.3 185.568 374.833 183.902 377.7C182.235 380.567 179.935 382.9 177.002 384.7C174.068 386.5 170.568 387.8 166.502 388.6C162.502 389.4 158.135 389.8 153.402 389.8C148.602 389.8 144.668 389.5 141.602 388.9C138.602 388.233 136.235 387.533 134.502 386.8C132.435 385.933 130.902 384.933 129.902 383.8L133.302 370.1H150.902C150.835 370.7 150.768 371.533 150.702 372.6C150.635 373.6 150.602 374.4 150.602 375C150.602 375.8 150.702 376.633 150.902 377.5C151.102 378.367 151.402 379.167 151.802 379.9C152.268 380.633 152.902 381.233 153.702 381.7C154.502 382.167 155.502 382.4 156.702 382.4C158.035 382.4 159.202 382.1 160.202 381.5C161.268 380.9 162.135 380.167 162.802 379.3C163.535 378.367 164.068 377.367 164.402 376.3C164.802 375.167 165.002 374.067 165.002 373C165.002 371.533 164.635 370.3 163.902 369.3C163.235 368.3 162.302 367.467 161.102 366.8C159.902 366.067 158.502 365.467 156.902 365C155.368 364.467 153.768 363.933 152.102 363.4C150.502 362.933 148.802 362.367 147.002 361.7C145.268 361.033 143.668 360.1 142.202 358.9C140.735 357.7 139.502 356.2 138.502 354.4C137.568 352.533 137.102 350.167 137.102 347.3C137.102 343.033 138.168 339.467 140.302 336.6C142.502 333.667 145.235 331.3 148.502 329.5C151.835 327.7 155.468 326.433 159.402 325.7C163.335 324.9 167.068 324.5 170.602 324.5C175.268 324.5 179.268 325.067 182.602 326.2C186.002 327.267 188.568 328.533 190.302 330L186.602 343.9H170.002ZM230.393 324.5C236.126 324.5 240.76 325.233 244.293 326.7C247.893 328.167 250.726 330.433 252.793 333.5C254.126 335.567 255.16 337.9 255.893 340.5C256.626 343.1 256.993 346.1 256.993 349.5C256.993 352.433 256.726 355.367 256.193 358.3C255.66 361.233 254.893 364.067 253.893 366.8C252.96 369.467 251.793 372 250.393 374.4C249.06 376.733 247.56 378.8 245.893 380.6C242.76 384 239.126 386.4 234.993 387.8C230.926 389.133 225.893 389.8 219.893 389.8C214.093 389.8 209.426 389.2 205.893 388C202.36 386.8 199.56 384.867 197.493 382.2C196.026 380.333 194.86 377.967 193.993 375.1C193.193 372.233 192.793 368.633 192.793 364.3C192.793 356.9 194.093 350.3 196.693 344.5C199.36 338.633 203.126 334 207.993 330.6C210.926 328.533 214.193 327 217.793 326C221.393 325 225.593 324.5 230.393 324.5ZM219.093 382.8C220.626 382.8 222.06 382.133 223.393 380.8C224.793 379.4 226.06 377.567 227.193 375.3C228.393 372.967 229.46 370.333 230.393 367.4C231.393 364.467 232.226 361.433 232.893 358.3C233.56 355.167 234.06 352.067 234.393 349C234.793 345.867 234.993 343.033 234.993 340.5C234.993 337.033 234.626 334.667 233.893 333.4C233.226 332.067 232.226 331.4 230.893 331.4C229.36 331.4 227.893 332.067 226.493 333.4C225.093 334.733 223.76 336.533 222.493 338.8C221.293 341 220.193 343.567 219.193 346.5C218.26 349.367 217.426 352.333 216.693 355.4C216.026 358.467 215.493 361.5 215.093 364.5C214.76 367.5 214.593 370.267 214.593 372.8C214.593 376.6 214.993 379.233 215.793 380.7C216.66 382.1 217.76 382.8 219.093 382.8ZM298.85 324.5C304.583 324.5 309.217 325.233 312.75 326.7C316.35 328.167 319.183 330.433 321.25 333.5C322.583 335.567 323.617 337.9 324.35 340.5C325.083 343.1 325.45 346.1 325.45 349.5C325.45 352.433 325.183 355.367 324.65 358.3C324.117 361.233 323.35 364.067 322.35 366.8C321.417 369.467 320.25 372 318.85 374.4C317.517 376.733 316.017 378.8 314.35 380.6C311.217 384 307.583 386.4 303.45 387.8C299.383 389.133 294.35 389.8 288.35 389.8C282.55 389.8 277.883 389.2 274.35 388C270.817 386.8 268.017 384.867 265.95 382.2C264.483 380.333 263.317 377.967 262.45 375.1C261.65 372.233 261.25 368.633 261.25 364.3C261.25 356.9 262.55 350.3 265.15 344.5C267.817 338.633 271.583 334 276.45 330.6C279.383 328.533 282.65 327 286.25 326C289.85 325 294.05 324.5 298.85 324.5ZM287.55 382.8C289.083 382.8 290.517 382.133 291.85 380.8C293.25 379.4 294.517 377.567 295.65 375.3C296.85 372.967 297.917 370.333 298.85 367.4C299.85 364.467 300.683 361.433 301.35 358.3C302.017 355.167 302.517 352.067 302.85 349C303.25 345.867 303.45 343.033 303.45 340.5C303.45 337.033 303.083 334.667 302.35 333.4C301.683 332.067 300.683 331.4 299.35 331.4C297.817 331.4 296.35 332.067 294.95 333.4C293.55 334.733 292.217 336.533 290.95 338.8C289.75 341 288.65 343.567 287.65 346.5C286.717 349.367 285.883 352.333 285.15 355.4C284.483 358.467 283.95 361.5 283.55 364.5C283.217 367.5 283.05 370.267 283.05 372.8C283.05 376.6 283.45 379.233 284.25 380.7C285.117 382.1 286.217 382.8 287.55 382.8ZM379.507 389H356.107L345.007 343.1L335.207 389H326.207L339.707 325.5H363.607L374.107 372L384.007 325.5H393.207L379.507 389ZM410.863 380.2C410.863 381.733 410.529 383.1 409.863 384.3C409.263 385.5 408.429 386.5 407.363 387.3C406.363 388.1 405.196 388.7 403.863 389.1C402.529 389.567 401.129 389.8 399.663 389.8C397.129 389.8 394.963 389.133 393.163 387.8C391.429 386.4 390.562 384.233 390.562 381.3C390.562 379.767 390.863 378.4 391.463 377.2C392.063 376 392.863 375 393.862 374.2C394.863 373.4 395.996 372.8 397.263 372.4C398.596 371.933 399.963 371.7 401.363 371.7C404.096 371.7 406.363 372.4 408.163 373.8C409.963 375.133 410.863 377.267 410.863 380.2ZM472.646 383.6C470.979 384.4 469.246 385.2 467.446 386C465.713 386.733 463.846 387.4 461.846 388C459.846 388.533 457.646 388.967 455.246 389.3C452.913 389.633 450.346 389.8 447.546 389.8C438.613 389.8 431.713 387.8 426.846 383.8C422.046 379.8 419.646 373.133 419.646 363.8C419.646 358.4 420.479 353.333 422.146 348.6C423.813 343.8 426.279 339.633 429.546 336.1C432.813 332.5 436.846 329.667 441.646 327.6C446.446 325.533 451.946 324.5 458.146 324.5C461.079 324.5 463.746 324.7 466.146 325.1C468.613 325.5 470.813 326.033 472.746 326.7C474.746 327.3 476.513 327.967 478.046 328.7C479.646 329.433 481.079 330.133 482.346 330.8L478.746 349.4H460.746C460.813 348.733 460.879 347.867 460.946 346.8C461.079 345.733 461.179 344.667 461.246 343.6C461.313 342.467 461.379 341.367 461.446 340.3C461.513 339.233 461.546 338.333 461.546 337.6C461.546 337.067 461.513 336.467 461.446 335.8C461.379 335.067 461.213 334.367 460.946 333.7C460.679 333.033 460.246 332.5 459.646 332.1C459.113 331.633 458.379 331.4 457.446 331.4C455.713 331.4 454.113 332.133 452.646 333.6C451.246 335 449.979 336.9 448.846 339.3C447.713 341.633 446.713 344.3 445.846 347.3C444.979 350.3 444.246 353.367 443.646 356.5C443.113 359.567 442.679 362.6 442.346 365.6C442.079 368.6 441.946 371.233 441.946 373.5C441.946 374.167 441.979 375 442.046 376C442.113 377 442.313 377.967 442.646 378.9C442.979 379.833 443.479 380.633 444.146 381.3C444.879 381.967 445.846 382.3 447.046 382.3C449.113 382.3 451.113 381.033 453.046 378.5C454.979 375.9 456.679 371.3 458.146 364.7H476.646L472.646 383.6ZM493.613 325.5H515.313L503.513 380.6H523.813L522.113 389H480.113L493.613 325.5ZM552.907 366.3C552.574 367.767 552.307 369.033 552.107 370.1C551.907 371.167 551.807 372.167 551.807 373.1C551.807 375.433 552.607 377.3 554.207 378.7C555.874 380.1 558.307 380.8 561.507 380.8C563.84 380.8 565.74 380.4 567.207 379.6C568.74 378.8 569.974 377.733 570.907 376.4C571.907 375.067 572.674 373.533 573.207 371.8C573.807 370.067 574.307 368.233 574.707 366.3L583.207 325.5H592.307L583.607 366.5C582.94 369.7 581.974 372.7 580.707 375.5C579.44 378.3 577.607 380.767 575.207 382.9C572.874 385.033 569.84 386.733 566.107 388C562.374 389.2 557.74 389.8 552.207 389.8C544.54 389.8 538.874 388.567 535.207 386.1C531.54 383.567 529.707 379.7 529.707 374.5C529.707 372.167 530.007 369.2 530.607 365.6C531.207 362 531.974 358.1 532.907 353.9L539.007 325.5H561.707L552.907 366.3ZM650.495 340C650.495 341.933 650.195 343.667 649.595 345.2C649.062 346.733 648.295 348.1 647.295 349.3C646.295 350.5 645.129 351.567 643.795 352.5C642.462 353.433 640.995 354.3 639.395 355.1C640.129 355.367 640.995 355.8 641.995 356.4C642.995 356.933 643.962 357.7 644.895 358.7C645.829 359.7 646.595 361 647.195 362.6C647.862 364.133 648.195 366.033 648.195 368.3C648.195 371.3 647.562 374.067 646.295 376.6C645.029 379.133 643.129 381.333 640.595 383.2C638.129 385 635.062 386.433 631.395 387.5C627.795 388.5 623.629 389 618.895 389H589.195L602.695 325.5H628.995C631.595 325.5 634.162 325.7 636.695 326.1C639.295 326.433 641.595 327.133 643.595 328.2C645.662 329.267 647.329 330.767 648.595 332.7C649.862 334.567 650.495 337 650.495 340ZM623.295 352.1C624.762 352.1 625.995 351.667 626.995 350.8C628.062 349.933 628.929 348.867 629.595 347.6C630.262 346.267 630.762 344.867 631.095 343.4C631.429 341.867 631.595 340.5 631.595 339.3C631.595 337.367 631.129 335.733 630.195 334.4C629.329 333 627.929 332.3 625.995 332.3H622.995L618.695 352.1H623.295ZM616.095 382.7C618.095 382.7 619.762 382.133 621.095 381C622.429 379.867 623.529 378.467 624.395 376.8C625.262 375.133 625.862 373.4 626.195 371.6C626.595 369.733 626.795 368.1 626.795 366.7C626.795 364.367 626.295 362.533 625.295 361.2C624.362 359.8 622.829 359.1 620.695 359.1H616.995L612.095 382.7H616.095Z" fill="#E58D00" fill-opacity="0.77"/>
<path d="M14 392L27.5 328.5H54.4C58.5333 328.5 62.1333 328.933 65.2 329.8C68.3333 330.6 70.9 331.967 72.9 333.9C74.9667 335.833 76.5 338.367 77.5 341.5C78.5667 344.633 79.1 348.467 79.1 353C79.1 357.867 78.4667 362.633 77.2 367.3C76 371.967 73.9667 376.133 71.1 379.8C68.2333 383.467 64.4667 386.433 59.8 388.7C55.2 390.9 49.5 392 42.7 392H14ZM41.4 385C43.6 385 45.5333 384.1 47.2 382.3C48.9333 380.433 50.4 378.1 51.6 375.3C52.8667 372.433 53.9 369.3 54.7 365.9C55.5667 362.433 56.2333 359.1 56.7 355.9C57.2333 352.7 57.6 349.833 57.8 347.3C58.0667 344.767 58.2 342.967 58.2 341.9C58.2 339.833 57.7667 338.233 56.9 337.1C56.1 335.9 54.6667 335.3 52.6 335.3H47.8L37.1 385H41.4ZM114.619 368L109.519 392H87.8188L93.3188 366.3L83.5188 328.5H107.519L114.319 353.6L129.319 328.5H140.119L114.619 368ZM170.002 346.9C170.202 345.9 170.302 344.533 170.302 342.8C170.302 341.8 170.235 340.833 170.102 339.9C169.968 338.9 169.735 338.033 169.402 337.3C169.068 336.5 168.568 335.9 167.902 335.5C167.235 335.033 166.368 334.8 165.302 334.8C164.102 334.8 163.002 335.067 162.002 335.6C161.002 336.133 160.102 336.833 159.302 337.7C158.568 338.5 157.968 339.467 157.502 340.6C157.102 341.667 156.902 342.8 156.902 344C156.902 345.733 157.335 347.067 158.202 348C159.135 348.933 160.335 349.7 161.802 350.3C163.268 350.9 164.935 351.4 166.802 351.8C168.668 352.2 170.602 352.667 172.602 353.2C174.268 353.667 175.935 354.267 177.602 355C179.268 355.733 180.735 356.733 182.002 358C183.335 359.2 184.402 360.8 185.202 362.8C186.002 364.733 186.402 367.167 186.402 370.1C186.402 374.3 185.568 377.833 183.902 380.7C182.235 383.567 179.935 385.9 177.002 387.7C174.068 389.5 170.568 390.8 166.502 391.6C162.502 392.4 158.135 392.8 153.402 392.8C148.602 392.8 144.668 392.5 141.602 391.9C138.602 391.233 136.235 390.533 134.502 389.8C132.435 388.933 130.902 387.933 129.902 386.8L133.302 373.1H150.902C150.835 373.7 150.768 374.533 150.702 375.6C150.635 376.6 150.602 377.4 150.602 378C150.602 378.8 150.702 379.633 150.902 380.5C151.102 381.367 151.402 382.167 151.802 382.9C152.268 383.633 152.902 384.233 153.702 384.7C154.502 385.167 155.502 385.4 156.702 385.4C158.035 385.4 159.202 385.1 160.202 384.5C161.268 383.9 162.135 383.167 162.802 382.3C163.535 381.367 164.068 380.367 164.402 379.3C164.802 378.167 165.002 377.067 165.002 376C165.002 374.533 164.635 373.3 163.902 372.3C163.235 371.3 162.302 370.467 161.102 369.8C159.902 369.067 158.502 368.467 156.902 368C155.368 367.467 153.768 366.933 152.102 366.4C150.502 365.933 148.802 365.367 147.002 364.7C145.268 364.033 143.668 363.1 142.202 361.9C140.735 360.7 139.502 359.2 138.502 357.4C137.568 355.533 137.102 353.167 137.102 350.3C137.102 346.033 138.168 342.467 140.302 339.6C142.502 336.667 145.235 334.3 148.502 332.5C151.835 330.7 155.468 329.433 159.402 328.7C163.335 327.9 167.068 327.5 170.602 327.5C175.268 327.5 179.268 328.067 182.602 329.2C186.002 330.267 188.568 331.533 190.302 333L186.602 346.9H170.002ZM230.393 327.5C236.126 327.5 240.76 328.233 244.293 329.7C247.893 331.167 250.726 333.433 252.793 336.5C254.126 338.567 255.16 340.9 255.893 343.5C256.626 346.1 256.993 349.1 256.993 352.5C256.993 355.433 256.726 358.367 256.193 361.3C255.66 364.233 254.893 367.067 253.893 369.8C252.96 372.467 251.793 375 250.393 377.4C249.06 379.733 247.56 381.8 245.893 383.6C242.76 387 239.126 389.4 234.993 390.8C230.926 392.133 225.893 392.8 219.893 392.8C214.093 392.8 209.426 392.2 205.893 391C202.36 389.8 199.56 387.867 197.493 385.2C196.026 383.333 194.86 380.967 193.993 378.1C193.193 375.233 192.793 371.633 192.793 367.3C192.793 359.9 194.093 353.3 196.693 347.5C199.36 341.633 203.126 337 207.993 333.6C210.926 331.533 214.193 330 217.793 329C221.393 328 225.593 327.5 230.393 327.5ZM219.093 385.8C220.626 385.8 222.06 385.133 223.393 383.8C224.793 382.4 226.06 380.567 227.193 378.3C228.393 375.967 229.46 373.333 230.393 370.4C231.393 367.467 232.226 364.433 232.893 361.3C233.56 358.167 234.06 355.067 234.393 352C234.793 348.867 234.993 346.033 234.993 343.5C234.993 340.033 234.626 337.667 233.893 336.4C233.226 335.067 232.226 334.4 230.893 334.4C229.36 334.4 227.893 335.067 226.493 336.4C225.093 337.733 223.76 339.533 222.493 341.8C221.293 344 220.193 346.567 219.193 349.5C218.26 352.367 217.426 355.333 216.693 358.4C216.026 361.467 215.493 364.5 215.093 367.5C214.76 370.5 214.593 373.267 214.593 375.8C214.593 379.6 214.993 382.233 215.793 383.7C216.66 385.1 217.76 385.8 219.093 385.8ZM298.85 327.5C304.583 327.5 309.217 328.233 312.75 329.7C316.35 331.167 319.183 333.433 321.25 336.5C322.583 338.567 323.617 340.9 324.35 343.5C325.083 346.1 325.45 349.1 325.45 352.5C325.45 355.433 325.183 358.367 324.65 361.3C324.117 364.233 323.35 367.067 322.35 369.8C321.417 372.467 320.25 375 318.85 377.4C317.517 379.733 316.017 381.8 314.35 383.6C311.217 387 307.583 389.4 303.45 390.8C299.383 392.133 294.35 392.8 288.35 392.8C282.55 392.8 277.883 392.2 274.35 391C270.817 389.8 268.017 387.867 265.95 385.2C264.483 383.333 263.317 380.967 262.45 378.1C261.65 375.233 261.25 371.633 261.25 367.3C261.25 359.9 262.55 353.3 265.15 347.5C267.817 341.633 271.583 337 276.45 333.6C279.383 331.533 282.65 330 286.25 329C289.85 328 294.05 327.5 298.85 327.5ZM287.55 385.8C289.083 385.8 290.517 385.133 291.85 383.8C293.25 382.4 294.517 380.567 295.65 378.3C296.85 375.967 297.917 373.333 298.85 370.4C299.85 367.467 300.683 364.433 301.35 361.3C302.017 358.167 302.517 355.067 302.85 352C303.25 348.867 303.45 346.033 303.45 343.5C303.45 340.033 303.083 337.667 302.35 336.4C301.683 335.067 300.683 334.4 299.35 334.4C297.817 334.4 296.35 335.067 294.95 336.4C293.55 337.733 292.217 339.533 290.95 341.8C289.75 344 288.65 346.567 287.65 349.5C286.717 352.367 285.883 355.333 285.15 358.4C284.483 361.467 283.95 364.5 283.55 367.5C283.217 370.5 283.05 373.267 283.05 375.8C283.05 379.6 283.45 382.233 284.25 383.7C285.117 385.1 286.217 385.8 287.55 385.8ZM379.507 392H356.107L345.007 346.1L335.207 392H326.207L339.707 328.5H363.607L374.107 375L384.007 328.5H393.207L379.507 392ZM410.863 383.2C410.863 384.733 410.529 386.1 409.863 387.3C409.263 388.5 408.429 389.5 407.363 390.3C406.363 391.1 405.196 391.7 403.863 392.1C402.529 392.567 401.129 392.8 399.663 392.8C397.129 392.8 394.963 392.133 393.163 390.8C391.429 389.4 390.562 387.233 390.562 384.3C390.562 382.767 390.863 381.4 391.463 380.2C392.063 379 392.863 378 393.862 377.2C394.863 376.4 395.996 375.8 397.263 375.4C398.596 374.933 399.963 374.7 401.363 374.7C404.096 374.7 406.363 375.4 408.163 376.8C409.963 378.133 410.863 380.267 410.863 383.2ZM472.646 386.6C470.979 387.4 469.246 388.2 467.446 389C465.713 389.733 463.846 390.4 461.846 391C459.846 391.533 457.646 391.967 455.246 392.3C452.913 392.633 450.346 392.8 447.546 392.8C438.613 392.8 431.713 390.8 426.846 386.8C422.046 382.8 419.646 376.133 419.646 366.8C419.646 361.4 420.479 356.333 422.146 351.6C423.813 346.8 426.279 342.633 429.546 339.1C432.813 335.5 436.846 332.667 441.646 330.6C446.446 328.533 451.946 327.5 458.146 327.5C461.079 327.5 463.746 327.7 466.146 328.1C468.613 328.5 470.813 329.033 472.746 329.7C474.746 330.3 476.513 330.967 478.046 331.7C479.646 332.433 481.079 333.133 482.346 333.8L478.746 352.4H460.746C460.813 351.733 460.879 350.867 460.946 349.8C461.079 348.733 461.179 347.667 461.246 346.6C461.313 345.467 461.379 344.367 461.446 343.3C461.513 342.233 461.546 341.333 461.546 340.6C461.546 340.067 461.513 339.467 461.446 338.8C461.379 338.067 461.213 337.367 460.946 336.7C460.679 336.033 460.246 335.5 459.646 335.1C459.113 334.633 458.379 334.4 457.446 334.4C455.713 334.4 454.113 335.133 452.646 336.6C451.246 338 449.979 339.9 448.846 342.3C447.713 344.633 446.713 347.3 445.846 350.3C444.979 353.3 444.246 356.367 443.646 359.5C443.113 362.567 442.679 365.6 442.346 368.6C442.079 371.6 441.946 374.233 441.946 376.5C441.946 377.167 441.979 378 442.046 379C442.113 380 442.313 380.967 442.646 381.9C442.979 382.833 443.479 383.633 444.146 384.3C444.879 384.967 445.846 385.3 447.046 385.3C449.113 385.3 451.113 384.033 453.046 381.5C454.979 378.9 456.679 374.3 458.146 367.7H476.646L472.646 386.6ZM493.613 328.5H515.313L503.513 383.6H523.813L522.113 392H480.113L493.613 328.5ZM552.907 369.3C552.574 370.767 552.307 372.033 552.107 373.1C551.907 374.167 551.807 375.167 551.807 376.1C551.807 378.433 552.607 380.3 554.207 381.7C555.874 383.1 558.307 383.8 561.507 383.8C563.84 383.8 565.74 383.4 567.207 382.6C568.74 381.8 569.974 380.733 570.907 379.4C571.907 378.067 572.674 376.533 573.207 374.8C573.807 373.067 574.307 371.233 574.707 369.3L583.207 328.5H592.307L583.607 369.5C582.94 372.7 581.974 375.7 580.707 378.5C579.44 381.3 577.607 383.767 575.207 385.9C572.874 388.033 569.84 389.733 566.107 391C562.374 392.2 557.74 392.8 552.207 392.8C544.54 392.8 538.874 391.567 535.207 389.1C531.54 386.567 529.707 382.7 529.707 377.5C529.707 375.167 530.007 372.2 530.607 368.6C531.207 365 531.974 361.1 532.907 356.9L539.007 328.5H561.707L552.907 369.3ZM650.495 343C650.495 344.933 650.195 346.667 649.595 348.2C649.062 349.733 648.295 351.1 647.295 352.3C646.295 353.5 645.129 354.567 643.795 355.5C642.462 356.433 640.995 357.3 639.395 358.1C640.129 358.367 640.995 358.8 641.995 359.4C642.995 359.933 643.962 360.7 644.895 361.7C645.829 362.7 646.595 364 647.195 365.6C647.862 367.133 648.195 369.033 648.195 371.3C648.195 374.3 647.562 377.067 646.295 379.6C645.029 382.133 643.129 384.333 640.595 386.2C638.129 388 635.062 389.433 631.395 390.5C627.795 391.5 623.629 392 618.895 392H589.195L602.695 328.5H628.995C631.595 328.5 634.162 328.7 636.695 329.1C639.295 329.433 641.595 330.133 643.595 331.2C645.662 332.267 647.329 333.767 648.595 335.7C649.862 337.567 650.495 340 650.495 343ZM623.295 355.1C624.762 355.1 625.995 354.667 626.995 353.8C628.062 352.933 628.929 351.867 629.595 350.6C630.262 349.267 630.762 347.867 631.095 346.4C631.429 344.867 631.595 343.5 631.595 342.3C631.595 340.367 631.129 338.733 630.195 337.4C629.329 336 627.929 335.3 625.995 335.3H622.995L618.695 355.1H623.295ZM616.095 385.7C618.095 385.7 619.762 385.133 621.095 384C622.429 382.867 623.529 381.467 624.395 379.8C625.262 378.133 625.862 376.4 626.195 374.6C626.595 372.733 626.795 371.1 626.795 369.7C626.795 367.367 626.295 365.533 625.295 364.2C624.362 362.8 622.829 362.1 620.695 362.1H616.995L612.095 385.7H616.095Z" fill="#E58D00" fill-opacity="0.77"/>
</g>
<defs>
<linearGradient id="paint0_linear_7_2" x1="331.5" y1="-18.5" x2="331.5" y2="411" gradientUnits="userSpaceOnUse">
<stop stop-color="#FF8C00"/>
<stop offset="1" stop-color="#A45A00"/>
</linearGradient>
<clipPath id="clip0_7_2">
<rect width="663" height="411" fill="white"/>
</clipPath>
</defs>
</svg>
