<svg width="700" height="75" viewBox="0 0 700 75" fill="none" xmlns="http://www.w3.org/2000/svg">
<g clip-path="url(#clip0_5_2)">
<path d="M-46.6262 62H-63.9062L-53.1062 11.2H-35.7462L-46.6262 62ZM-20.5325 62H-37.8125L-27.0125 11.2H-9.6525L-20.5325 62ZM5.56125 62H-11.7188L-0.91875 11.2H16.4413L5.56125 62ZM31.655 62H14.375L25.175 11.2H42.535L31.655 62ZM57.7488 62H40.4688L51.2688 11.2H68.6288L57.7488 62ZM83.8425 62H66.5625L77.3625 11.2H94.7225L83.8425 62ZM109.936 62H92.6562L103.456 11.2H120.816L109.936 62ZM136.03 62H118.75L129.55 11.2H146.91L136.03 62ZM162.124 62H144.844L155.644 11.2H173.004L162.124 62ZM188.218 62H170.938L181.738 11.2H199.098L188.218 62ZM214.311 62H197.031L207.831 11.2H225.191L214.311 62ZM240.405 62H223.125L233.925 11.2H251.285L240.405 62ZM266.499 62H249.219L260.019 11.2H277.379L266.499 62ZM292.593 62H275.312L286.113 11.2H303.473L292.593 62ZM318.686 62H301.406L312.206 11.2H329.566L318.686 62ZM344.78 62H327.5L338.3 11.2H355.66L344.78 62ZM370.874 62H353.594L364.394 11.2H381.754L370.874 62ZM396.968 62H379.688L390.488 11.2H407.848L396.968 62ZM423.061 62H405.781L416.581 11.2H433.941L423.061 62ZM449.155 62H431.875L442.675 11.2H460.035L449.155 62ZM475.249 62H457.969L468.769 11.2H486.129L475.249 62ZM501.343 62H484.062L494.863 11.2H512.223L501.343 62ZM527.436 62H510.156L520.956 11.2H538.316L527.436 62ZM553.53 62H536.25L547.05 11.2H564.41L553.53 62ZM579.624 62H562.344L573.144 11.2H590.504L579.624 62ZM605.718 62H588.438L599.238 11.2H616.598L605.718 62ZM631.811 62H614.531L625.331 11.2H642.691L631.811 62ZM657.905 62H640.625L651.425 11.2H668.785L657.905 62ZM683.999 62H666.719L677.519 11.2H694.879L683.999 62ZM710.093 62H692.812L703.613 11.2H720.973L710.093 62Z" fill="url(#paint0_linear_5_2)"/>
<path d="M-63.9062 70.4H718.893V74.56H-63.9062V70.4Z" fill="url(#paint1_linear_5_2)"/>
<path d="M729.72 12.9999L747 12.9999L736.2 63.7999L718.84 63.7999L729.72 12.9999ZM703.626 12.9999L720.906 12.9999L710.106 63.7999L692.746 63.7999L703.626 12.9999ZM677.532 12.9999L694.812 12.9999L684.012 63.7999L666.652 63.7999L677.532 12.9999ZM651.439 12.9999L668.719 12.9999L657.919 63.8L640.559 63.8L651.439 12.9999ZM625.345 12.9999L642.625 12.9999L631.825 63.8L614.465 63.8L625.345 12.9999ZM599.251 13L616.531 13L605.731 63.8L588.371 63.8L599.251 13ZM573.157 13L590.437 13L579.637 63.8L562.277 63.8L573.157 13ZM547.064 13L564.344 13L553.544 63.8L536.184 63.8L547.064 13ZM520.97 13L538.25 13L527.45 63.8L510.09 63.8L520.97 13ZM494.876 13L512.156 13L501.356 63.8L483.996 63.8L494.876 13ZM468.782 13L486.062 13L475.262 63.8L457.902 63.8L468.782 13ZM442.689 13L459.969 13L449.169 63.8L431.809 63.8L442.689 13ZM416.595 13L433.875 13L423.075 63.8L405.715 63.8L416.595 13ZM390.501 13L407.781 13L396.981 63.8L379.621 63.8L390.501 13ZM364.407 13L381.687 13L370.887 63.8L353.527 63.8L364.407 13ZM338.314 13L355.594 13L344.794 63.8L327.434 63.8L338.314 13ZM312.22 13L329.5 13L318.7 63.8L301.34 63.8L312.22 13ZM286.126 13L303.406 13L292.606 63.8L275.246 63.8L286.126 13ZM260.032 13L277.312 13L266.512 63.8L249.152 63.8L260.032 13ZM233.939 13L251.219 13L240.419 63.8L223.059 63.8L233.939 13ZM207.845 13L225.125 13L214.325 63.8L196.965 63.8L207.845 13ZM181.751 13L199.031 13L188.231 63.8L170.871 63.8L181.751 13ZM155.657 13L172.937 13L162.137 63.8L144.777 63.8L155.657 13ZM129.564 13L146.844 13L136.044 63.8L118.684 63.8L129.564 13ZM103.47 13L120.75 13L109.95 63.8L92.59 63.8L103.47 13ZM77.3762 13L94.6562 13L83.8562 63.8L66.4962 63.8L77.3762 13ZM51.2825 13L68.5625 13L57.7625 63.8L40.4025 63.8L51.2825 13ZM25.1887 13L42.4687 13L31.6687 63.8L14.3087 63.8L25.1887 13ZM-0.905007 13L16.375 13L5.575 63.8L-11.785 63.8L-0.905007 13ZM-26.9988 13L-9.71876 13L-20.5188 63.8L-37.8788 63.8L-26.9988 13ZM-53.0925 13L-35.8125 13L-46.6125 63.8L-63.9725 63.8L-53.0925 13ZM-79.1863 13L-61.9063 13L-72.7063 63.8L-90.0663 63.8L-79.1863 13Z" fill="url(#paint2_linear_5_2)"/>
<path d="M747 4.59994L-87.9863 4.60001L-87.9863 0.440014L747 0.439941L747 4.59994Z" fill="url(#paint3_linear_5_2)"/>
</g>
<defs>
<linearGradient id="paint0_linear_5_2" x1="327.5" y1="85" x2="327.5" y2="-16" gradientUnits="userSpaceOnUse">
<stop stop-color="#B90000"/>
<stop offset="1" stop-color="#FF0000"/>
</linearGradient>
<linearGradient id="paint1_linear_5_2" x1="327.5" y1="85" x2="327.5" y2="-16" gradientUnits="userSpaceOnUse">
<stop stop-color="#B90000"/>
<stop offset="1" stop-color="#FF0000"/>
</linearGradient>
<linearGradient id="paint2_linear_5_2" x1="329.5" y1="-10" x2="329.5" y2="91" gradientUnits="userSpaceOnUse">
<stop stop-color="#B90000"/>
<stop offset="1" stop-color="#FF0000"/>
</linearGradient>
<linearGradient id="paint3_linear_5_2" x1="329.5" y1="-10" x2="329.5" y2="91" gradientUnits="userSpaceOnUse">
<stop stop-color="#B90000"/>
<stop offset="1" stop-color="#FF0000"/>
</linearGradient>
<clipPath id="clip0_5_2">
<rect width="700" height="75" fill="white"/>
</clipPath>
</defs>
</svg>
